<svg xmlns="http://www.w3.org/2000/svg" viewBox="0 0 1365 1285">
<g fill="none" fill-rule="evenodd">

<path class="index-base-mid" fill="#2d7187" d="M82 192h1656v1142H82z"/>

<path class="index-base-light" fill="#3a91ad" d="M1172.395 946.244H631L679.387 905h443.04zM752 995h300l10 20H742z"/>

<path class="index-base-dark" fill="#205161" d="M742 1028h320l-10 20H752zm-79-836h494v493H663Z"/>

<path class="index-base-dark" fill="#205161" d="M1015.194 1196h25v55h-25Zm-55 0h25v55h-25Zm-55 0h25v55h-25Zm405 0h25v55h-25Zm-55 0h25v55h-25Zm-55 0h25v55h-25Zm405 0h25v55h-25Zm-55 0h25v55h-25Zm-55 0h25v55h-25Z"/>

<g class="index-button-shadow">
<circle cx="1297" cy="1016" r="63" fill="#205161"/>
<circle cx="1183" cy="1117" r="68" fill="#205161"/>
<circle cx="514" cy="1028" r="79" fill="#205161"/>
<circle cx="309" cy="1022" r="66" fill="#205161"/>
</g>

<path class="index-tape" fill="#13313a" d="M179.644 789.699q126.926 260.784 137.39 260.783c10.465 0 166.759-83.127 197.16-83.127 30.4 0 111.284 46.92 119.142 46.92s519.483 1.467 537.912 1.467 2.2 90.685 16.498 90.685 68.078-139.072 109.35-139.072c41.274 0 170.853 95.077 208.104 74.661q37.25-20.415 102.462-244.016h10.55q-68.91 233.35-108.182 254.6c-39.272 21.249-176.09-70.944-212.933-70.944-36.844 0-80.468 142.415-114.097 142.415-24.097 0-11.407-95.748-18.813-95.748H633.336c-9.57 0-97.623-50.323-119.142-50.323-21.52 0-195.347 94.038-205.162 87.097q-9.815-6.942-148.214-288.192z"/>

<path fill="#cf4917" d="M1020.194 1202h15v43.55h-15z"/>
<path fill="#f9ac3d" d="M965.194 1202h15v43.55h-15z"/>
<path fill="#edf4f8" d="M910.194 1202h15v43.55h-15zM1315.194 1202h15v43.55h-15z"/>
<path fill="#5ea085" d="M1260.194 1202h15v43.55h-15z"/>
<path fill="#edf4f8" d="M1205.194 1202h15v43.55h-15z"/>

</g>
</svg>