<svg xmlns="http://www.w3.org/2000/svg" viewBox="-24 -24 575 414">

<g class="work-disk" transform="translate(175 0)">
<circle cx="174.937" cy="174.937" r="112.824" fill="#14313b"/>
<path fill="#c8deea" d="M175 0c96.65 0 175 78.35 175 175s-78.35 175-175 175S0 271.65 0 175 78.35 0 175 0m14.231 263.803h-28.038a3.81 3.81 0 0 0-3.663 2.764l-15.89 55.73a7.617 7.617 0 0 0 6.236 9.623q17.165 2.481 27.336 2.482 9.917 0 26.483-2.36l.853-.122a7.617 7.617 0 0 0 6.236-9.623l-15.89-55.73a3.81 3.81 0 0 0-3.663-2.764m-14.04-25.773a6.094 6.094 0 1 0 0 12.188 6.094 6.094 0 0 0 0-12.188m0-118.443a3.81 3.81 0 0 0-3.81 3.808l.003.125a52 52 0 0 0-1.137.091l-.358.034-.402.041a52 52 0 0 0-1.171.138l-.303.04a52 52 0 0 0-5.045.941l-.37.09-.148.037-.256.064-.463.12a51 51 0 0 0-3.635 1.111l-.417.147a51.5 51.5 0 0 0-7.301 3.263 53 53 0 0 0-1.392.785l-.187.11a50 50 0 0 0-1.92 1.192 52 52 0 0 0-2.58 1.792l-.313.235a48 48 0 0 0-.946.73l-.252.2a44 44 0 0 0-1.137.936l-.284.243a53 53 0 0 0-4.057 3.89 63 63 0 0 0-.814.89l-.23.259a59 59 0 0 0-.784.912l-.235.281a54 54 0 0 0-1.22 1.53l-.173.227-.054.072a59 59 0 0 0-1.042 1.428 81 81 0 0 0-.459.664l-.168.249q-.118.175-.234.352l-.163.249q-.15.228-.296.458l-.095.151q-.145.228-.287.458l-.17.279q-.108.176-.213.352l-.084.142a51 51 0 0 0-1.89 3.483l-.166.34q-.096.195-.19.394l-.158.34q-.095.201-.188.407l-.079.175-.21.47-.15.35q-.085.196-.168.394l-.05.122a51 51 0 0 0-1.684 4.668l-.047.156q-.073.24-.144.48l-.098.344q-.064.22-.125.441l-.055.208a35 35 0 0 0-.152.568l-.022.091a51.4 51.4 0 0 0-1.464 8.847v.027a3.809 3.809 0 0 0-.03 7.6 52 52 0 0 0 .354 3.442l.058.414.047.32a52 52 0 0 0 .517 2.865l.06.281a51 51 0 0 0 .48 2.023l.076.293a51 51 0 0 0 1.405 4.468l.121.329.143.377a51 51 0 0 0 .28.717l.14.346q.097.24.197.477l.076.18a51 51 0 0 0 2.003 4.184l.193.358a52 52 0 0 0 .55.983l.203.349a52 52 0 0 0 2.397 3.723 52 52 0 0 0 1.928 2.557l.174.216.274.334a49 49 0 0 0 1.213 1.417l.257.286.282.31a54 54 0 0 0 .851.907 52 52 0 0 0 1.811 1.794l.235.22.282.26a47 47 0 0 0 .614.555l.179.158a56 56 0 0 0 .607.525l.324.275a45 45 0 0 0 .621.513l.245.198a64 64 0 0 0 .654.516 53 53 0 0 0 2.66 1.934l.352.237q.189.126.38.251l.223.145q.246.16.495.317l.143.09q.202.128.407.253l.297.18q.183.113.368.222l.236.138q.222.132.446.26.119.067.238.135a38 38 0 0 0 .717.398q.177.097.355.192l.208.11q1.41.747 2.871 1.408l.318.142q.213.095.428.188l.233.1q.254.11.512.216l.166.067q.262.108.525.213l.212.083.462.18.274.102.428.16.308.11.423.15.252.086q1.168.4 2.359.743l.328.093q1.016.286 2.048.532l.132.03q.322.076.646.148.038.007.077.015.33.075.663.142l.082.016q.307.064.615.123l.23.042q.256.05.516.094l.218.037q2.541.439 5.162.62v.062l-.001.063a3.808 3.808 0 1 0 7.617 0l-.004-.152.14-.011.317-.026a52 52 0 0 0 .875-.083l.356-.037a52 52 0 0 0 1.64-.207l.357-.052.38-.058a51.4 51.4 0 0 0 9.07-2.285 51 51 0 0 0 2.89-1.116l.185-.079a51 51 0 0 0 2.211-1.004l.34-.166.386-.191.347-.177.275-.141a52 52 0 0 0 2.432-1.349l.11-.065.11-.065a51 51 0 0 0 1.035-.635l.273-.173a51 51 0 0 0 2.826-1.938 52 52 0 0 0 2.584-2.03l.41-.349a37 37 0 0 0 .703-.612 54 54 0 0 0 .973-.886l.262-.247.239-.227.323-.313a62 62 0 0 0 1.02-1.024 54 54 0 0 0 1.676-1.814q.444-.504.874-1.019l.233-.28a60 60 0 0 0 .94-1.174 53 53 0 0 0 1.094-1.464 52 52 0 0 0 2.599-3.975l.083-.142q.15-.256.299-.516l.082-.146q.131-.23.26-.463l.147-.27a38 38 0 0 0 .541-1.02l.348-.687q.154-.31.304-.624.319-.66.617-1.332l.048-.109.134-.303.17-.398q.236-.553.459-1.113l.124-.317q.095-.242.187-.485l.07-.19q.079-.207.155-.417l.107-.3a51 51 0 0 0 1.943-6.957q.007-.044.017-.087.067-.323.128-.649l.01-.06q.556-2.936.767-5.98l.125.002a3.808 3.808 0 1 0 0-7.617l-.152.003a52 52 0 0 0-.118-1.31l-.05-.47a52 52 0 0 0-.968-5.73l-.088-.38a51 51 0 0 0-.93-3.417l-.099-.312a51 51 0 0 0-.488-1.462l-.005-.015a51 51 0 0 0-.534-1.451l-.095-.246-.18-.455-.113-.277a51 51 0 0 0-.83-1.917l-.091-.2a51 51 0 0 0-.563-1.176l-.12-.241a52 52 0 0 0-2.607-4.605l-.223-.347a52 52 0 0 0-4.116-5.516 38 38 0 0 0-.52-.599l-.114-.13-.288-.32-.283-.311-.227-.245-.265-.284a52 52 0 0 0-5.505-5.05l-.29-.228-.094-.074q-.568-.441-1.148-.866l-.024-.018a52 52 0 0 0-1.477-1.044l-.356-.24-.385-.255-.207-.135-.405-.26-.243-.153-.415-.258-.197-.12-.426-.258-.226-.133a50 50 0 0 0-3.055-1.662l-.333-.166-.371-.18-.428-.204-.191-.089-.467-.215-.257-.116-.43-.19-.27-.116-.41-.174-.255-.106q-.577-.24-1.162-.464l-.257-.097a51 51 0 0 0-3.837-1.281l-.222-.063a33 33 0 0 0-.506-.143l-.19-.05a36 36 0 0 0-.596-.159l-.093-.023a37 37 0 0 0-.643-.16l-.065-.015a51.4 51.4 0 0 0-8.106-1.276l.002-.075v-.077a3.81 3.81 0 0 0-3.808-3.808M175 142.818c17.773 0 32.182 14.409 32.182 32.182S192.773 207.182 175 207.182 142.818 192.773 142.818 175s14.409-32.182 32.182-32.182m.19 18.281c-7.572 0-13.71 6.138-13.71 13.71s6.138 13.711 13.71 13.711 13.711-6.138 13.711-13.71-6.138-13.711-13.71-13.711m0 6.094a7.617 7.617 0 1 1 0 15.234 7.617 7.617 0 0 1 0-15.234m113-89.203q-.4.315-.754.68l-40.318 41.627a3.81 3.81 0 0 0-.563 4.554l14.02 24.281a3.81 3.81 0 0 0 4.225 1.79l56.208-14.103a7.617 7.617 0 0 0 5.216-10.212q-6.434-16.107-11.52-24.915-4.958-8.588-15.283-21.755l-.533-.678a7.617 7.617 0 0 0-10.697-1.27M51.396 79.259l-.533.678q-10.326 13.167-15.284 21.755-5.085 8.808-11.52 24.915a7.617 7.617 0 0 0 5.217 10.212l56.208 14.103a3.81 3.81 0 0 0 4.225-1.79l14.02-24.281a3.81 3.81 0 0 0-.563-4.554L62.847 78.67a7.617 7.617 0 0 0-11.452.589m139.03-60.597h-22.852v57.127h22.851z"/>

<path fill="#edf4f8" d="M174.937 3.931c94.443 0 171.005 76.562 171.005 171.006 0 94.443-76.562 171.005-171.005 171.005-94.444 0-171.006-76.562-171.006-171.005C3.931 80.493 80.493 3.93 174.937 3.93m.196 3.931C82.97 7.862 8.255 82.576 8.255 174.74S82.97 341.618 175.133 341.618s166.878-74.714 166.878-166.878S267.297 7.862 175.133 7.862"/>
</g>

<g class="work-cover">
<path class="work-cover-base" fill="#453840" stroke="#372c32" stroke-linecap="round" stroke-width="5" d="M3.003 3.003h360v360h-360z"/>
<path fill="#5ea085" d="M3.108 71.614h357v18h-357z"/>
<path fill="#91bda0" d="M3.108 89.614h357v18h-357z"/>
<path fill="#efc675" d="M3.108 107.614h357v18h-357z"/>
<path fill="#292126" d="M3.108 125.614h357v18h-357z"/>
<path fill="#eb5b3d" d="M3.108 143.614h357v18h-357z"/>

<text fill="#edf4f8" font-family="sunset-script, Sunset Script" font-size="32" transform="rotate(-1 353.562 116.441)">
<tspan x="30" y="325">{{ item.data.title }}</tspan>
</text>
</g>

</svg>
