<svg xmlns="http://www.w3.org/2000/svg" viewBox="0 0 1255 1050" data-visibility="small">

<g fill="none" fill-rule="evenodd"><path fill="#000" d="m354.608 169.935 274.761-48.448 19.449 110.298-274.762 48.448c-30.458 5.37-59.502-14.967-64.873-45.425-5.37-30.458 14.967-59.503 45.425-64.873"/><path fill="#372d33" d="M613.15 3.51c9.51-1.676 18.58 4.674 20.257 14.185l63.463 359.912c1.677 9.511-4.674 18.58-14.185 20.257L86.85 502.926c-9.51 1.677-18.58-4.673-20.257-14.184L3.13 128.83c-1.677-9.51 4.674-18.58 14.185-20.257zM217.692 439.372c-6.087 1.074-10.151 6.878-9.078 12.965s6.878 10.151 12.965 9.078 10.15-6.878 9.078-12.965c-1.074-6.087-6.878-10.15-12.965-9.078m325.471-57.389c-6.087 1.073-10.151 6.878-9.078 12.965s6.878 10.15 12.965 9.078c6.087-1.074 10.15-6.878 9.078-12.965-1.074-6.087-6.878-10.151-12.965-9.078M293.365 403.3c-6.087 1.074-10.151 6.878-9.078 12.965s6.878 10.151 12.965 9.078 10.15-6.878 9.078-12.965c-1.074-6.087-6.878-10.15-12.965-9.078m166.352-29.332c-6.087 1.073-10.151 6.878-9.078 12.965s6.878 10.15 12.964 9.078c6.087-1.074 10.152-6.878 9.078-12.965s-6.877-10.151-12.964-9.078M423.4 168.008l-171.863 30.305 15.79 89.547 171.862-30.304zm-232.035 51.568c-19.022 3.354-31.723 21.493-28.369 40.515 3.354 19.021 21.493 31.722 40.514 28.368s31.723-21.493 28.369-40.514-21.493-31.723-40.514-28.369m295.85-52.166c-19.02 3.354-31.722 21.493-28.368 40.514s21.493 31.723 40.515 28.369c19.021-3.354 31.722-21.493 28.368-40.515-3.354-19.021-21.493-31.722-40.514-28.368"/><path fill="#453840" d="M562.987 305.331a6.995 6.995 0 0 1 7.833 4.625l32.072 93.78a6.995 6.995 0 0 1-5.403 9.15l-417.865 73.682a6.995 6.995 0 0 1-8.208-6.752l-1.936-99.093a6.995 6.995 0 0 1 5.778-7.024zm-345.295 134.04c-6.087 1.074-10.151 6.878-9.078 12.965s6.878 10.151 12.965 9.078 10.15-6.878 9.078-12.965c-1.074-6.087-6.878-10.15-12.965-9.078m325.471-57.389c-6.087 1.073-10.151 6.878-9.078 12.965s6.878 10.15 12.965 9.078c6.087-1.074 10.15-6.878 9.078-12.965-1.074-6.087-6.878-10.151-12.965-9.078M293.365 403.3c-6.087 1.074-10.151 6.878-9.078 12.965s6.878 10.151 12.965 9.078 10.15-6.878 9.078-12.965c-1.074-6.087-6.878-10.15-12.965-9.078m166.352-29.332c-6.087 1.073-10.151 6.878-9.078 12.965s6.878 10.15 12.964 9.078c6.087-1.074 10.152-6.878 9.078-12.965s-6.877-10.151-12.964-9.078"/><path fill="#292126" d="M602.568 43.02a6.995 6.995 0 0 1 8.103 5.673l47.618 270.056a6.995 6.995 0 0 1-5.638 8.096l-53.193 9.662a6.995 6.995 0 0 1-8.132-5.632l-6.139-34.814a6.995 6.995 0 0 0-8.103-5.674l-491.133 86.6a6.995 6.995 0 0 1-8.103-5.674L38.743 149.54a6.995 6.995 0 0 1 5.674-8.103zM423.401 168.009l-171.863 30.304 15.79 89.547 171.862-30.304zm-232.035 51.567c-19.022 3.354-31.723 21.493-28.369 40.515 3.354 19.021 21.493 31.722 40.514 28.368s31.723-21.493 28.369-40.514-21.493-31.723-40.514-28.369m295.85-52.166c-19.02 3.354-31.722 21.493-28.368 40.514s21.493 31.723 40.515 28.369c19.021-3.354 31.722-21.493 28.368-40.515-3.354-19.021-21.493-31.722-40.514-28.368"/><path fill="#d6c3a8" d="m57.016 154.485 533.841-94.13a3.497 3.497 0 0 1 4.052 2.837l9.716 55.106a3.497 3.497 0 0 1-2.836 4.051L67.947 216.48a3.497 3.497 0 0 1-4.051-2.836l-9.717-55.106a3.497 3.497 0 0 1 2.837-4.052m31.519 178.751 533.84-94.13a3.497 3.497 0 0 1 4.052 2.836l3.948 22.387a3.497 3.497 0 0 1-2.837 4.052L93.697 362.51a3.497 3.497 0 0 1-4.052-2.837l-3.947-22.386a3.497 3.497 0 0 1 2.837-4.052"/><path fill="#453840" d="m606.447 128.63 18.22 103.324L83.936 327.3l-18.22-103.325zM423.401 168.01l-171.863 30.304 15.79 89.547 171.862-30.304zm-232.035 51.567c-19.022 3.354-31.723 21.493-28.369 40.515 3.354 19.021 21.493 31.722 40.514 28.368s31.723-21.493 28.369-40.514-21.493-31.723-40.514-28.369m295.85-52.166c-19.02 3.354-31.722 21.493-28.368 40.514s21.493 31.723 40.515 28.369c19.021-3.354 31.722-21.493 28.368-40.515-3.354-19.021-21.493-31.722-40.514-28.368"/><g transform="rotate(-10 394.294 -3419.717)"><circle cx="11.191" cy="11.191" r="11.191" fill="#1b1619"/><path fill="#453840" fill-rule="nonzero" d="M16.62 10.909q1.043.28.763 1.322l-.21.782q-.28 1.043-1.322.763l-3.461-.927-.933 3.483q-.273 1.018-1.316.739l-1.09-.292q-1.043-.28-.765-1.322l.927-3.46-3.437-.92q-1.043-.28-.764-1.323l.21-.782q.28-1.042 1.322-.763l3.438.921.914-3.412q.28-1.042 1.322-.763l1.114.299q1.043.28.764 1.322l-.914 3.412z"/></g><g transform="rotate(-10 693.31 -1.944)"><circle cx="11.191" cy="11.191" r="11.191" fill="#1b1619"/><path fill="#453840" fill-rule="nonzero" d="M16.62 10.909q1.043.28.763 1.322l-.21.782q-.28 1.043-1.322.763l-3.461-.927-.933 3.483q-.273 1.018-1.316.739l-1.09-.292q-1.043-.28-.765-1.322l.927-3.46-3.437-.92q-1.043-.28-.764-1.323l.21-.782q.28-1.042 1.322-.763l3.438.921.914-3.412q.28-1.042 1.322-.763l1.114.299q1.043.28.764 1.322l-.914 3.412z"/></g><g transform="rotate(-10 2432.966 -3598.078)"><circle cx="11.191" cy="11.191" r="11.191" fill="#1b1619"/><path fill="#453840" fill-rule="nonzero" d="M16.62 10.909q1.043.28.763 1.322l-.21.782q-.28 1.043-1.322.763l-3.461-.927-.933 3.483q-.273 1.018-1.316.739l-1.09-.292q-1.043-.28-.765-1.322l.927-3.46-3.437-.92q-1.043-.28-.764-1.323l.21-.782q.28-1.042 1.322-.763l3.438.921.914-3.412q.28-1.042 1.322-.763l1.114.299q1.043.28.764 1.322l-.914 3.412z"/></g><g transform="rotate(-10 2216.363 -1861.189)"><circle cx="11.191" cy="11.191" r="11.191" fill="#1b1619"/><path fill="#453840" fill-rule="nonzero" d="M16.62 10.909q1.043.28.763 1.322l-.21.782q-.28 1.043-1.322.763l-3.461-.927-.933 3.483q-.273 1.018-1.316.739l-1.09-.292q-1.043-.28-.765-1.322l.927-3.46-3.437-.92q-1.043-.28-.764-1.323l.21-.782q.28-1.042 1.322-.763l3.438.921.914-3.412q.28-1.042 1.322-.763l1.114.299q1.043.28.764 1.322l-.914 3.412z"/></g><g transform="rotate(-10 2731.982 -180.305)"><circle cx="11.191" cy="11.191" r="11.191" fill="#1b1619"/><path fill="#453840" fill-rule="nonzero" d="M16.62 10.909q1.043.28.763 1.322l-.21.782q-.28 1.043-1.322.763l-3.461-.927-.933 3.483q-.273 1.018-1.316.739l-1.09-.292q-1.043-.28-.765-1.322l.927-3.46-3.437-.92q-1.043-.28-.764-1.323l.21-.782q.28-1.042 1.322-.763l3.438.921.914-3.412q.28-1.042 1.322-.763l1.114.299q1.043.28.764 1.322l-.914 3.412z"/></g><path fill="#5ea085" d="m527.921 142.477 79.215-13.968 3.644 20.665-79.215 13.968z"/><path fill="#91bda0" d="m531.565 163.142 79.215-13.968 3.644 20.665-79.215 13.968z"/><path fill="#efc675" d="m535.208 183.806 79.215-13.968 3.644 20.665-79.215 13.968z"/><path fill="#292126" d="m538.852 204.471 79.215-13.968 3.644 20.666-79.215 13.967z"/><path fill="#eb5b3d" d="m542.496 225.135 79.215-13.967 3.644 20.665L546.14 245.8z"/><path fill="#5ea085" d="m65.718 223.975 79.215-13.967 3.644 20.665-79.215 13.968z"/><path fill="#91bda0" d="m69.362 244.64 79.215-13.967 3.644 20.665-79.215 13.968z"/><path fill="#efc675" d="m73.005 265.305 79.215-13.968 3.644 20.665L76.65 285.97z"/><path fill="#292126" d="m76.65 285.97 79.214-13.968 3.644 20.666-79.215 13.967z"/><path fill="#eb5b3d" d="m80.293 306.634 79.215-13.967 3.644 20.665-79.215 13.967z"/><path fill="#292126" d="m108.657 155.323 7.59 43.052-43.051 7.591-7.591-43.052zm-18.43 12.838-11.71 2.065 4.25 24.106 10.925-1.926a17 17 0 0 0 3.368-.932q1.521-.605 2.526-1.693a6.8 6.8 0 0 0 1.383-2.2q.78-1.89.402-4.033-.367-2.077-1.564-3.367t-3.163-1.634q1.101-.835 1.59-1.697.874-1.537.486-3.745-.378-2.143-1.761-3.483-2.289-2.177-6.733-1.46m1.479 13.651q1.573-.26 2.509-.02 1.677.428 2.009 2.31.392 2.224-1.072 3.29-.808.582-2.395.862l-5.92 1.043-1.133-6.427Zm-2.344-9.181q1.75-.309 2.945-.132 1.403.308 1.7 1.994.269 1.52-.61 2.282-.89.781-2.476 1.061L85 178.88l-.938-5.315Z"/><path fill="#c8deea" d="M189.969 215.212c21.212-3.74 41.44 10.423 45.18 31.635s-10.424 41.44-31.636 45.18c-21.211 3.74-41.44-10.424-45.18-31.636-3.74-21.211 10.424-41.44 31.636-45.18m-2.657 5.35a34.4 34.4 0 0 0-16.759 10.876l8.323 5.829-4.474 6.39-8.184-5.731a34.4 34.4 0 0 0-3.74 18.494l9.617-1.695 1.355 7.681-9.5 1.675a34.4 34.4 0 0 0 9.912 15.414l5.48-7.826 6.389 4.474-5.512 7.873a34.4 34.4 0 0 0 18.673 4.264l-1.559-8.844 7.682-1.355 1.566 8.883a34.4 34.4 0 0 0 16.432-10.494l-7.872-5.512 4.473-6.39 7.826 5.48a34.4 34.4 0 0 0 4.042-17.875l-9.5 1.676-1.354-7.682 9.617-1.696a34.4 34.4 0 0 0-9.84-16.1l-5.73 8.184-6.39-4.474 5.828-8.324a34.4 34.4 0 0 0-19.112-4.51l1.559 8.843-7.682 1.355ZM486.396 162.944c21.212-3.74 41.44 10.423 45.18 31.635s-10.423 41.44-31.635 45.18-41.44-10.424-45.18-31.636 10.423-41.44 31.635-45.18m-2.657 5.35a34.4 34.4 0 0 0-16.759 10.876l8.323 5.829-4.474 6.39-8.184-5.731a34.4 34.4 0 0 0-3.74 18.494l9.617-1.695 1.355 7.681-9.5 1.675a34.4 34.4 0 0 0 9.912 15.414l5.48-7.826 6.389 4.474-5.512 7.872a34.4 34.4 0 0 0 18.673 4.265l-1.559-8.844 7.682-1.355 1.566 8.883a34.4 34.4 0 0 0 16.432-10.494l-7.872-5.513 4.474-6.389 7.825 5.48a34.4 34.4 0 0 0 4.042-17.875l-9.5 1.676-1.354-7.682 9.617-1.696a34.4 34.4 0 0 0-9.84-16.1l-5.73 8.184-6.39-4.474 5.828-8.324a34.4 34.4 0 0 0-19.112-4.51l1.56 8.843-7.682 1.354Z"/><path fill="#000" d="m937.815 287.533 274.761 48.448-19.448 110.299-274.762-48.448c-30.458-5.37-50.795-34.416-45.425-64.874s34.416-50.795 64.874-45.425"/><path fill="#372d33" d="M1237.685 219.573c9.511 1.677 15.862 10.746 14.185 20.257l-63.463 359.912c-1.677 9.51-10.746 15.861-20.257 14.184L572.315 508.864c-9.511-1.677-15.862-10.746-14.185-20.257l63.463-359.912c1.677-9.51 10.746-15.861 20.257-14.184zm-520.682 274.32c-6.087-1.073-11.891 2.991-12.964 9.078s2.99 11.891 9.078 12.965c6.086 1.073 11.89-2.992 12.964-9.078 1.073-6.087-2.99-11.892-9.078-12.965m325.471 57.39c-6.087-1.074-11.891 2.99-12.964 9.077s2.99 11.892 9.077 12.965 11.892-2.991 12.965-9.078-2.991-11.891-9.078-12.965M800.45 485.878c-6.086-1.073-11.89 2.991-12.964 9.078s2.99 11.891 9.078 12.965 11.891-2.991 12.964-9.078-2.99-11.892-9.078-12.965m166.352 29.332c-6.087-1.073-11.891 2.991-12.964 9.078s2.99 11.892 9.078 12.965c6.086 1.073 11.89-2.991 12.964-9.078s-2.99-11.891-9.078-12.965m36.316-205.959-171.862-30.304-15.79 89.548L987.328 398.8zM767.44 278.349c-19.022-3.354-37.16 9.347-40.515 28.369-3.354 19.021 9.347 37.16 28.369 40.514s37.16-9.347 40.514-28.369-9.347-37.16-28.368-40.514m295.851 52.167c-19.021-3.354-37.16 9.347-40.514 28.368s9.347 37.16 28.368 40.514 37.16-9.347 40.514-28.368-9.347-37.16-28.368-40.514"/><path fill="#453840" d="M1087.319 486.035a6.995 6.995 0 0 1 5.778 7.024l-1.936 99.093a6.995 6.995 0 0 1-8.208 6.752L665.09 525.223a6.995 6.995 0 0 1-5.404-9.152l32.072-93.779a6.995 6.995 0 0 1 7.833-4.624zm-370.316 7.858c-6.087-1.073-11.891 2.991-12.964 9.078s2.99 11.891 9.078 12.965c6.086 1.073 11.89-2.992 12.964-9.078 1.073-6.087-2.99-11.892-9.078-12.965m325.471 57.39c-6.087-1.074-11.891 2.99-12.964 9.077s2.99 11.892 9.077 12.965 11.892-2.991 12.965-9.078-2.991-11.891-9.078-12.965M800.45 485.878c-6.086-1.073-11.89 2.991-12.964 9.078s2.99 11.891 9.078 12.965 11.891-2.991 12.964-9.078-2.99-11.892-9.078-12.965m166.352 29.332c-6.087-1.073-11.891 2.991-12.964 9.078s2.99 11.892 9.078 12.965c6.086 1.073 11.89-2.991 12.964-9.078s-2.99-11.891-9.078-12.965"/><path fill="#292126" d="M1214.229 253.08a6.995 6.995 0 0 1 5.673 8.102l-47.618 270.056a6.995 6.995 0 0 1-8.067 5.68l-53.29-9.114a6.995 6.995 0 0 1-5.715-8.074l6.139-34.814a6.995 6.995 0 0 0-5.674-8.103l-491.134-86.6a6.995 6.995 0 0 1-5.673-8.103l39.104-221.774a6.995 6.995 0 0 1 8.103-5.674zm-211.112 56.172-171.862-30.304-15.79 89.548L987.328 398.8zM767.44 278.349c-19.022-3.354-37.16 9.347-40.515 28.369-3.354 19.021 9.347 37.16 28.369 40.514s37.16-9.347 40.514-28.369-9.347-37.16-28.368-40.514m295.851 52.167c-19.021-3.354-37.16 9.347-40.514 28.368s9.347 37.16 28.368 40.514 37.16-9.347 40.514-28.368-9.347-37.16-28.368-40.514"/><path fill="#d6c3a8" d="m663.454 171.233 533.841 94.131a3.497 3.497 0 0 1 2.837 4.051l-9.717 55.107a3.497 3.497 0 0 1-4.051 2.836l-533.841-94.13a3.497 3.497 0 0 1-2.837-4.052l9.716-55.106a3.497 3.497 0 0 1 4.052-2.837m-31.519 178.751 533.842 94.13a3.497 3.497 0 0 1 2.836 4.052l-3.947 22.387a3.497 3.497 0 0 1-4.051 2.837l-533.842-94.13a3.497 3.497 0 0 1-2.836-4.052l3.947-22.387a3.497 3.497 0 0 1 4.051-2.837"/><path fill="#453840" d="m1188.593 334.854-18.219 103.324-540.729-95.345 18.219-103.324zm-185.476-25.602-171.862-30.304-15.79 89.548L987.328 398.8zM767.44 278.349c-19.022-3.354-37.16 9.347-40.515 28.369-3.354 19.021 9.347 37.16 28.369 40.514s37.16-9.347 40.514-28.369-9.347-37.16-28.368-40.514m295.851 52.167c-19.021-3.354-37.16 9.347-40.514 28.368s9.347 37.16 28.368 40.514 37.16-9.347 40.514-28.368-9.347-37.16-28.368-40.514"/><g transform="rotate(10 -688.288 7090.002)"><circle cx="11.191" cy="11.191" r="11.191" fill="#1b1619"/><path fill="#453840" fill-rule="nonzero" d="M16.62 10.909q1.043.28.763 1.322l-.21.782q-.28 1.043-1.322.763l-3.461-.927-.933 3.483q-.273 1.018-1.316.739l-1.09-.292q-1.043-.28-.765-1.322l.927-3.46-3.437-.92q-1.043-.28-.764-1.323l.21-.782q.28-1.042 1.322-.763l3.438.921.914-3.412q.28-1.042 1.322-.763l1.114.299q1.043.28.764 1.322l-.914 3.412z"/></g><g transform="rotate(10 -389.272 3672.23)"><circle cx="11.191" cy="11.191" r="11.191" fill="#1b1619"/><path fill="#453840" fill-rule="nonzero" d="M16.62 10.909q1.043.28.763 1.322l-.21.782q-.28 1.043-1.322.763l-3.461-.927-.933 3.483q-.273 1.018-1.316.739l-1.09-.292q-1.043-.28-.765-1.322l.927-3.46-3.437-.92q-1.043-.28-.764-1.323l.21-.782q.28-1.042 1.322-.763l3.438.921.914-3.412q.28-1.042 1.322-.763l1.114.299q1.043.28.764 1.322l-.914 3.412z"/></g><g transform="rotate(10 -2726.96 6911.642)"><circle cx="11.191" cy="11.191" r="11.191" fill="#1b1619"/><path fill="#453840" fill-rule="nonzero" d="M16.62 10.909q1.043.28.763 1.322l-.21.782q-.28 1.043-1.322.763l-3.461-.927-.933 3.483q-.273 1.018-1.316.739l-1.09-.292q-1.043-.28-.765-1.322l.927-3.46-3.437-.92q-1.043-.28-.764-1.323l.21-.782q.28-1.042 1.322-.763l3.438.921.914-3.412q.28-1.042 1.322-.763l1.114.299q1.043.28.764 1.322l-.914 3.412z"/></g><g transform="rotate(10 -2212.04 5238.752)"><circle cx="11.191" cy="11.191" r="11.191" fill="#1b1619"/><path fill="#453840" fill-rule="nonzero" d="M16.62 10.909q1.043.28.763 1.322l-.21.782q-.28 1.043-1.322.763l-3.461-.927-.933 3.483q-.273 1.018-1.316.739l-1.09-.292q-1.043-.28-.765-1.322l.927-3.46-3.437-.92q-1.043-.28-.764-1.323l.21-.782q.28-1.042 1.322-.763l3.438.921.914-3.412q.28-1.042 1.322-.763l1.114.299q1.043.28.764 1.322l-.914 3.412z"/></g><g transform="rotate(10 -2427.943 3493.869)"><circle cx="11.191" cy="11.191" r="11.191" fill="#1b1619"/><path fill="#453840" fill-rule="nonzero" d="M16.62 10.909q1.043.28.763 1.322l-.21.782q-.28 1.043-1.322.763l-3.461-.927-.933 3.483q-.273 1.018-1.316.739l-1.09-.292q-1.043-.28-.765-1.322l.927-3.46-3.437-.92q-1.043-.28-.764-1.323l.21-.782q.28-1.042 1.322-.763l3.438.921.914-3.412q.28-1.042 1.322-.763l1.114.299q1.043.28.764 1.322l-.914 3.412z"/></g><path fill="#5ea085" d="m1110.067 321.008 79.215 13.967-3.644 20.666-79.215-13.968z"/><path fill="#91bda0" d="m1106.423 341.673 79.215 13.968-3.644 20.665-79.215-13.968z"/><path fill="#efc675" d="m1102.78 362.337 79.215 13.968-3.644 20.665-79.215-13.968z"/><path fill="#292126" d="m1099.136 383.002 79.215 13.968-3.644 20.665-79.215-13.968z"/><path fill="#eb5b3d" d="m1095.492 403.666 79.215 13.968-3.644 20.665-79.215-13.967z"/><path fill="#5ea085" d="m647.864 239.509 79.215 13.968-3.644 20.665-79.215-13.968z"/><path fill="#91bda0" d="m644.22 260.174 79.215 13.968-3.644 20.665-79.215-13.968z"/><path fill="#efc675" d="m640.576 280.838 79.215 13.968-3.643 20.665-79.215-13.968z"/><path fill="#292126" d="m636.933 301.503 79.215 13.968-3.644 20.665-79.215-13.967z"/><path fill="#eb5b3d" d="m633.289 322.168 79.215 13.967-3.644 20.666-79.215-13.968z"/><path fill="#292126" d="m711.693 189.683-7.59 43.051-43.052-7.59 7.59-43.052zm-21.71 5.76-11.709-2.065-4.25 24.106 10.924 1.926q1.849.327 3.484.278t2.953-.728a6.8 6.8 0 0 0 2.052-1.594q1.38-1.51 1.757-3.653.366-2.076-.318-3.698t-2.413-2.618q1.319-.408 2.074-1.05 1.349-1.146 1.737-3.353.378-2.143-.463-3.876-1.407-2.828-5.827-3.675m-3.278 13.334q1.567.292 2.365.838 1.43.977 1.098 2.858-.391 2.225-2.133 2.726-.958.27-2.545-.01l-5.92-1.044 1.134-6.427Zm.938-9.43q1.75.308 2.812.884 1.213.77.916 2.455-.268 1.522-1.353 1.936-1.104.429-2.69.15l-5.92-1.044.936-5.315Z"/><path fill="#c8deea" d="M767.62 273.77c21.211 3.74 35.375 23.968 31.634 45.18s-23.968 35.375-45.18 31.635c-21.211-3.74-35.375-23.968-31.635-45.18s23.968-35.375 45.18-31.635m-4.328 4.118a34.4 34.4 0 0 0-19.468 4.49l5.828 8.323-6.39 4.474-5.73-8.184a34.4 34.4 0 0 0-9.84 16.1l9.617 1.696-1.354 7.681-9.5-1.675a34.4 34.4 0 0 0 4.042 17.875l7.826-5.48 4.474 6.39-7.872 5.512a34.4 34.4 0 0 0 16.088 10.393l1.56-8.843 7.682 1.354-1.567 8.883a34.4 34.4 0 0 0 19.03-4.242l-5.511-7.872 6.389-4.474 5.48 7.826a34.4 34.4 0 0 0 9.911-15.414l-9.5-1.675 1.355-7.681 9.617 1.695a34.4 34.4 0 0 0-3.74-18.494l-8.184 5.73-4.474-6.39 8.323-5.828a34.4 34.4 0 0 0-16.417-10.776l-1.56 8.844-7.68-1.355ZM1064.046 326.038c21.212 3.74 35.376 23.968 31.635 45.18s-23.967 35.375-45.18 31.635c-21.211-3.74-35.375-23.968-31.635-45.18s23.968-35.375 45.18-31.635m-4.327 4.119a34.4 34.4 0 0 0-19.468 4.488l5.828 8.324-6.39 4.474-5.73-8.184a34.4 34.4 0 0 0-9.84 16.1l9.617 1.696-1.354 7.682-9.5-1.676a34.4 34.4 0 0 0 4.042 17.875l7.826-5.48 4.474 6.39-7.872 5.512a34.4 34.4 0 0 0 16.088 10.393l1.56-8.843 7.682 1.354-1.566 8.883a34.4 34.4 0 0 0 19.03-4.242l-5.512-7.872 6.389-4.474 5.48 7.826a34.4 34.4 0 0 0 9.911-15.414l-9.5-1.675 1.355-7.681 9.617 1.695a34.4 34.4 0 0 0-3.74-18.494l-8.183 5.73-4.474-6.39 8.322-5.828a34.4 34.4 0 0 0-16.416-10.776l-1.56 8.844-7.681-1.354Z"/><path fill="#000" d="m627.813 625.768 262.174 95.424-38.306 105.245-262.174-95.423c-29.063-10.578-44.048-42.713-33.47-71.776s42.713-44.048 71.776-33.47"/><path fill="#372d33" d="M934.929 610.912c9.075 3.303 13.754 13.338 10.451 22.413L820.384 976.749c-3.303 9.075-13.338 13.754-22.413 10.451L229.431 780.27c-9.074-3.304-13.753-13.338-10.45-22.413l124.996-343.424c3.303-9.075 13.337-13.754 22.412-10.451zM374.522 790.65c-5.808-2.114-12.23.88-14.344 6.688s.88 12.23 6.689 14.344c5.808 2.114 12.23-.88 14.344-6.689 2.114-5.808-.881-12.23-6.689-14.343m310.56 113.034c-5.807-2.114-12.23.881-14.343 6.69-2.114 5.807.88 12.23 6.688 14.343 5.808 2.114 12.23-.88 14.344-6.689 2.114-5.808-.88-12.23-6.688-14.344m-226.99-106.436c-5.808-2.114-12.23.88-14.344 6.688s.88 12.23 6.689 14.344c5.808 2.114 12.23-.88 14.344-6.688s-.88-12.23-6.689-14.344m158.731 57.773c-5.808-2.114-12.23.88-14.344 6.689-2.114 5.808.88 12.23 6.689 14.344 5.808 2.114 12.23-.881 14.344-6.69 2.114-5.807-.88-12.23-6.689-14.343m71.53-196.524-163.99-59.687-31.1 85.445 163.99 59.687zM461.62 587.138c-18.15-6.606-38.219 2.752-44.825 20.902s2.752 38.22 20.902 44.825 38.22-2.752 44.825-20.902-2.752-38.219-20.902-44.825m282.298 102.748c-18.15-6.606-38.219 2.752-44.825 20.903-6.606 18.15 2.752 38.218 20.902 44.824 18.15 6.607 38.22-2.752 44.825-20.902s-2.752-38.219-20.902-44.825"/><path fill="#453840" d="M740.576 847.215a6.995 6.995 0 0 1 4.471 7.922l-19.114 97.25a6.995 6.995 0 0 1-9.255 5.225L317.956 812.489a6.995 6.995 0 0 1-3.733-9.951l47.87-86.785a6.995 6.995 0 0 1 8.517-3.195zM374.522 790.65c-5.808-2.114-12.23.88-14.344 6.688s.88 12.23 6.689 14.344c5.808 2.114 12.23-.88 14.344-6.689 2.114-5.808-.881-12.23-6.689-14.343m310.56 113.034c-5.807-2.114-12.23.881-14.343 6.69-2.114 5.807.88 12.23 6.688 14.343 5.808 2.114 12.23-.88 14.344-6.689 2.114-5.808-.88-12.23-6.688-14.344m-226.99-106.436c-5.808-2.114-12.23.88-14.344 6.688s.88 12.23 6.689 14.344c5.808 2.114 12.23-.88 14.344-6.688s-.88-12.23-6.689-14.344m158.731 57.773c-5.808-2.114-12.23.88-14.344 6.689-2.114 5.808.88 12.23 6.689 14.344 5.808 2.114 12.23-.881 14.344-6.69 2.114-5.807-.88-12.23-6.689-14.343"/><path fill="#292126" d="M906.01 639.837a6.995 6.995 0 0 1 4.18 8.965l-93.789 257.684a6.995 6.995 0 0 1-8.93 4.192l-50.898-18.229a6.995 6.995 0 0 1-4.226-8.943l12.09-33.22a6.995 6.995 0 0 0-4.18-8.965L291.623 670.752a6.995 6.995 0 0 1-4.18-8.965l77.02-211.614a6.995 6.995 0 0 1 8.965-4.18zm-217.658 18.66-163.99-59.687-31.099 85.445 163.99 59.687zM461.62 587.138c-18.15-6.606-38.219 2.752-44.825 20.902s2.752 38.22 20.902 44.825 38.22-2.752 44.825-20.902-2.752-38.219-20.902-44.825m282.298 102.748c-18.15-6.606-38.219 2.752-44.825 20.903-6.606 18.15 2.752 38.218 20.902 44.824 18.15 6.607 38.22-2.752 44.825-20.902s-2.752-38.219-20.902-44.825"/><path fill="#d6c3a8" d="m377.815 463.593 509.386 185.401a3.497 3.497 0 0 1 2.09 4.483l-19.138 52.581a3.497 3.497 0 0 1-4.483 2.09l-509.385-185.4a3.497 3.497 0 0 1-2.09-4.483l19.138-52.582a3.497 3.497 0 0 1 4.482-2.09m-62.079 170.562 509.385 185.401a3.497 3.497 0 0 1 2.09 4.483l-7.774 21.36a3.497 3.497 0 0 1-4.483 2.091L305.57 662.089a3.497 3.497 0 0 1-2.09-4.483l7.775-21.36a3.497 3.497 0 0 1 4.482-2.091"/><path fill="#453840" d="m866.564 715.917-35.884 98.591-515.958-187.793 35.884-98.591zm-178.212-57.42-163.99-59.687-31.099 85.445 163.99 59.687zM461.62 587.138c-18.15-6.606-38.219 2.752-44.825 20.902s2.752 38.22 20.902 44.825 38.22-2.752 44.825-20.902-2.752-38.219-20.902-44.825m282.298 102.748c-18.15-6.606-38.219 2.752-44.825 20.903-6.606 18.15 2.752 38.218 20.902 44.824 18.15 6.607 38.22-2.752 44.825-20.902s-2.752-38.219-20.902-44.825"/><g transform="rotate(20 -1286.92 2907.699)"><circle cx="11.191" cy="11.191" r="11.191" fill="#1b1619"/><path fill="#453840" fill-rule="nonzero" d="M16.62 10.909q1.043.28.763 1.322l-.21.782q-.28 1.043-1.322.763l-3.461-.927-.933 3.483q-.273 1.018-1.316.739l-1.09-.292q-1.043-.28-.765-1.322l.927-3.46-3.437-.92q-1.043-.28-.764-1.323l.21-.782q.28-1.042 1.322-.763l3.438.921.914-3.412q.28-1.042 1.322-.763l1.114.299q1.043.28.764 1.322l-.914 3.412z"/></g><g transform="rotate(20 -987.904 1211.892)"><circle cx="11.191" cy="11.191" r="11.191" fill="#1b1619"/><path fill="#453840" fill-rule="nonzero" d="M16.62 10.909q1.043.28.763 1.322l-.21.782q-.28 1.043-1.322.763l-3.461-.927-.933 3.483q-.273 1.018-1.316.739l-1.09-.292q-1.043-.28-.765-1.322l.927-3.46-3.437-.92q-1.043-.28-.764-1.323l.21-.782q.28-1.042 1.322-.763l3.438.921.914-3.412q.28-1.042 1.322-.763l1.114.299q1.043.28.764 1.322l-.914 3.412z"/></g><g transform="rotate(20 -2298.454 2729.338)"><circle cx="11.191" cy="11.191" r="11.191" fill="#1b1619"/><path fill="#453840" fill-rule="nonzero" d="M16.62 10.909q1.043.28.763 1.322l-.21.782q-.28 1.043-1.322.763l-3.461-.927-.933 3.483q-.273 1.018-1.316.739l-1.09-.292q-1.043-.28-.765-1.322l.927-3.46-3.437-.92q-1.043-.28-.764-1.323l.21-.782q.28-1.042 1.322-.763l3.438.921.914-3.412q.28-1.042 1.322-.763l1.114.299q1.043.28.764 1.322l-.914 3.412z"/></g><g transform="rotate(20 -1967.814 1915.418)"><circle cx="11.191" cy="11.191" r="11.191" fill="#1b1619"/><path fill="#453840" fill-rule="nonzero" d="M16.62 10.909q1.043.28.763 1.322l-.21.782q-.28 1.043-1.322.763l-3.461-.927-.933 3.483q-.273 1.018-1.316.739l-1.09-.292q-1.043-.28-.765-1.322l.927-3.46-3.437-.92q-1.043-.28-.764-1.323l.21-.782q.28-1.042 1.322-.763l3.438.921.914-3.412q.28-1.042 1.322-.763l1.114.299q1.043.28.764 1.322l-.914 3.412z"/></g><g transform="rotate(20 -1999.437 1033.532)"><circle cx="11.191" cy="11.191" r="11.191" fill="#1b1619"/><path fill="#453840" fill-rule="nonzero" d="M16.62 10.909q1.043.28.763 1.322l-.21.782q-.28 1.043-1.322.763l-3.461-.927-.933 3.483q-.273 1.018-1.316.739l-1.09-.292q-1.043-.28-.765-1.322l.927-3.46-3.437-.92q-1.043-.28-.764-1.323l.21-.782q.28-1.042 1.322-.763l3.438.921.914-3.412q.28-1.042 1.322-.763l1.114.299q1.043.28.764 1.322l-.914 3.412z"/></g><path fill="#5ea085" d="m791.636 688.645 75.586 27.512-7.177 19.718-75.586-27.511z"/><path fill="#91bda0" d="m784.459 708.364 75.586 27.511-7.177 19.719-75.586-27.512z"/><path fill="#efc675" d="m777.282 728.082 75.586 27.51-7.177 19.72-75.586-27.512z"/><path fill="#292126" d="m770.105 747.8 75.586 27.511-7.177 19.719-75.586-27.511z"/><path fill="#eb5b3d" d="m762.928 767.518 75.586 27.51-7.177 19.72-75.586-27.512z"/><path fill="#5ea085" d="m350.606 528.124 75.587 27.511-7.177 19.719-75.586-27.511z"/><path fill="#91bda0" d="m343.43 547.843 75.586 27.51-7.177 19.72-75.586-27.512z"/><path fill="#efc675" d="m336.253 567.56 75.586 27.511-7.177 19.719-75.586-27.511z"/><path fill="#292126" d="m329.076 587.279 75.586 27.51-7.177 19.72-75.586-27.512z"/><path fill="#eb5b3d" d="m321.9 606.996 75.585 27.511-7.177 19.719-75.586-27.511z"/><path fill="#292126" d="m422.118 490.139-14.951 41.08-41.08-14.952 14.952-41.08zm-22.38 1.903-11.173-4.067-8.371 23.002 10.424 3.794q1.763.642 3.382.878t3.034-.204q1.251-.375 2.298-1.214 1.62-1.249 2.364-3.292.721-1.982.33-3.697-.392-1.716-1.922-2.997 1.37-.173 2.225-.675 1.527-.894 2.293-3 .745-2.044.217-3.897-.894-3.03-5.1-4.631m-5.544 12.561q1.493.56 2.184 1.237 1.237 1.21.585 3.005-.772 2.122-2.575 2.315-.99.099-2.504-.452l-5.649-2.056 2.232-6.133Zm2.561-9.123q1.67.608 2.616 1.359 1.06.97.476 2.576-.528 1.452-1.669 1.672-1.162.231-2.676-.32l-5.649-2.056 1.846-5.071Z"/>
<path fill="#c8deea" d="M462.593 582.66c20.24 7.367 30.676 29.747 23.31 49.987-7.368 20.24-29.748 30.676-49.988 23.309s-30.676-29.747-23.309-49.987 29.747-30.676 49.987-23.31m-4.976 3.304a34.4 34.4 0 0 0-19.952 1.04l4.293 9.21-7.069 3.296-4.222-9.055a34.4 34.4 0 0 0-12.486 14.147l9.176 3.34-2.668 7.33-9.064-3.3a34.4 34.4 0 0 0 .877 18.306l8.658-4.038 3.297 7.07-8.71 4.06a34.4 34.4 0 0 0 14.04 13.03l3.071-8.438 7.33 2.668-3.085 8.476a34.4 34.4 0 0 0 19.478-.873l-4.062-8.71 7.07-3.296 4.037 8.658a34.4 34.4 0 0 0 12.437-13.459L471 632.127l2.668-7.33 9.176 3.34a34.4 34.4 0 0 0-.47-18.862l-9.056 4.222-3.296-7.07 9.208-4.294a34.4 34.4 0 0 0-14.296-13.463l-3.071 8.438-7.33-2.667ZM745.44 685.608c20.24 7.367 30.676 29.747 23.31 49.987-7.367 20.24-29.747 30.676-49.987 23.309s-30.676-29.747-23.31-49.987c7.367-20.24 29.747-30.676 49.987-23.309m-4.976 3.305a34.4 34.4 0 0 0-19.952 1.04l4.294 9.209-7.07 3.296-4.222-9.055a34.4 34.4 0 0 0-12.485 14.147l9.176 3.34-2.668 7.33-9.064-3.3a34.4 34.4 0 0 0 .876 18.306l8.659-4.038 3.296 7.07-8.71 4.06a34.4 34.4 0 0 0 14.04 13.03l3.072-8.438 7.33 2.668-3.086 8.476a34.4 34.4 0 0 0 19.478-.873l-4.061-8.71 7.069-3.296 4.037 8.658a34.4 34.4 0 0 0 12.438-13.459l-9.064-3.299 2.667-7.33 9.177 3.34a34.4 34.4 0 0 0-.471-18.862l-9.055 4.222-3.297-7.07 9.209-4.294a34.4 34.4 0 0 0-14.296-13.463l-3.072 8.439-7.33-2.668Z"/>

<path fill="#1b1619" d="M155.386 161.009q3.279.188 4.913 2.07t1.503 5.013a16.5 16.5 0 0 1-.791 4.352 15.7 15.7 0 0 1-1.898 3.889 28 28 0 0 1-2.56 3.281 44 44 0 0 1-3.186 3.116q-3.943 3.546-9.039 4.19a5.6 5.6 0 0 1-1.006-.015 10 10 0 0 1-1.232-.208 8 8 0 0 0-1.035-.18q.013-.171.079-.524a1395 1395 0 0 1 5.99-1.865 12.6 12.6 0 0 0 4.148-2.263q1.845-1.518 3.864-3.873 2.17-2.468 4.23-7.726.42-1.01.419-2.35t-.364-2.426q-.758-2.123-2.242-2.67t-4.103.341q-.972.3-1.98.881-1.007.582-2.306 1.45-1.297.867-1.876 1.224a4 4 0 0 0-.587.423q-.353.295-.656.52-.302.224-.626.323a3 3 0 0 1-.555.12 5 5 0 0 1-.622-.019 15 15 0 0 0-.647-.035 5 5 0 0 0-.02-.592q-.03-.42-.02-.72.012-.3.107-.487.956-1.36 2.977-4.185t2.996-4.316q1.248-1.88 1.756-3.842.127-.49-.15-1.336-.278-.844-.54-.883-.906-.053-3.181.603a2.4 2.4 0 0 0-.393.197q-.192.12-.456.315a4 4 0 0 1-.382.259q-4.089 2.72-5.195 3.47-.226.166-.159.793.34 2.408.953 6.855.613 4.445.843 6.235.822 6.111 1.413 10.433.12 1.17-.32 2.057a40 40 0 0 1-1.559-4.599 50 50 0 0 1-1.087-4.957 226 226 0 0 1-.74-4.68 243 243 0 0 1-.673-5.03q-.362-2.895-.655-4.8-.484-.085-.757-.058-.273.026-.63.302a2.7 2.7 0 0 0-.61.661q-.252.385-.703 1.337-.45.953-.884 2.007-.433 1.056-1.204 2.979-1.19-.216-1.534-1.07-.343-.855.245-1.64.736-1.15 2.346-3.158a148 148 0 0 0 2.13-2.695q.348-.444.73-1.427.382-.982.538-1.308.273-.388.6-.83.33-.44.46-.42.867.315 1.678.193.812-.122 1.347-.472.536-.35 1.316-.891.78-.542 1.296-.761 2.486-1.161 4.634-1.328 1.264-.095 2.128.69.864.783 1.016 2.012.153 1.228-.452 2.399-.734 1.406-2.214 4.029t-1.636 2.948q-.042.007-.686 1.44 3.755-2.917 7.496-2.768m42.23-3.127q.477.278 2.263 2.176-.166.03-.469.125a4 4 0 0 1-.407.115.7.7 0 0 1-.235-.001q-.48-.554-.93-.794-.447-.24-.731-.275t-.679.268q-.395.304-.559.46t-.523.667l-.16.23-.068.095-.198.283a15.6 15.6 0 0 0-2.676 5.408q-.803 2.95-1.047 6.654 1.613-.54 2.407-1.36.795-.822 2.724-3.928.3-.48.714-.914t1.004-.964l.884-.794q.19.35.732.998.54.65.87 1.187.33.538.46 1.026l.83 3.62q.284 1.248.595 3.257.312 2.01.396 3.697.195 3.284-2.417 6.512t-5.969 4.287q-5.052 1.614-10.214-.54a5 5 0 0 1-1.021-.586q-.515-.377-1.128-.95a21 21 0 0 0-.913-.818l.483-.893q.13.02.37.04l.15.015.24.023q.153.015.354.066.201.05.347.151 2.938 1.653 6.238 1.603t5.955-1.582q2.655-1.533 3.925-4.012a9.7 9.7 0 0 0 1.054-3.952q.102-2.082-.3-4.608-.124-.7-.32-1.454a71 71 0 0 0-.472-1.704 22 22 0 0 0-.437-1.391 1 1 0 0 1-.208-.091 3 3 0 0 0-.257-.125 1.4 1.4 0 0 1-.236-.129q-.165.284-.476.935-.312.651-.591 1.126-.28.474-.553.863-2.181 2.64-3.719 3.848-1.284.95-2.394.465-1.11-.486-1.511-2.032-.195-.859-.21-1.793t.045-1.561.337-1.72q.278-1.09.42-1.5.076-.222.248-.702l.125-.348.226-.63q.459-1.272.54-1.542.917-2.545 2.012-3.845a9.6 9.6 0 0 1 3.647-2.558q.959-.381 1.434-.104m-20.35 1.056q1.03.755 1.163 2.477a9.4 9.4 0 0 1-.333 3.08q-.427 1.565-1.037 2.715a34 34 0 0 1-1.583 2.641q-.429.714-1.743 2.223t-1.79 2.443q-.326.57-.152 1.56t.581 1.6q.302.5 1.187.918t1.326.255q2.3-1 4.756-3.051.59-.53 1.186-1.146t1.321-1.467 1.081-1.255a1.2 1.2 0 0 0 .326.156.5.5 0 0 1 .139.06l-.309 1.034q-.201.674-.387 1.196a3.8 3.8 0 0 1-.458.91q-3.092 4.504-6.66 5.814-1.564.574-3.352-.24a5.33 5.33 0 0 1-2.652-2.574q-.26-.508-.863-1.38-.601-.873-.777-1.14-.492-.85-.453-1.112.152-.836.508-2.813t.546-3.076q.19-1.098.543-2.734a60 60 0 0 1 .713-2.977q1.072-3.85 4.453-4.53 1.69-.342 2.72.413m-1.428 1.827a9 9 0 0 0-.676.162q-.47.125-.814.228-.345.104-.654.286a.8.8 0 0 0-.299.244 4 4 0 0 0-.32.482q-.18.309-.215.357-.907 1.395-1.378 3.201-.471 1.808-.526 3.072-.054 1.265-.068 3.608 3.994-3.98 5.206-9.217.073-.31.035-.772a6 6 0 0 0-.125-.83q-.087-.366-.166-.821m36.334-5.087q3.128 5.874 1.358 12.06a7 7 0 0 0-.225.784q-.137.555-.234.85t-.256.726q-.16.432-.353.786-.194.352-.399.645-.553.736-1.474 1.324t-1.579.49q-.575-.111-1.219-1.104-.645-.992-.61-1.765 0-.724.048-1.54.049-.818.122-1.49l.173-1.563q.099-.89.184-1.5l.214-1.57q.13-.96.208-1.484.232-1.828.75-2.77.735-1.153.45-1.804t-1.937-.573q1.112-1.686 2.541-1.81 1.431-.124 2.238 1.308m-2.151 14.679q1.39-2.288 1.606-4.816t-.186-5.776a12 12 0 0 0-.35-.045 12 12 0 0 1-.35-.045q-.345 2.401-1.468 10.558.346.024.748.124m43.875-34.906q2.801.145 4.476 1.53t1.935 3.468-.84 4.32q-2.66 5.49-9.284 10.063-1.024.734-2.272 1.4-1.248.668-2.983 1.484-1.735.817-2.587 1.308l1.339 7.594q-.714-.171-1.193-.47a2.2 2.2 0 0 1-.754-.761 7 7 0 0 1-.422-.82 5.6 5.6 0 0 1-.274-.951 8 8 0 0 0-.212-.835q-2.886-9.11-3.66-18.336a2.6 2.6 0 0 0-.08-.582q-.08-.326-.14-.55a17 17 0 0 0-.16-.546 5 5 0 0 1-.144-.57q-3.301 1.858-4.48 3.045t-1.072 2.998q-1.21.17-1.69-.383-.483-.554.02-1.578 1.185-2.721 2.572-3.816 4.318-3.357 11.707-5.767 4.611-1.452 10.198-1.245m2.94 9.653q1.912-3.444 1.105-5.238-.807-1.793-4.377-2.186-1.177-.132-2.693-.014-1.515.118-2.327.24-.811.12-2.758.465-.87.153-1.8.445-.93.291-2.153.741t-1.83.642q.513.973 1.322 2.533.81 1.56 1.091 2.191a21 21 0 0 1-1.254-.332 15 15 0 0 0-1.029-.265q-.267-.06-.488-.106l2.343 13.291q3.171-1.879 3.287-1.941 4.03-2.328 6.891-4.748a20.1 20.1 0 0 0 4.67-5.718m23.328 10.74a1.2 1.2 0 0 0 .326.155.5.5 0 0 1 .139.061l-.309 1.033q-.201.675-.387 1.196a3.8 3.8 0 0 1-.458.911q-3.091 4.503-6.66 5.813-1.564.574-3.352-.239a5.33 5.33 0 0 1-2.653-2.575q-.26-.507-.862-1.38t-.777-1.14q-.492-.85-.453-1.111l.508-2.814q.356-1.977.546-3.075t.543-2.734q.351-1.637.713-2.978 1.072-3.849 4.453-4.53 1.69-.341 2.72.414t1.162 2.476a9.4 9.4 0 0 1-.332 3.08q-.428 1.566-1.037 2.716a34 34 0 0 1-1.583 2.641q-.429.714-1.743 2.222t-1.79 2.444q-.326.568-.152 1.559.175.99.581 1.6.302.5 1.187.918.885.42 1.326.256 2.3-1.002 4.756-3.052.59-.53 1.186-1.145.595-.616 1.32-1.467t1.082-1.255m-10.369-9.407q-.907 1.395-1.378 3.2-.472 1.808-.526 3.073t-.068 3.608q3.994-3.982 5.206-9.217.073-.311.035-.772a6 6 0 0 0-.125-.83q-.087-.368-.166-.821a9 9 0 0 0-.676.161q-.47.126-.814.229-.345.103-.654.286a.8.8 0 0 0-.299.244 4 4 0 0 0-.32.482q-.18.308-.215.357m38.775-9.646q1.03.754 1.163 2.476a9.4 9.4 0 0 1-.332 3.08q-.43 1.566-1.037 2.715a34 34 0 0 1-1.584 2.642q-.429.714-1.743 2.222-1.313 1.508-1.79 2.444-.326.568-.151 1.559.175.99.58 1.6.303.5 1.187.918t1.326.256q2.3-1.002 4.757-3.052.59-.53 1.185-1.145.596-.616 1.321-1.468.726-.85 1.081-1.254a1.2 1.2 0 0 0 .327.155.5.5 0 0 1 .138.06l-.308 1.034q-.203.674-.387 1.196a3.8 3.8 0 0 1-.459.91q-3.09 4.504-6.66 5.814-1.565.574-3.351-.239a5.33 5.33 0 0 1-2.653-2.575q-.26-.507-.863-1.38-.601-.873-.777-1.14-.492-.85-.452-1.112l.507-2.813q.356-1.978.547-3.075.19-1.098.542-2.735t.713-2.977q1.073-3.849 4.453-4.53 1.69-.341 2.72.414m-11.442-.238a16 16 0 0 0-2.276 2.827q-.968 1.532-1.516 2.906-.548 1.373-.984 3.259t-.628 3.218q-.192 1.33-.464 3.422a88 88 0 0 1-.482 3.32q-.024.345-.075.907a12 12 0 0 1-.136 1.045q-.085.484-.227.891-.168.498-.6.957t-.811.484q-.372.066-.953-.322-.58-.387-.695-.792-1.004-3.27-1.977-7.823-.323-1.347-.992-5.868-.162-1.164.102-2.083.266-.918 1.308-1.784l2.198 12.466q.049.033.194.008a.5.5 0 0 1 .235.001q.136-.918.468-2.912.331-1.995.64-3.518.307-1.522.718-2.829.854-2.661 3.51-7.216.557-.95 1.44-1.147.885-.199 2.003.583m10.014 2.064a9 9 0 0 0-.676.162q-.47.126-.814.229-.345.103-.654.285a.8.8 0 0 0-.298.244 4 4 0 0 0-.321.483q-.18.308-.215.357-.906 1.394-1.378 3.2-.471 1.808-.526 3.072-.054 1.265-.068 3.609 3.995-3.982 5.206-9.217.074-.311.035-.773a6 6 0 0 0-.125-.829q-.086-.368-.166-.822m26.413-17.765q1.443-.297 1.53 1.9.017 1.061.12 2.852.102 1.791.16 2.972.06 1.182.084 2.773a31 31 0 0 1-.081 2.93q-.273 5.963 2.077 14.444.05.289 1 4.463a.4.4 0 0 1-.179.074 1.4 1.4 0 0 0-.224.06q-.12.043-.203.058a7.7 7.7 0 0 1-1.897-2.645q-.677-1.54-1.236-3.74t-1.01-3.312q-.09.229-.271.644a137 137 0 0 1-1.26 2.541 44 44 0 0 1-1.201 2.149 15 15 0 0 1-1.59 2.238 12.6 12.6 0 0 1-1.852 1.73q-.975.769-1.693 1.172-.72.403-1.71.472-.992.067-2.012-.39-2.723-1.393-2.28-5.429 1.068-9.68 9.101-14.968a4 4 0 0 1 .996-.41 8 8 0 0 1 1.09-.235 9 9 0 0 0 1.01-.2q.09-8.697.159-10.241.036-.517.497-1.173.462-.656.875-.73m-4.634 26.99q1.84-2.877 2.843-5.31 1-2.432.89-4.753-.627-3.805-3.009-1.81-2.045 1.722-3.48 3.507-3.724 4.785-3.733 10.064-.023.6.288 1.269.31.669.74.933.375.189 1.072.024t1.101-.535q2.313-1.897 3.288-3.388m23.833-12.543q.26.507.476 2.214.148 1.08 1.039 8.797-1.082-.321-1.713-.996t-.772-1.354a92 92 0 0 0-.335-1.536q-.195-.86-.399-1.292a86 86 0 0 0-1.325 2.17 88 88 0 0 0-1.57 2.724q-.645 1.178-1.223 2.259-.476.935-1.153 1.33-.678.397-1.462.067-.715-.428-1.359-1.293t-.587-1.513q.439-4.29 1.76-9.631.443-1.611 2.114-3.99.827-1.125 1.817-1.683t1.884-.332q.351.534 1.022 1.437.672.903 1.075 1.492.402.588.711 1.13m-7.086 11.634q.82-1.89 2.564-5.921t2.652-6.15q-.145-.101-1.57-1.638a16.2 16.2 0 0 0-2.72 4.183q-1.01 2.262-1.354 4.43t-.307 4.8q.09.026.735.296M753.66 211.008q3.017 1.298 3.908 3.626.892 2.328-.302 5.224a16.5 16.5 0 0 1-2.232 3.82 15.7 15.7 0 0 1-3.112 3.004 28 28 0 0 1-3.528 2.209 44 44 0 0 1-4.06 1.837q-4.918 1.984-9.927.846a5.6 5.6 0 0 1-.94-.357q-.492-.236-1.087-.618a8 8 0 0 0-.91-.522q.069-.157.252-.466 6.226.289 6.267.296 2.418.087 4.672-.708t4.956-2.318q2.883-1.578 6.618-5.813.74-.806 1.197-2.066t.488-2.403q.012-2.254-1.195-3.275t-3.972-1.084a9.6 9.6 0 0 0-2.161.151 43 43 0 0 0-2.663.573 73 73 0 0 1-2.182.51 4 4 0 0 0-.696.196q-.434.157-.794.264t-.699.09a3 3 0 0 1-.563-.078 5 5 0 0 1-.578-.23 15 15 0 0 0-.596-.254q.07-.158.185-.563t.227-.684.267-.42q1.363-.952 4.228-2.915 2.865-1.965 4.292-3.031 1.816-1.34 2.964-3.01.288-.418.316-1.306.028-.89-.205-1.015-.834-.36-3.196-.521-.214.005-.436.05-.222.047-.537.14t-.447.113q-4.772 1.159-6.068 1.483-.27.08-.421.692-.505 2.38-1.45 6.767a803 803 0 0 1-1.34 6.147q-1.317 6.024-2.24 10.288-.286 1.14-1.005 1.823a40 40 0 0 1 .109-4.854q.205-2.496.673-5.031t.906-4.65 1.087-4.957q.65-2.844 1.027-4.735-.426-.246-.692-.313-.266-.069-.695.068a2.7 2.7 0 0 0-.799.413q-.368.275-1.118 1.016-.75.74-1.517 1.583a419 419 0 0 0-2.15 2.388q-1.046-.61-1.076-1.53-.03-.921.79-1.457 1.087-.83 3.286-2.166a148 148 0 0 0 2.923-1.804q.479-.299 1.174-1.091.694-.792.953-1.045.39-.271.848-.574.459-.301.576-.239.707.593 1.51.756.804.163 1.428.018t1.541-.388 1.478-.272q2.733-.24 4.808.337 1.22.343 1.765 1.375.543 1.033.267 2.24-.277 1.206-1.246 2.1-1.17 1.07-3.459 3.028-2.288 1.959-2.546 2.211-.04-.008-1.136 1.12 4.526-1.459 7.99-.039m40.754 11.506q.351.423 1.381 2.818a4 4 0 0 0-.483-.043 4 4 0 0 1-.422-.031.7.7 0 0 1-.22-.082q-.264-.684-.602-1.064-.339-.379-.594-.508-.255-.13-.73.02-.474.15-.682.241-.209.09-.72.448l-.23.16-.095.067-.283.198a15.6 15.6 0 0 0-4.364 4.167q-1.764 2.498-3.26 5.894 1.7.045 2.728-.455 1.027-.5 3.902-2.76.446-.346.984-.613.537-.267 1.273-.563l1.103-.444q.058.393.345 1.189.287.795.413 1.413.125.619.08 1.12-.298 2.417-.458 3.686a49 49 0 0 1-.554 3.265 36 36 0 0 1-.893 3.609q-.94 3.154-4.498 5.293t-7.075 1.987q-5.3-.212-9.414-4a5 5 0 0 1-.76-.9q-.353-.531-.734-1.28a21 21 0 0 0-.578-1.08l.76-.675q.115.063.333.165l.136.064.218.105q.138.067.31.182t.274.261q2.197 2.559 5.314 3.64 3.12 1.082 6.137.55 3.019-.532 5.06-2.427a9.7 9.7 0 0 0 2.343-3.354q.808-1.92 1.293-4.432.124-.702.197-1.476.072-.774.14-1.763.067-.988.064-1.457a1 1 0 0 1-.164-.156 3 3 0 0 0-.199-.206 1.4 1.4 0 0 1-.178-.201q-.25.211-.766.716-.516.504-.941.855t-.814.623q-2.954 1.735-4.811 2.343-1.531.454-2.41-.382-.877-.836-.724-2.426a8.8 8.8 0 0 1 .416-1.757q.306-.882.576-1.451.272-.57.905-1.5.634-.931.907-1.266.148-.183.474-.575l.236-.285.429-.514q.866-1.039 1.034-1.265 1.732-2.077 3.205-2.925a9.6 9.6 0 0 1 4.303-1.156q1.03-.03 1.383.393m-19.485-5.968q.71 1.06.245 2.724a9.4 9.4 0 0 1-1.365 2.781q-.939 1.324-1.903 2.197a34 34 0 0 1-2.392 1.94q-.647.525-2.398 1.492-1.75.969-2.517 1.685-.501.422-.676 1.413-.175.99-.001 1.702.113.573.8 1.269.69.696 1.16.693 2.503-.153 5.512-1.24.736-.297 1.506-.671a32 32 0 0 0 1.743-.927q.973-.552 1.445-.81a1.2 1.2 0 0 0 .254.258.5.5 0 0 1 .11.105l-.644.865q-.42.564-.773.992a3.8 3.8 0 0 1-.742.699q-4.444 3.174-8.247 3.184-1.666.004-3.067-1.37a5.33 5.33 0 0 1-1.612-3.328q-.071-.565-.339-1.591a77 77 0 0 1-.34-1.337q-.173-.967-.045-1.2l1.439-2.47a565 565 0 0 0 1.565-2.703q.555-.966 1.445-2.384a60 60 0 0 1 1.689-2.554q2.323-3.25 5.733-2.734 1.705.258 2.415 1.32m-1.967 1.228a9 9 0 0 0-.69-.08q-.485-.043-.843-.063a3 3 0 0 0-.713.045.8.8 0 0 0-.364.127 4 4 0 0 0-.466.343q-.275.228-.324.262-1.328 1-2.39 2.537-1.06 1.536-1.544 2.707t-1.299 3.367q5.115-2.375 8.045-6.88.176-.269.297-.714a6 6 0 0 0 .166-.822q.045-.375.125-.83m35.883 7.646q.93 6.59-2.849 11.797a7 7 0 0 0-.48.66q-.318.476-.51.72-.192.242-.49.594-.295.351-.6.618-.302.265-.594.47-.773.5-1.839.739-1.066.237-1.651-.078-.502-.302-.768-1.455-.267-1.155.03-1.867.247-.68.573-1.432.324-.75.623-1.358l.697-1.41q.398-.801.686-1.347l.738-1.402q.45-.856.703-1.323.845-1.638 1.652-2.347 1.086-.83 1.04-1.54-.045-.71-1.624-1.202 1.622-1.204 3.008-.831 1.385.372 1.655 1.994m-7.042 13.058q2.088-1.674 3.156-3.976t1.801-5.492a12 12 0 0 0-.313-.161q-.195-.099-.313-.162-1.146 2.139-4.991 9.42.316.14.66.371m53.512-16.743q2.582 1.093 3.682 2.968t.632 3.921-2.266 3.771q-4.379 4.25-12.166 6.282-1.212.34-2.614.539a67 67 0 0 1-3.311.374q-1.909.174-2.879.343l-1.339 7.595q-.61-.406-.96-.85a2.2 2.2 0 0 1-.447-.973 7 7 0 0 1-.117-.914 5.6 5.6 0 0 1 .068-.988q.084-.602.087-.857.402-9.548 2.832-18.482.084-.24.122-.575.037-.333.057-.564a17 17 0 0 0 .036-.568q.018-.337.06-.585-3.737.616-5.25 1.33-1.514.71-2.034 2.45-1.193-.254-1.457-.938-.264-.685.56-1.476 2.043-2.151 3.721-2.706 5.206-1.678 12.973-1.415 4.83.212 10.01 2.318m-.539 10.076q2.974-2.582 2.83-4.544-.146-1.962-3.367-3.551-1.06-.528-2.525-.935a35 35 0 0 0-2.269-.57q-.803-.164-2.75-.506a14 14 0 0 0-1.844-.198q-.974-.045-2.277-.04a47 47 0 0 1-1.938-.022q.15 1.09.375 2.832.226 1.743.276 2.432a21 21 0 0 1-1.065-.74 15 15 0 0 0-.876-.602l-.423-.266-2.343 13.29a562 562 0 0 1 3.753-.7q4.583-.809 8.099-2.104a20.1 20.1 0 0 0 6.344-3.776m18.247 18.071a1.2 1.2 0 0 0 .254.258.5.5 0 0 1 .11.104l-.644.865q-.42.565-.773.992a3.8 3.8 0 0 1-.742.699q-4.445 3.174-8.247 3.185-1.666.004-3.067-1.371a5.33 5.33 0 0 1-1.612-3.327q-.071-.566-.339-1.592a77 77 0 0 1-.34-1.337q-.173-.966-.045-1.2l1.439-2.47a565 565 0 0 0 1.565-2.703q.555-.966 1.445-2.383a60 60 0 0 1 1.689-2.554q2.323-3.251 5.733-2.734 1.706.257 2.415 1.32.71 1.06.245 2.724a9.4 9.4 0 0 1-1.365 2.78q-.939 1.324-1.903 2.197a34 34 0 0 1-2.392 1.94q-.647.524-2.398 1.493-1.75.968-2.517 1.684-.501.422-.676 1.413-.175.99-.001 1.702.112.573.8 1.27.69.694 1.16.693 2.503-.155 5.512-1.241.735-.296 1.506-.67a32 32 0 0 0 1.743-.928q.973-.552 1.445-.809m-6.526-12.386q-1.328 1-2.39 2.536-1.06 1.537-1.544 2.707t-1.299 3.367q5.115-2.375 8.045-6.88.175-.267.297-.714a6 6 0 0 0 .166-.822q.044-.374.125-.83a9 9 0 0 0-.69-.078q-.485-.043-.843-.064a3 3 0 0 0-.713.045.8.8 0 0 0-.364.127 4 4 0 0 0-.466.344q-.275.228-.324.262m39.736 4.197q.71 1.062.246 2.725a9.4 9.4 0 0 1-1.366 2.78q-.938 1.326-1.903 2.197a34 34 0 0 1-2.392 1.94q-.646.525-2.398 1.493-1.75.969-2.517 1.684-.501.423-.676 1.413-.174.99-.001 1.702.113.573.8 1.27.69.695 1.16.693 2.503-.155 5.513-1.24.735-.297 1.506-.672a32 32 0 0 0 1.743-.927q.972-.551 1.445-.809a1.2 1.2 0 0 0 .253.258.5.5 0 0 1 .11.104l-.171.23-.473.636q-.42.564-.772.991a3.8 3.8 0 0 1-.743.7q-4.445 3.173-8.247 3.184-1.665.004-3.067-1.37a5.33 5.33 0 0 1-1.612-3.328q-.07-.566-.339-1.592a77 77 0 0 1-.34-1.337q-.172-.966-.045-1.2.428-.732 1.439-2.47a565 565 0 0 0 1.565-2.702q.555-.968 1.445-2.384a60 60 0 0 1 1.689-2.554q2.324-3.25 5.734-2.734 1.704.258 2.414 1.32m-10.67-4.137a16 16 0 0 0-3.107 1.878q-1.433 1.11-2.418 2.213-.984 1.103-2.039 2.726a40 40 0 0 0-1.69 2.808q-.637 1.186-1.607 3.058a88 88 0 0 1-1.589 2.954q-.14.315-.38.827a12 12 0 0 1-.485.936 6 6 0 0 1-.519.76 2.65 2.65 0 0 1-.89.694q-.563.284-.928.177-.373-.067-.786-.628-.414-.563-.382-.983.176-3.416.818-8.027.157-1.377 1.074-5.854.245-1.148.809-1.921.563-.773 1.84-1.23l-2.199 12.466q.034.048.18.074.144.026.22.081.443-.815 1.436-2.577a104 104 0 0 1 1.804-3.086 28 28 0 0 1 1.642-2.413q1.713-2.21 5.766-5.58.85-.702 1.747-.586.899.115 1.683 1.233m8.703 5.365a9 9 0 0 0-.69-.079q-.485-.043-.843-.064a3 3 0 0 0-.712.045.8.8 0 0 0-.364.127 4 4 0 0 0-.467.344q-.274.228-.323.262-1.33 1-2.39 2.536t-1.545 2.707-1.298 3.367q5.115-2.374 8.044-6.88.175-.267.297-.714a6 6 0 0 0 .166-.822q.045-.375.125-.829m30.897-7.66q1.456.215.788 2.31-.348 1.002-.864 2.72a423 423 0 0 1-.865 2.848 82 82 0 0 1-.87 2.634 31 31 0 0 1-1.078 2.725q-2.296 5.51-2.989 14.284-.05.288-.586 4.535a.4.4 0 0 1-.194.009 1.4 1.4 0 0 0-.23-.02q-.129 0-.212-.016a7.7 7.7 0 0 1-.877-3.134q-.11-1.678.118-3.937t.182-3.457q-.16.184-.474.512a137 137 0 0 1-2.053 1.957q-.715.661-1.864 1.608-1.149.946-2.26 1.56-1.11.612-2.331.993-1.179.387-1.992.52-.813.134-1.768-.14-.956-.276-1.757-1.055-2.082-2.24-.287-5.881 4.315-8.73 13.673-10.953a4 4 0 0 1 1.075-.045q.633.048 1.105.153t1.018.158q3.058-8.144 3.652-9.57.21-.474.868-.932.658-.46 1.072-.386m-13.586 23.778q2.714-2.074 4.487-4.018t2.463-4.162q.711-3.79-2.208-2.73-2.511.92-4.47 2.106-5.138 3.222-6.95 8.18-.227.555-.164 1.29.062.735.377 1.13.286.307.999.39.711.082 1.217-.126 2.823-.992 4.249-2.06m26.686-3.636q.07.566-.31 2.244-.231 1.065-2.033 8.621-.906-.67-1.269-1.522-.362-.851-.263-1.536.1-.685.211-1.558.111-.875.067-1.35-.59.449-1.987 1.586a88 88 0 0 0-2.406 2.022q-1.011.887-1.923 1.704-.766.716-1.539.857-.772.14-1.396-.438-.526-.645-.835-1.68-.309-1.033-.034-1.623 1.88-3.88 4.948-8.448.966-1.36 3.352-3.026 1.161-.774 2.282-.96 1.122-.184 1.884.333.147.62.47 1.7.32 1.077.499 1.769.177.69.282 1.305m-10.638 8.509q1.417-1.496 4.435-4.687t4.595-4.872q-.104-.145-.915-2.076a16.2 16.2 0 0 0-3.988 3q-1.722 1.78-2.787 3.7t-1.93 4.405q.077.056.59.53M459.745 518.428q2.745 1.8 3.219 4.249.474 2.447-1.205 5.092a16.5 16.5 0 0 1-2.861 3.374 15.7 15.7 0 0 1-3.588 2.419 28 28 0 0 1-3.857 1.562q-1.897.603-4.317 1.105-5.19 1.1-9.923-.891a5.6 5.6 0 0 1-.864-.515 10 10 0 0 1-.963-.797 8 8 0 0 0-.807-.673q.098-.142.33-.415 6.081 1.365 6.12 1.38 2.367.505 4.725.114 2.356-.39 5.283-1.422 3.112-1.053 7.527-4.575.868-.666 1.537-1.827t.898-2.282q.405-2.217-.608-3.433-1.011-1.215-3.723-1.757a9.6 9.6 0 0 0-2.155-.226q-1.164 0-2.722.102a73 73 0 0 1-2.237.122 4 4 0 0 0-.72.073q-.455.08-.827.122a2.1 2.1 0 0 1-.704-.033 3 3 0 0 1-.54-.175 5 5 0 0 1-.53-.326q-.36-.243-.543-.354.096-.143.28-.522.182-.38.342-.634t.335-.369a665 665 0 0 1 4.67-2.135q3.164-1.436 4.754-2.24 2.02-1.004 3.442-2.45.355-.36.537-1.23.183-.871-.026-1.036-.758-.5-3.056-1.068a2.4 2.4 0 0 0-.439-.026q-.226.008-.553.044a4 4 0 0 1-.46.034q-4.9.312-6.233.407-.28.032-.534.608-.91 2.256-2.603 6.412a803 803 0 0 1-2.387 5.822q-2.345 5.703-3.993 9.742-.48 1.074-1.306 1.62.314-2.339.95-4.76a50 50 0 0 1 1.537-4.838q.9-2.415 1.699-4.422a243 243 0 0 1 1.932-4.694 175 175 0 0 0 1.833-4.484q-.376-.315-.627-.429-.25-.113-.697-.053t-.858.268-1.277.806q-.867.6-1.77 1.296t-2.532 1.978q-.924-.783-.793-1.694.13-.911 1.032-1.297 1.212-.63 3.61-1.562a148 148 0 0 0 3.192-1.27q.525-.21 1.346-.87t1.12-.864q.432-.2.935-.418.506-.217.609-.135.592.707 1.356 1.007t1.403.265 1.585-.114q.946-.08 1.503-.011 2.732.237 4.676 1.167 1.143.55 1.499 1.66.357 1.111-.126 2.252-.482 1.14-1.591 1.851-1.339.851-3.932 2.383-2.594 1.531-2.892 1.735-.04-.014-1.313.904 4.71-.648 7.876 1.35m38.136 18.407q.273.479.871 3.016a4 4 0 0 0-.469-.126 4 4 0 0 1-.41-.105.7.7 0 0 1-.202-.118q-.141-.72-.408-1.152-.269-.432-.496-.605-.229-.172-.722-.106-.495.065-.715.119-.221.052-.786.316l-.254.118-.106.049-.313.145q-2.85 1.192-5.022 3.347-2.17 2.152-4.233 5.238 1.666.34 2.765.025 1.098-.313 4.322-2.04.5-.264 1.075-.433a18 18 0 0 1 1.352-.333l1.163-.246q-.01.397.134 1.23.144.834.161 1.464t-.116 1.118q-.713 2.327-1.09 3.55a49 49 0 0 1-1.113 3.119 36 36 0 0 1-1.506 3.399q-1.474 2.943-5.35 4.431-3.874 1.489-7.312.728-5.183-1.128-8.576-5.574a5 5 0 0 1-.591-1.018q-.258-.585-.502-1.387-.244-.803-.382-1.165l.865-.533q.105.083.3.221l.123.087.197.141q.125.09.273.233.15.144.225.305 1.719 2.9 4.602 4.507t5.947 1.607 5.406-1.511a9.7 9.7 0 0 0 2.888-2.896q1.13-1.752 2.044-4.14.244-.67.45-1.42t.444-1.712q.238-.96.316-1.423a1 1 0 0 1-.134-.183 3 3 0 0 0-.16-.237 1.4 1.4 0 0 1-.14-.23q-.285.165-.88.573t-1.075.68q-.48.27-.91.47-3.21 1.197-5.145 1.473-1.587.18-2.306-.794-.719-.976-.292-2.515a8.8 8.8 0 0 1 .715-1.658q.453-.816.82-1.33.365-.513 1.151-1.32.786-.806 1.112-1.09l.567-.483.282-.24.512-.432a46 46 0 0 0 1.238-1.065q2.067-1.745 3.664-2.324a9.6 9.6 0 0 1 4.439-.392q1.02.15 1.293.627m-18.152-9.26q.513 1.168-.232 2.725a9.4 9.4 0 0 1-1.828 2.502q-1.153 1.14-2.255 1.833-1.102.691-2.692 1.495-.73.404-2.621 1.053-1.892.65-2.771 1.222-.568.329-.912 1.274t-.296 1.676q.011.584.568 1.389.557.804 1.02.884 2.493.283 5.645-.265.775-.163 1.6-.399a32 32 0 0 0 1.878-.61q1.053-.375 1.563-.546a1.2 1.2 0 0 0 .205.298.5.5 0 0 1 .09.122l-.784.74q-.512.483-.933.843t-.853.559q-4.929 2.355-8.674 1.704-1.642-.285-2.783-1.882a5.33 5.33 0 0 1-1.01-3.557q.029-.57-.057-1.626a77 77 0 0 1-.103-1.376q0-.98.164-1.189l1.846-2.183q1.297-1.535 2.011-2.39a72 72 0 0 1 1.837-2.097 60 60 0 0 1 2.106-2.221q2.853-2.798 6.122-1.697 1.635.55 2.149 1.718m-2.15.867a9 9 0 0 0-.667-.198 28 28 0 0 0-.819-.209 3 3 0 0 0-.71-.08.8.8 0 0 0-.38.063 4 4 0 0 0-.519.257 9 9 0 0 1-.364.202q-1.483.754-2.794 2.083t-1.991 2.397-1.864 3.09q5.45-1.45 9.118-5.378.219-.232.416-.652.197-.418.306-.78.11-.361.267-.795m34.01 13.761q-.23 6.652-4.855 11.124a7 7 0 0 0-.587.567q-.396.412-.628.619-.231.206-.584.5a6 6 0 0 1-.699.504q-.345.21-.667.36-.847.36-1.94.409-1.09.048-1.612-.364-.441-.384-.504-1.566-.061-1.183.355-1.834.362-.626.812-1.31.45-.683.85-1.229l.931-1.267q.53-.72.91-1.208l.97-1.252q.592-.765.922-1.181 1.116-1.467 2.035-2.025 1.212-.629 1.291-1.336t-1.39-1.465q1.805-.904 3.105-.297t1.284 2.251m-9.203 11.637q2.348-1.286 3.798-3.367 1.452-2.082 2.728-5.096-.105-.082-.28-.213-.177-.132-.28-.214-1.5 1.908-6.552 8.41.288.193.586.48m55.395-8.353q2.354 1.525 3.11 3.563.758 2.037-.058 3.97-.815 1.934-2.886 3.32-5.05 3.426-13.072 4.074-1.254.125-2.668.077a67 67 0 0 1-3.326-.206q-1.91-.16-2.894-.162l-2.638 7.247q-.531-.506-.798-1.004a2.2 2.2 0 0 1-.272-1.036q-.005-.537.045-.92.05-.384.238-.962t.234-.829q2.055-9.331 5.999-17.71.125-.221.22-.543t.154-.546q.06-.224.134-.554t.162-.565q-3.789-.042-5.403.397t-2.428 2.06q-1.131-.456-1.272-1.176t.807-1.357q2.387-1.763 4.136-2.018 5.418-.75 13.021.859 4.72 1.05 9.455 4.02m-2.28 9.83q3.377-2.027 3.575-3.984.198-1.958-2.698-4.082-.953-.704-2.324-1.36a35 35 0 0 0-2.136-.955q-.763-.3-2.62-.976a14 14 0 0 0-1.782-.514 48 48 0 0 0-2.236-.435 47 47 0 0 1-1.905-.359q-.042 1.1-.122 2.855t-.15 2.443a21 21 0 0 1-.92-.915 15 15 0 0 0-.759-.744l-.37-.336-4.616 12.682q3.685-.042 3.818-.038 4.654 0 8.341-.666a20.1 20.1 0 0 0 6.904-2.616m14.832 20.964a1.2 1.2 0 0 0 .205.298.5.5 0 0 1 .09.122l-.785.74q-.51.483-.933.843-.42.36-.852.56-4.93 2.353-8.675 1.704-1.642-.285-2.782-1.883a5.33 5.33 0 0 1-1.01-3.557q.029-.57-.057-1.626a77 77 0 0 1-.104-1.376q0-.98.165-1.189l1.846-2.182a565 565 0 0 0 2.01-2.39 72 72 0 0 1 1.838-2.097 60 60 0 0 1 2.106-2.222q2.853-2.797 6.121-1.697 1.635.55 2.15 1.719.513 1.168-.232 2.725a9.4 9.4 0 0 1-1.828 2.502q-1.154 1.14-2.256 1.833-1.101.691-2.692 1.495-.73.404-2.62 1.054-1.893.65-2.772 1.221-.567.33-.911 1.274-.344.945-.297 1.676.012.584.569 1.389t1.02.884q2.493.283 5.645-.264.775-.165 1.6-.4a32 32 0 0 0 1.877-.61q1.054-.374 1.564-.546m-4.276-13.331q-1.483.754-2.794 2.083-1.312 1.329-1.992 2.397-.68 1.07-1.863 3.091 5.45-1.45 9.117-5.379.22-.232.416-.651.198-.42.307-.78.11-.363.267-.796a9 9 0 0 0-.666-.198 28 28 0 0 0-.82-.209 3 3 0 0 0-.709-.08.8.8 0 0 0-.38.063 4 4 0 0 0-.519.257 9 9 0 0 1-.364.202m38.403 11.034q.514 1.169-.231 2.726a9.4 9.4 0 0 1-1.828 2.501q-1.154 1.142-2.256 1.833t-2.692 1.496q-.73.404-2.62 1.053-1.893.65-2.772 1.221-.567.33-.911 1.274-.344.946-.297 1.676.012.585.568 1.39.558.803 1.021.884 2.493.282 5.645-.265.775-.164 1.6-.4a32 32 0 0 0 1.877-.61q1.054-.375 1.564-.545a1.2 1.2 0 0 0 .204.297.5.5 0 0 1 .09.122l-.208.197-.576.544q-.51.482-.933.842-.42.36-.852.56-4.93 2.353-8.675 1.704-1.641-.285-2.783-1.883a5.33 5.33 0 0 1-1.01-3.556q.029-.57-.056-1.627a77 77 0 0 1-.104-1.375q0-.982.165-1.19.548-.647 1.846-2.182 1.297-1.535 2.01-2.39a72 72 0 0 1 1.838-2.097 60 60 0 0 1 2.106-2.222q2.853-2.797 6.121-1.697 1.635.55 2.149 1.719m-9.79-5.927a16 16 0 0 0-3.385 1.31q-1.605.843-2.766 1.759t-2.481 2.33a40 40 0 0 0-2.153 2.473q-.833 1.057-2.113 2.732a88 88 0 0 1-2.077 2.634q-.194.285-.519.748a12 12 0 0 1-.64.837q-.316.375-.642.658a2.65 2.65 0 0 1-.998.529q-.603.182-.945.013-.355-.13-.665-.755-.309-.625-.205-1.034.766-3.333 2.199-7.763.394-1.328 2.075-5.578.44-1.089 1.13-1.752.69-.664 2.025-.891l-4.33 11.894q.026.053.164.104t.203.119q.578-.727 1.862-2.289 1.284-1.561 2.312-2.726a28 28 0 0 1 2.037-2.091q2.07-1.878 6.647-4.494.958-.543 1.822-.274.864.27 1.443 1.507m7.64 6.795a9 9 0 0 0-.667-.198 28 28 0 0 0-.819-.21 3 3 0 0 0-.709-.079.8.8 0 0 0-.38.062 4 4 0 0 0-.52.257 9 9 0 0 1-.363.202q-1.483.754-2.795 2.083t-1.99 2.398-1.864 3.09q5.45-1.45 9.117-5.379.22-.232.416-.651.198-.42.307-.78.11-.363.267-.795m31.757-2.18q1.398.465.375 2.412a72 72 0 0 0-1.323 2.53 423 423 0 0 1-1.346 2.654 82 82 0 0 1-1.315 2.443 31 31 0 0 1-1.535 2.496q-3.217 5.03-5.423 13.548-.1.276-1.365 4.365a.4.4 0 0 1-.192-.026 1.4 1.4 0 0 0-.225-.059 1.3 1.3 0 0 1-.204-.052 7.7 7.7 0 0 1-.32-3.239q.183-1.672.8-3.857.615-2.184.78-3.373-.19.153-.557.422-1.543 1.044-2.361 1.571a44 44 0 0 1-2.115 1.26q-1.295.733-2.496 1.143-1.2.41-2.469.573-1.227.178-2.052.168t-1.717-.447-1.547-1.343q-1.66-2.568.74-5.842 5.764-7.848 15.366-8.412a4 4 0 0 1 1.067.143q.615.156 1.061.342.448.185.976.332 4.425-7.488 5.258-8.79.29-.43 1.017-.767.727-.338 1.122-.194m-17.509 21.059q3.034-1.572 5.117-3.178t3.149-3.671q1.357-3.609-1.701-3.072-2.632.468-4.768 1.297-5.618 2.281-8.265 6.849-.32.508-.385 1.243-.066.734.175 1.178.23.352.916.557t1.22.087q2.952-.486 4.542-1.29m26.912 1.053q-.028.57-.695 2.155-.412 1.01-3.499 8.138-.775-.817-.985-1.72-.208-.9.008-1.557.217-.657.478-1.499.262-.84.301-1.318-.66.34-2.233 1.217a88 88 0 0 0-2.72 1.574q-1.149.698-2.19 1.344-.879.573-1.664.577t-1.299-.674q-.406-.727-.53-1.799-.126-1.071.248-1.604 2.525-3.497 6.34-7.46 1.187-1.174 3.826-2.399 1.278-.561 2.414-.548 1.137.012 1.798.654.036.637.167 1.755.13 1.118.184 1.83.054.71.051 1.334m-11.953 6.532 5.18-3.846q3.528-2.62 5.372-4-.075-.16-.54-2.203a16.2 16.2 0 0 0-4.448 2.262q-2.007 1.455-3.388 3.16t-2.665 4.003q.064.069.49.624"/>

</g></svg>