<svg xmlns="http://www.w3.org/2000/svg" viewBox="0 0 1255 1050" data-visibility="small">

<g fill="none" fill-rule="evenodd"><path fill="#000" d="m354.608 169.935 274.761-48.448 19.449 110.298-274.762 48.448c-30.458 5.37-59.502-14.967-64.873-45.425-5.37-30.458 14.967-59.503 45.425-64.873"/><path fill="#372d33" d="M613.15 3.51c9.51-1.676 18.58 4.674 20.257 14.185l63.463 359.912c1.677 9.511-4.674 18.58-14.185 20.257L86.85 502.926c-9.51 1.677-18.58-4.673-20.257-14.184L3.13 128.83c-1.677-9.51 4.674-18.58 14.185-20.257zM217.692 439.372c-6.087 1.074-10.151 6.878-9.078 12.965s6.878 10.151 12.965 9.078 10.15-6.878 9.078-12.965c-1.074-6.087-6.878-10.15-12.965-9.078m325.471-57.389c-6.087 1.073-10.151 6.878-9.078 12.965s6.878 10.15 12.965 9.078c6.087-1.074 10.15-6.878 9.078-12.965-1.074-6.087-6.878-10.151-12.965-9.078M293.365 403.3c-6.087 1.074-10.151 6.878-9.078 12.965s6.878 10.151 12.965 9.078 10.15-6.878 9.078-12.965c-1.074-6.087-6.878-10.15-12.965-9.078m166.352-29.332c-6.087 1.073-10.151 6.878-9.078 12.965s6.878 10.15 12.964 9.078c6.087-1.074 10.152-6.878 9.078-12.965s-6.877-10.151-12.964-9.078M423.4 168.008l-171.863 30.305 15.79 89.547 171.862-30.304zm-232.035 51.568c-19.022 3.354-31.723 21.493-28.369 40.515 3.354 19.021 21.493 31.722 40.514 28.368s31.723-21.493 28.369-40.514-21.493-31.723-40.514-28.369m295.85-52.166c-19.02 3.354-31.722 21.493-28.368 40.514s21.493 31.723 40.515 28.369c19.021-3.354 31.722-21.493 28.368-40.515-3.354-19.021-21.493-31.722-40.514-28.368"/><path fill="#453840" d="M562.987 305.331a6.995 6.995 0 0 1 7.833 4.625l32.072 93.78a6.995 6.995 0 0 1-5.403 9.15l-417.865 73.682a6.995 6.995 0 0 1-8.208-6.752l-1.936-99.093a6.995 6.995 0 0 1 5.778-7.024zm-345.295 134.04c-6.087 1.074-10.151 6.878-9.078 12.965s6.878 10.151 12.965 9.078 10.15-6.878 9.078-12.965c-1.074-6.087-6.878-10.15-12.965-9.078m325.471-57.389c-6.087 1.073-10.151 6.878-9.078 12.965s6.878 10.15 12.965 9.078c6.087-1.074 10.15-6.878 9.078-12.965-1.074-6.087-6.878-10.151-12.965-9.078M293.365 403.3c-6.087 1.074-10.151 6.878-9.078 12.965s6.878 10.151 12.965 9.078 10.15-6.878 9.078-12.965c-1.074-6.087-6.878-10.15-12.965-9.078m166.352-29.332c-6.087 1.073-10.151 6.878-9.078 12.965s6.878 10.15 12.964 9.078c6.087-1.074 10.152-6.878 9.078-12.965s-6.877-10.151-12.964-9.078"/><path fill="#292126" d="M602.568 43.02a6.995 6.995 0 0 1 8.103 5.673l47.618 270.056a6.995 6.995 0 0 1-5.638 8.096l-53.193 9.662a6.995 6.995 0 0 1-8.132-5.632l-6.139-34.814a6.995 6.995 0 0 0-8.103-5.674l-491.133 86.6a6.995 6.995 0 0 1-8.103-5.674L38.743 149.54a6.995 6.995 0 0 1 5.674-8.103zM423.401 168.009l-171.863 30.304 15.79 89.547 171.862-30.304zm-232.035 51.567c-19.022 3.354-31.723 21.493-28.369 40.515 3.354 19.021 21.493 31.722 40.514 28.368s31.723-21.493 28.369-40.514-21.493-31.723-40.514-28.369m295.85-52.166c-19.02 3.354-31.722 21.493-28.368 40.514s21.493 31.723 40.515 28.369c19.021-3.354 31.722-21.493 28.368-40.515-3.354-19.021-21.493-31.722-40.514-28.368"/><path fill="#d6c3a8" d="m57.016 154.485 533.841-94.13a3.497 3.497 0 0 1 4.052 2.837l9.716 55.106a3.497 3.497 0 0 1-2.836 4.051L67.947 216.48a3.497 3.497 0 0 1-4.051-2.836l-9.717-55.106a3.497 3.497 0 0 1 2.837-4.052m31.519 178.751 533.84-94.13a3.497 3.497 0 0 1 4.052 2.836l3.948 22.387a3.497 3.497 0 0 1-2.837 4.052L93.697 362.51a3.497 3.497 0 0 1-4.052-2.837l-3.947-22.386a3.497 3.497 0 0 1 2.837-4.052"/><path fill="#453840" d="m606.447 128.63 18.22 103.324L83.936 327.3l-18.22-103.325zM423.401 168.01l-171.863 30.304 15.79 89.547 171.862-30.304zm-232.035 51.567c-19.022 3.354-31.723 21.493-28.369 40.515 3.354 19.021 21.493 31.722 40.514 28.368s31.723-21.493 28.369-40.514-21.493-31.723-40.514-28.369m295.85-52.166c-19.02 3.354-31.722 21.493-28.368 40.514s21.493 31.723 40.515 28.369c19.021-3.354 31.722-21.493 28.368-40.515-3.354-19.021-21.493-31.722-40.514-28.368"/><g transform="rotate(-10 394.294 -3419.717)"><circle cx="11.191" cy="11.191" r="11.191" fill="#1b1619"/><path fill="#453840" fill-rule="nonzero" d="M16.62 10.909q1.043.28.763 1.322l-.21.782q-.28 1.043-1.322.763l-3.461-.927-.933 3.483q-.273 1.018-1.316.739l-1.09-.292q-1.043-.28-.765-1.322l.927-3.46-3.437-.92q-1.043-.28-.764-1.323l.21-.782q.28-1.042 1.322-.763l3.438.921.914-3.412q.28-1.042 1.322-.763l1.114.299q1.043.28.764 1.322l-.914 3.412z"/></g><g transform="rotate(-10 693.31 -1.944)"><circle cx="11.191" cy="11.191" r="11.191" fill="#1b1619"/><path fill="#453840" fill-rule="nonzero" d="M16.62 10.909q1.043.28.763 1.322l-.21.782q-.28 1.043-1.322.763l-3.461-.927-.933 3.483q-.273 1.018-1.316.739l-1.09-.292q-1.043-.28-.765-1.322l.927-3.46-3.437-.92q-1.043-.28-.764-1.323l.21-.782q.28-1.042 1.322-.763l3.438.921.914-3.412q.28-1.042 1.322-.763l1.114.299q1.043.28.764 1.322l-.914 3.412z"/></g><g transform="rotate(-10 2432.966 -3598.078)"><circle cx="11.191" cy="11.191" r="11.191" fill="#1b1619"/><path fill="#453840" fill-rule="nonzero" d="M16.62 10.909q1.043.28.763 1.322l-.21.782q-.28 1.043-1.322.763l-3.461-.927-.933 3.483q-.273 1.018-1.316.739l-1.09-.292q-1.043-.28-.765-1.322l.927-3.46-3.437-.92q-1.043-.28-.764-1.323l.21-.782q.28-1.042 1.322-.763l3.438.921.914-3.412q.28-1.042 1.322-.763l1.114.299q1.043.28.764 1.322l-.914 3.412z"/></g><g transform="rotate(-10 2216.363 -1861.189)"><circle cx="11.191" cy="11.191" r="11.191" fill="#1b1619"/><path fill="#453840" fill-rule="nonzero" d="M16.62 10.909q1.043.28.763 1.322l-.21.782q-.28 1.043-1.322.763l-3.461-.927-.933 3.483q-.273 1.018-1.316.739l-1.09-.292q-1.043-.28-.765-1.322l.927-3.46-3.437-.92q-1.043-.28-.764-1.323l.21-.782q.28-1.042 1.322-.763l3.438.921.914-3.412q.28-1.042 1.322-.763l1.114.299q1.043.28.764 1.322l-.914 3.412z"/></g><g transform="rotate(-10 2731.982 -180.305)"><circle cx="11.191" cy="11.191" r="11.191" fill="#1b1619"/><path fill="#453840" fill-rule="nonzero" d="M16.62 10.909q1.043.28.763 1.322l-.21.782q-.28 1.043-1.322.763l-3.461-.927-.933 3.483q-.273 1.018-1.316.739l-1.09-.292q-1.043-.28-.765-1.322l.927-3.46-3.437-.92q-1.043-.28-.764-1.323l.21-.782q.28-1.042 1.322-.763l3.438.921.914-3.412q.28-1.042 1.322-.763l1.114.299q1.043.28.764 1.322l-.914 3.412z"/></g><path fill="#5ea085" d="m527.921 142.477 79.215-13.968 3.644 20.665-79.215 13.968z"/><path fill="#91bda0" d="m531.565 163.142 79.215-13.968 3.644 20.665-79.215 13.968z"/><path fill="#efc675" d="m535.208 183.806 79.215-13.968 3.644 20.665-79.215 13.968z"/><path fill="#292126" d="m538.852 204.471 79.215-13.968 3.644 20.666-79.215 13.967z"/><path fill="#eb5b3d" d="m542.496 225.135 79.215-13.967 3.644 20.665L546.14 245.8z"/><path fill="#5ea085" d="m65.718 223.975 79.215-13.967 3.644 20.665-79.215 13.968z"/><path fill="#91bda0" d="m69.362 244.64 79.215-13.967 3.644 20.665-79.215 13.968z"/><path fill="#efc675" d="m73.005 265.305 79.215-13.968 3.644 20.665L76.65 285.97z"/><path fill="#292126" d="m76.65 285.97 79.214-13.968 3.644 20.666-79.215 13.967z"/><path fill="#eb5b3d" d="m80.293 306.634 79.215-13.967 3.644 20.665-79.215 13.967z"/><path fill="#292126" d="m108.657 155.323 7.59 43.052-43.051 7.591-7.591-43.052zm-18.43 12.838-11.71 2.065 4.25 24.106 10.925-1.926a17 17 0 0 0 3.368-.932q1.521-.605 2.526-1.693a6.8 6.8 0 0 0 1.383-2.2q.78-1.89.402-4.033-.367-2.077-1.564-3.367t-3.163-1.634q1.101-.835 1.59-1.697.874-1.537.486-3.745-.378-2.143-1.761-3.483-2.289-2.177-6.733-1.46m1.479 13.651q1.573-.26 2.509-.02 1.677.428 2.009 2.31.392 2.224-1.072 3.29-.808.582-2.395.862l-5.92 1.043-1.133-6.427Zm-2.344-9.181q1.75-.309 2.945-.132 1.403.308 1.7 1.994.269 1.52-.61 2.282-.89.781-2.476 1.061L85 178.88l-.938-5.315Z"/><path fill="#1b1619" fill-rule="nonzero" d="M175.297 340.557q-1.2.212-2.32.162a6 6 0 0 1-2.043-.432 3.96 3.96 0 0 1-1.535-1.11q-.612-.726-.816-1.885l-.037-.21a.6.6 0 0 1-.01-.173l2.957-.521a.5.5 0 0 0 .008.163l.031.18q.114.639.54 1.017.428.378 1.145.478.719.1 1.617-.059a7 7 0 0 0 1.017-.25q.436-.15.763-.342.327-.19.525-.411t.266-.48a1.3 1.3 0 0 0 .014-.558q-.094-.54-.504-.818t-1.061-.41a13 13 0 0 0-1.446-.198l-1.63-.135a13 13 0 0 1-1.65-.245 6.4 6.4 0 0 1-1.49-.51 3.3 3.3 0 0 1-1.157-.949q-.48-.615-.648-1.574-.18-1.019.12-1.834.299-.814.993-1.432a6 6 0 0 1 1.673-1.026q.978-.41 2.177-.62a9.6 9.6 0 0 1 2.158-.144 5.4 5.4 0 0 1 1.886.419 3.7 3.7 0 0 1 1.41 1.049q.564.684.747 1.722l.043.24-2.897.51-.028-.16a1.4 1.4 0 0 0-.482-.862q-.387-.323-1.004-.44-.618-.118-1.398.02-.839.147-1.4.41-.561.265-.816.629-.255.365-.18.783.084.48.488.728t1.054.37 1.44.168q.791.047 1.629.125.837.079 1.65.245t1.49.51 1.154.939.638 1.515q.279 1.578-.311 2.67-.59 1.093-1.831 1.765t-2.94.971m13.643-2.405q-1.778.313-3.162.053-1.385-.261-2.24-1.016-.853-.756-1.068-1.975-.243-1.377.351-2.327.596-.95 1.697-1.474l-.014-.08q-1.073-.243-1.845-.827-.772-.585-.984-1.784-.21-1.198.318-2.167.53-.97 1.71-1.64 1.178-.672 2.876-.97 1.659-.294 2.98-.042 1.32.25 2.15.98a3.1 3.1 0 0 1 1.026 1.848l.088.5-2.677.471-.056-.32q-.106-.598-.504-.93-.398-.33-1.043-.424-.645-.092-1.543.066a4.7 4.7 0 0 0-1.164.35 2.7 2.7 0 0 0-.81.544 1.65 1.65 0 0 0-.42.713 1.9 1.9 0 0 0-.034.86q.102.58.474.937.372.356.896.47.525.113 1.104.011l1.498-.264.37 2.097-1.558.275a4.2 4.2 0 0 0-1.159.38q-.54.27-.796.737-.258.468-.124 1.227.123.7.542 1.089.42.39 1.119.503.7.114 1.658-.056 1.019-.179 1.624-.544.606-.363.82-.896.216-.532.103-1.171l-.701-3.976 4.714-.83.37 2.097-2.017.355.317 1.798q.232 1.319-.215 2.407-.446 1.087-1.61 1.849-1.163.761-3.06 1.096m9.806-1.976-2.416-13.704 2.737-.483 6.816 6.42q.146.118.369.336t.425.43q.202.21.287.34l.1-.017-.118-.67-.104-.589-1.303-7.39 2.816-.497 2.417 13.703-2.737.483-6.968-6.578a17 17 0 0 1-.94-1.008l-.1.017.104.59.097.549 1.335 7.57zm334.59-58.75q-1.519.267-2.626-.114a3.67 3.67 0 0 1-1.78-1.272q-.67-.89-.897-2.17l2.717-.479q.124.699.411 1.164a1.5 1.5 0 0 0 .751.64q.465.175 1.103.063.939-.165 1.332-.74.393-.574.396-1.553.002-.979-.21-2.3-.145.23-.505.583-.36.352-.932.669-.574.317-1.312.447-1.417.25-2.476-.14a3.63 3.63 0 0 1-1.726-1.322q-.669-.934-.895-2.211-.254-1.44.186-2.567a4.2 4.2 0 0 1 1.442-1.87q1.002-.744 2.42-.994 1.258-.222 2.299-.045 1.041.178 1.847.838.807.661 1.383 1.888.577 1.227.905 3.085.369 2.097.283 3.595-.085 1.499-.581 2.482a3.8 3.8 0 0 1-1.397 1.544q-.9.56-2.138.779m-1.272-7.212q.74-.13 1.174-.526.436-.396.568-.986a3.3 3.3 0 0 0 .01-1.289q-.128-.72-.452-1.218a1.86 1.86 0 0 0-.87-.722q-.543-.224-1.282-.093-.72.127-1.142.531-.423.404-.568.986a3.1 3.1 0 0 0-.021 1.28q.126.72.461 1.217t.869.722 1.253.098m13.337 5.084q-1.238.219-2.242.014a3.65 3.65 0 0 1-1.78-.922q-.775-.717-1.324-2.021-.55-1.304-.898-3.282-.352-1.998-.28-3.4.071-1.404.553-2.353a3.55 3.55 0 0 1 1.356-1.475q.876-.525 2.114-.744 1.26-.222 2.241-.024.983.197 1.76.925.778.729 1.324 2.022.547 1.294.9 3.292.348 1.977.278 3.39t-.553 2.353a3.67 3.67 0 0 1-1.337 1.472q-.853.531-2.112.753m-.38-2.157q.879-.156 1.255-.706.377-.55.388-1.54.01-.99-.243-2.43l-.218-1.238q-.258-1.458-.608-2.395t-.895-1.336q-.543-.399-1.423-.243-.879.154-1.264.717t-.397 1.542.245 2.44l.218 1.238q.257 1.458.608 2.395.35.937.903 1.324.552.387 1.43.232M155.386 161.009q3.279.188 4.913 2.07 1.633 1.882 1.503 5.013a16.5 16.5 0 0 1-.791 4.352 15.7 15.7 0 0 1-1.898 3.889 28 28 0 0 1-2.56 3.281 44 44 0 0 1-3.186 3.116q-3.943 3.546-9.039 4.19a5.6 5.6 0 0 1-1.006-.015 10 10 0 0 1-1.232-.208 8 8 0 0 0-1.035-.18q.012-.171.078-.524a1395 1395 0 0 1 5.99-1.865 12.6 12.6 0 0 0 4.149-2.263q1.845-1.518 3.864-3.873 2.169-2.468 4.23-7.726.42-1.01.419-2.35t-.364-2.426q-.758-2.122-2.242-2.67-1.485-.546-4.103.341-.972.3-1.98.881a43 43 0 0 0-2.306 1.45q-1.297.867-1.876 1.224a4 4 0 0 0-.587.423q-.353.295-.656.52-.302.224-.626.323a3 3 0 0 1-.555.12 5 5 0 0 1-.622-.019q-.433-.03-.647-.035a5 5 0 0 0-.02-.592q-.03-.42-.02-.72.012-.3.107-.487.956-1.36 2.977-4.185t2.996-4.316q1.248-1.88 1.756-3.842.127-.49-.15-1.336-.278-.844-.54-.883-.906-.053-3.181.603a2.4 2.4 0 0 0-.393.197q-.192.12-.456.315a4 4 0 0 1-.382.259q-4.089 2.72-5.195 3.47-.226.166-.159.793.34 2.408.953 6.855.613 4.445.843 6.235.822 6.111 1.413 10.433.12 1.17-.32 2.057a40 40 0 0 1-1.559-4.599 50 50 0 0 1-1.087-4.957 226 226 0 0 1-.74-4.68 243 243 0 0 1-.673-5.03q-.362-2.895-.655-4.8-.484-.085-.757-.058-.273.026-.63.302a2.7 2.7 0 0 0-.61.661q-.252.385-.703 1.337t-.884 2.007-1.204 2.979q-1.19-.216-1.534-1.07-.343-.855.245-1.64.736-1.15 2.346-3.158a148 148 0 0 0 2.13-2.695q.348-.444.73-1.427.382-.982.538-1.308.273-.388.6-.83.33-.44.46-.42.867.315 1.678.193t1.347-.472 1.316-.891q.78-.543 1.296-.761 2.485-1.161 4.634-1.328 1.264-.095 2.128.69.864.783 1.016 2.012.153 1.228-.452 2.399-.734 1.406-2.214 4.029t-1.636 2.948q-.041.007-.686 1.44 3.755-2.917 7.496-2.768m42.23-3.127q.477.278 2.263 2.176-.166.03-.469.125a4 4 0 0 1-.407.115.7.7 0 0 1-.235-.001q-.48-.554-.93-.794-.447-.24-.731-.275t-.679.268q-.395.304-.559.46t-.523.667l-.16.23-.068.095-.198.283a15.6 15.6 0 0 0-2.676 5.408q-.802 2.95-1.047 6.654 1.613-.54 2.407-1.36.795-.822 2.724-3.928.3-.48.714-.914t1.004-.964l.884-.794q.19.35.732.998.54.65.87 1.187.33.538.46 1.026l.83 3.62q.284 1.248.595 3.257.312 2.01.396 3.697.195 3.285-2.417 6.512t-5.969 4.287q-5.052 1.614-10.214-.54a5 5 0 0 1-1.021-.586q-.515-.377-1.128-.95a21 21 0 0 0-.913-.818l.483-.893q.13.02.37.04l.15.015.24.023q.153.015.354.066.201.05.347.151 2.938 1.653 6.238 1.603t5.955-1.582q2.655-1.533 3.925-4.012a9.7 9.7 0 0 0 1.054-3.952q.102-2.082-.3-4.608-.124-.7-.32-1.454a71 71 0 0 0-.472-1.704 22 22 0 0 0-.437-1.391 1 1 0 0 1-.208-.091 3 3 0 0 0-.257-.125 1.4 1.4 0 0 1-.236-.129q-.165.285-.476.935-.312.651-.591 1.126-.28.474-.553.863-2.181 2.64-3.719 3.848-1.284.95-2.394.465-1.11-.486-1.511-2.032-.195-.859-.21-1.793t.045-1.561.337-1.72q.278-1.09.42-1.5.076-.222.248-.702l.125-.348.226-.63q.459-1.272.54-1.542.917-2.545 2.012-3.845a9.6 9.6 0 0 1 3.647-2.558q.958-.381 1.434-.104m-20.35 1.056q1.03.755 1.163 2.477a9.4 9.4 0 0 1-.333 3.08q-.427 1.565-1.037 2.715a34 34 0 0 1-1.583 2.641q-.429.714-1.743 2.223t-1.79 2.443q-.326.57-.152 1.56t.581 1.6q.302.5 1.187.918t1.326.255q2.3-1 4.756-3.051.59-.53 1.186-1.146t1.321-1.467 1.081-1.255a1.2 1.2 0 0 0 .326.156.5.5 0 0 1 .139.06l-.309 1.034q-.201.674-.387 1.196a3.8 3.8 0 0 1-.458.91q-3.091 4.504-6.66 5.814-1.564.574-3.352-.24a5.33 5.33 0 0 1-2.652-2.574q-.26-.508-.863-1.38-.601-.873-.777-1.14-.492-.85-.453-1.112.152-.836.508-2.813t.546-3.076q.19-1.098.543-2.734.351-1.637.713-2.977 1.072-3.85 4.453-4.53 1.69-.342 2.72.413m-1.428 1.827a9 9 0 0 0-.676.162q-.47.125-.814.228-.345.104-.654.286a.8.8 0 0 0-.299.244 4 4 0 0 0-.32.482q-.18.309-.215.357-.906 1.395-1.378 3.201-.471 1.808-.526 3.072-.054 1.265-.068 3.608 3.994-3.98 5.206-9.217.073-.31.035-.772a6 6 0 0 0-.125-.83q-.087-.366-.166-.821m36.334-5.087q3.128 5.874 1.358 12.06a7 7 0 0 0-.225.784q-.137.555-.234.85t-.256.726q-.16.432-.353.786-.194.353-.399.645-.553.736-1.474 1.324t-1.579.49q-.575-.111-1.219-1.104-.645-.992-.61-1.765 0-.724.048-1.54.049-.818.122-1.49l.173-1.563a59 59 0 0 1 .184-1.5l.214-1.57q.13-.96.208-1.484.232-1.828.75-2.77.735-1.153.45-1.804t-1.937-.573q1.112-1.686 2.541-1.81 1.431-.124 2.238 1.308m-2.151 14.679q1.39-2.288 1.606-4.816t-.186-5.776a12 12 0 0 0-.35-.045 12 12 0 0 1-.35-.045q-.345 2.401-1.468 10.558.346.024.748.124m13.116-8.91q.626-5.174.71-5.658.48-2.85 1.146-4.16.62-1.088 1.308-.933.69.156 1.086 1.192.938 2.175 1.79 5.558.516 1.952.916 4.945.036.207.014.445a3 3 0 0 1-.072.438q-.05.2-.11.466a7 7 0 0 1-.114.446l-.91.16q-1.845-6.1-2.77-9.172a.5.5 0 0 1-.153-.016.5.5 0 0 0-.194-.008q-.522 9.626-.74 13.962l.055.31q.04.227-.029.324-.19.375-1.39 2.288l-.63-.549a7 7 0 0 1-.697-.685 1.8 1.8 0 0 1-.369-.638q-.946-2.94-1.168-5.411-.273-2.76-.436-9.5-.012-.55.36-2.318-.007-.042.161-.05.17-.009.367.02.196.03.336.09.75.378.917.966t.037 1.42-.065 1.203q.135.529.17 1.204.033.675.017 1.188l-.037 1.241a53 53 0 0 0-.024 1.196q.082-.014.255-.002.174.012.263.038m23.282-8.403q.261.507.476 2.214.148 1.08 1.039 8.797-1.08-.321-1.713-.996-.63-.676-.772-1.354a92 92 0 0 0-.335-1.537q-.194-.86-.399-1.291-.402.625-1.325 2.17a88 88 0 0 0-1.569 2.724q-.646 1.178-1.224 2.258-.475.935-1.153 1.331-.678.397-1.461.067-.716-.428-1.36-1.293t-.587-1.514q.44-4.29 1.76-9.63.442-1.611 2.115-3.99.825-1.125 1.817-1.683.99-.558 1.884-.332.35.534 1.022 1.437.67.903 1.074 1.492.402.588.711 1.13m-7.085 11.633 2.564-5.92q1.743-4.032 2.651-6.15-.145-.102-1.57-1.638a16.2 16.2 0 0 0-2.72 4.182q-1.01 2.264-1.354 4.431t-.307 4.8q.09.026.736.295m48.562-36.226q2.801.145 4.476 1.53t1.935 3.468-.84 4.32q-2.66 5.49-9.284 10.063-1.024.734-2.272 1.4a67 67 0 0 1-2.983 1.484q-1.735.817-2.587 1.308l1.339 7.594q-.714-.171-1.193-.47a2.2 2.2 0 0 1-.754-.761 7 7 0 0 1-.422-.82 5.6 5.6 0 0 1-.274-.951 8 8 0 0 0-.212-.835q-2.886-9.11-3.66-18.336a2.6 2.6 0 0 0-.08-.582q-.08-.326-.14-.55a17 17 0 0 0-.16-.546 5 5 0 0 1-.144-.57q-3.301 1.858-4.48 3.045t-1.072 2.998q-1.21.17-1.69-.383-.483-.554.02-1.578 1.186-2.721 2.572-3.816 4.318-3.357 11.707-5.767 4.611-1.452 10.198-1.245m2.94 9.653q1.912-3.444 1.105-5.238t-4.377-2.186q-1.177-.132-2.693-.014t-2.327.24q-.811.12-2.758.465-.87.153-1.8.445-.93.291-2.153.741t-1.83.642q.513.973 1.322 2.533.81 1.56 1.091 2.191a21 21 0 0 1-1.254-.332 15 15 0 0 0-1.029-.265q-.267-.06-.488-.106l2.343 13.291a562 562 0 0 1 3.287-1.941q4.03-2.328 6.891-4.748a20.1 20.1 0 0 0 4.67-5.718m23.328 10.74a1.2 1.2 0 0 0 .326.155.5.5 0 0 1 .139.061l-.309 1.033q-.201.675-.387 1.196a3.8 3.8 0 0 1-.458.911q-3.091 4.503-6.66 5.813-1.564.574-3.352-.239a5.33 5.33 0 0 1-2.653-2.575q-.26-.507-.862-1.38t-.777-1.14q-.492-.85-.453-1.111l.508-2.814q.356-1.977.546-3.075t.543-2.734q.351-1.637.713-2.978 1.072-3.849 4.453-4.53 1.69-.341 2.72.414t1.162 2.476a9.4 9.4 0 0 1-.332 3.08q-.428 1.566-1.037 2.716a34 34 0 0 1-1.583 2.641q-.429.714-1.743 2.222t-1.79 2.444q-.326.568-.152 1.559.175.99.581 1.6.302.5 1.187.918.885.42 1.326.256 2.3-1.002 4.756-3.052.59-.53 1.186-1.145.595-.616 1.32-1.467t1.082-1.255m-10.369-9.407q-.907 1.395-1.378 3.2-.472 1.808-.526 3.073t-.068 3.608q3.994-3.981 5.206-9.217.073-.311.035-.772a6 6 0 0 0-.125-.83q-.087-.368-.166-.821a9 9 0 0 0-.676.161q-.47.126-.814.229-.345.103-.654.286a.8.8 0 0 0-.299.244 4 4 0 0 0-.32.482q-.18.308-.215.357m38.775-9.646q1.03.754 1.163 2.476a9.4 9.4 0 0 1-.332 3.08q-.43 1.566-1.037 2.715a34 34 0 0 1-1.584 2.642q-.429.714-1.743 2.222t-1.79 2.444q-.326.568-.151 1.559.174.99.58 1.6.303.5 1.187.918t1.326.256q2.3-1.002 4.757-3.052.59-.53 1.185-1.145t1.321-1.468q.726-.85 1.081-1.254a1.2 1.2 0 0 0 .327.155.5.5 0 0 1 .138.06l-.082.275-.227.76q-.201.673-.386 1.195a3.8 3.8 0 0 1-.459.91q-3.09 4.504-6.66 5.814-1.565.574-3.351-.239a5.33 5.33 0 0 1-2.653-2.575q-.26-.507-.863-1.38-.601-.873-.777-1.14-.491-.85-.452-1.112l.507-2.813q.356-1.978.547-3.075.19-1.098.542-2.735t.713-2.977q1.073-3.849 4.453-4.53 1.69-.341 2.72.414m-11.442-.238a16 16 0 0 0-2.276 2.827q-.968 1.532-1.516 2.906-.548 1.373-.984 3.259t-.628 3.217q-.192 1.333-.464 3.423a88 88 0 0 1-.482 3.32q-.024.345-.075.907-.05.561-.136 1.045-.085.484-.227.891-.168.498-.6.957t-.811.484q-.372.066-.953-.322-.58-.387-.695-.792-1.004-3.27-1.977-7.823-.323-1.347-.992-5.868-.162-1.164.102-2.083.266-.918 1.308-1.784l2.198 12.466q.049.033.194.008a.5.5 0 0 1 .235.001q.137-.918.468-2.912.331-1.995.64-3.518.307-1.522.718-2.829.853-2.661 3.51-7.216.557-.95 1.44-1.147.885-.199 2.003.583m10.014 2.064a9 9 0 0 0-.676.162q-.47.126-.814.229-.345.103-.654.285a.8.8 0 0 0-.298.244 4 4 0 0 0-.321.483q-.18.308-.215.357-.906 1.394-1.378 3.2-.471 1.808-.526 3.072-.054 1.265-.068 3.609 3.995-3.982 5.206-9.217.074-.311.035-.773a6 6 0 0 0-.125-.829q-.086-.368-.166-.822m26.413-17.765q1.443-.297 1.53 1.9.017 1.061.12 2.852.102 1.791.16 2.972.06 1.182.084 2.773a31 31 0 0 1-.081 2.93q-.273 5.964 2.077 14.444.05.289 1 4.463a.4.4 0 0 1-.179.074 1.4 1.4 0 0 0-.224.06q-.12.043-.203.058a7.7 7.7 0 0 1-1.897-2.645q-.676-1.54-1.236-3.74t-1.01-3.312q-.09.229-.272.644a137 137 0 0 1-1.26 2.541 44 44 0 0 1-1.2 2.149 15 15 0 0 1-1.59 2.238 12.6 12.6 0 0 1-1.852 1.73q-.975.769-1.693 1.172-.72.403-1.71.472-.992.067-2.012-.39-2.723-1.393-2.28-5.429 1.068-9.68 9.101-14.968a4 4 0 0 1 .996-.41 8 8 0 0 1 1.09-.235 9 9 0 0 0 1.01-.2q.09-8.697.159-10.241.036-.518.497-1.173.462-.656.875-.73m-4.634 26.99q1.841-2.877 2.842-5.31t.892-4.753q-.629-3.805-3.01-1.81-2.045 1.722-3.48 3.507-3.724 4.785-3.733 10.064-.023.6.288 1.269.31.669.74.933.375.189 1.072.024t1.101-.535q2.313-1.897 3.288-3.388m23.833-12.543q.26.507.476 2.214.148 1.08 1.039 8.797-1.082-.321-1.713-.996t-.772-1.354a92 92 0 0 0-.335-1.536q-.195-.86-.399-1.292-.402.625-1.325 2.17a88 88 0 0 0-1.57 2.724q-.645 1.177-1.223 2.259-.476.935-1.153 1.33-.678.397-1.462.067-.715-.428-1.359-1.293t-.587-1.513q.439-4.29 1.76-9.631.443-1.611 2.114-3.99.827-1.125 1.817-1.683t1.884-.332q.351.534 1.022 1.437.672.903 1.075 1.492.402.588.711 1.13m-7.086 11.634q.82-1.89 2.564-5.921t2.652-6.15q-.145-.101-1.57-1.638a16.2 16.2 0 0 0-2.72 4.183q-1.01 2.262-1.354 4.43t-.307 4.8q.09.026.735.296"/><path fill="#c8deea" d="M189.969 215.212c21.212-3.74 41.44 10.423 45.18 31.635s-10.424 41.44-31.636 45.18c-21.211 3.74-41.44-10.424-45.18-31.636-3.74-21.211 10.424-41.44 31.636-45.18m-2.657 5.35a34.4 34.4 0 0 0-16.759 10.876l8.323 5.829-4.474 6.39-8.184-5.731a34.4 34.4 0 0 0-3.74 18.494l9.617-1.695 1.355 7.681-9.5 1.675a34.4 34.4 0 0 0 9.912 15.414l5.48-7.826 6.389 4.474-5.512 7.873a34.4 34.4 0 0 0 18.673 4.264l-1.559-8.844 7.682-1.355 1.566 8.883a34.4 34.4 0 0 0 16.432-10.494l-7.872-5.512 4.473-6.39 7.826 5.48a34.4 34.4 0 0 0 4.042-17.875l-9.5 1.676-1.354-7.682 9.617-1.696a34.4 34.4 0 0 0-9.84-16.1l-5.73 8.184-6.39-4.474 5.828-8.324a34.4 34.4 0 0 0-19.112-4.51l1.559 8.843-7.682 1.355ZM486.396 162.944c21.212-3.74 41.44 10.423 45.18 31.635s-10.423 41.44-31.635 45.18-41.44-10.424-45.18-31.636 10.423-41.44 31.635-45.18m-2.657 5.35a34.4 34.4 0 0 0-16.759 10.876l8.323 5.829-4.474 6.39-8.184-5.731a34.4 34.4 0 0 0-3.74 18.494l9.617-1.695 1.355 7.681-9.5 1.675a34.4 34.4 0 0 0 9.912 15.414l5.48-7.826 6.389 4.474-5.512 7.872a34.4 34.4 0 0 0 18.673 4.265l-1.559-8.844 7.682-1.355 1.566 8.883a34.4 34.4 0 0 0 16.432-10.494l-7.872-5.513 4.474-6.389 7.825 5.48a34.4 34.4 0 0 0 4.042-17.875l-9.5 1.676-1.354-7.682 9.617-1.696a34.4 34.4 0 0 0-9.84-16.1l-5.73 8.184-6.39-4.474 5.828-8.324a34.4 34.4 0 0 0-19.112-4.51l1.56 8.843-7.682 1.354Z"/><path fill="#000" d="m937.815 287.533 274.761 48.448-19.448 110.299-274.762-48.448c-30.458-5.37-50.795-34.416-45.425-64.874s34.416-50.795 64.874-45.425"/><path fill="#372d33" d="M1237.685 219.573c9.511 1.677 15.862 10.746 14.185 20.257l-63.463 359.912c-1.677 9.51-10.746 15.861-20.257 14.184L572.315 508.864c-9.511-1.677-15.862-10.746-14.185-20.257l63.463-359.912c1.677-9.51 10.746-15.861 20.257-14.184zm-520.682 274.32c-6.087-1.073-11.891 2.991-12.964 9.078s2.99 11.891 9.078 12.965c6.086 1.073 11.89-2.992 12.964-9.078 1.073-6.087-2.99-11.892-9.078-12.965m325.471 57.39c-6.087-1.074-11.891 2.99-12.964 9.077s2.99 11.892 9.077 12.965 11.892-2.991 12.965-9.078-2.991-11.891-9.078-12.965M800.45 485.878c-6.086-1.073-11.89 2.991-12.964 9.078s2.99 11.891 9.078 12.965 11.891-2.991 12.964-9.078-2.99-11.892-9.078-12.965m166.352 29.332c-6.087-1.073-11.891 2.991-12.964 9.078s2.99 11.892 9.078 12.965c6.086 1.073 11.89-2.991 12.964-9.078s-2.99-11.891-9.078-12.965m36.316-205.959-171.862-30.304-15.79 89.548L987.328 398.8zM767.44 278.349c-19.022-3.354-37.16 9.347-40.515 28.369-3.354 19.021 9.347 37.16 28.369 40.514s37.16-9.347 40.514-28.369-9.347-37.16-28.368-40.514m295.851 52.167c-19.021-3.354-37.16 9.347-40.514 28.368s9.347 37.16 28.368 40.514 37.16-9.347 40.514-28.368-9.347-37.16-28.368-40.514"/><path fill="#453840" d="M1087.319 486.035a6.995 6.995 0 0 1 5.778 7.024l-1.936 99.093a6.995 6.995 0 0 1-8.208 6.752L665.09 525.223a6.995 6.995 0 0 1-5.404-9.152l32.072-93.779a6.995 6.995 0 0 1 7.833-4.624zm-370.316 7.858c-6.087-1.073-11.891 2.991-12.964 9.078s2.99 11.891 9.078 12.965c6.086 1.073 11.89-2.992 12.964-9.078 1.073-6.087-2.99-11.892-9.078-12.965m325.471 57.39c-6.087-1.074-11.891 2.99-12.964 9.077s2.99 11.892 9.077 12.965 11.892-2.991 12.965-9.078-2.991-11.891-9.078-12.965M800.45 485.878c-6.086-1.073-11.89 2.991-12.964 9.078s2.99 11.891 9.078 12.965 11.891-2.991 12.964-9.078-2.99-11.892-9.078-12.965m166.352 29.332c-6.087-1.073-11.891 2.991-12.964 9.078s2.99 11.892 9.078 12.965c6.086 1.073 11.89-2.991 12.964-9.078s-2.99-11.891-9.078-12.965"/><path fill="#292126" d="M1214.229 253.08a6.995 6.995 0 0 1 5.673 8.102l-47.618 270.056a6.995 6.995 0 0 1-8.067 5.68l-53.29-9.114a6.995 6.995 0 0 1-5.715-8.074l6.139-34.814a6.995 6.995 0 0 0-5.674-8.103l-491.134-86.6a6.995 6.995 0 0 1-5.673-8.103l39.104-221.774a6.995 6.995 0 0 1 8.103-5.674zm-211.112 56.172-171.862-30.304-15.79 89.548L987.328 398.8zM767.44 278.349c-19.022-3.354-37.16 9.347-40.515 28.369-3.354 19.021 9.347 37.16 28.369 40.514s37.16-9.347 40.514-28.369-9.347-37.16-28.368-40.514m295.851 52.167c-19.021-3.354-37.16 9.347-40.514 28.368s9.347 37.16 28.368 40.514 37.16-9.347 40.514-28.368-9.347-37.16-28.368-40.514"/><path fill="#d6c3a8" d="m663.454 171.233 533.841 94.131a3.497 3.497 0 0 1 2.837 4.051l-9.717 55.107a3.497 3.497 0 0 1-4.051 2.836l-533.841-94.13a3.497 3.497 0 0 1-2.837-4.052l9.716-55.106a3.497 3.497 0 0 1 4.052-2.837m-31.519 178.751 533.842 94.13a3.497 3.497 0 0 1 2.836 4.052l-3.947 22.387a3.497 3.497 0 0 1-4.051 2.837l-533.842-94.13a3.497 3.497 0 0 1-2.836-4.052l3.947-22.387a3.497 3.497 0 0 1 4.051-2.837"/><path fill="#453840" d="m1188.593 334.854-18.219 103.324-540.729-95.345 18.219-103.324zm-185.476-25.602-171.862-30.304-15.79 89.548L987.328 398.8zM767.44 278.349c-19.022-3.354-37.16 9.347-40.515 28.369-3.354 19.021 9.347 37.16 28.369 40.514s37.16-9.347 40.514-28.369-9.347-37.16-28.368-40.514m295.851 52.167c-19.021-3.354-37.16 9.347-40.514 28.368s9.347 37.16 28.368 40.514 37.16-9.347 40.514-28.368-9.347-37.16-28.368-40.514"/><g transform="rotate(10 -688.288 7090.002)"><circle cx="11.191" cy="11.191" r="11.191" fill="#1b1619"/><path fill="#453840" fill-rule="nonzero" d="M16.62 10.909q1.043.28.763 1.322l-.21.782q-.28 1.043-1.322.763l-3.461-.927-.933 3.483q-.273 1.018-1.316.739l-1.09-.292q-1.043-.28-.765-1.322l.927-3.46-3.437-.92q-1.043-.28-.764-1.323l.21-.782q.28-1.042 1.322-.763l3.438.921.914-3.412q.28-1.042 1.322-.763l1.114.299q1.043.28.764 1.322l-.914 3.412z"/></g><g transform="rotate(10 -389.272 3672.23)"><circle cx="11.191" cy="11.191" r="11.191" fill="#1b1619"/><path fill="#453840" fill-rule="nonzero" d="M16.62 10.909q1.043.28.763 1.322l-.21.782q-.28 1.043-1.322.763l-3.461-.927-.933 3.483q-.273 1.018-1.316.739l-1.09-.292q-1.043-.28-.765-1.322l.927-3.46-3.437-.92q-1.043-.28-.764-1.323l.21-.782q.28-1.042 1.322-.763l3.438.921.914-3.412q.28-1.042 1.322-.763l1.114.299q1.043.28.764 1.322l-.914 3.412z"/></g><g transform="rotate(10 -2726.96 6911.642)"><circle cx="11.191" cy="11.191" r="11.191" fill="#1b1619"/><path fill="#453840" fill-rule="nonzero" d="M16.62 10.909q1.043.28.763 1.322l-.21.782q-.28 1.043-1.322.763l-3.461-.927-.933 3.483q-.273 1.018-1.316.739l-1.09-.292q-1.043-.28-.765-1.322l.927-3.46-3.437-.92q-1.043-.28-.764-1.323l.21-.782q.28-1.042 1.322-.763l3.438.921.914-3.412q.28-1.042 1.322-.763l1.114.299q1.043.28.764 1.322l-.914 3.412z"/></g><g transform="rotate(10 -2212.04 5238.752)"><circle cx="11.191" cy="11.191" r="11.191" fill="#1b1619"/><path fill="#453840" fill-rule="nonzero" d="M16.62 10.909q1.043.28.763 1.322l-.21.782q-.28 1.043-1.322.763l-3.461-.927-.933 3.483q-.273 1.018-1.316.739l-1.09-.292q-1.043-.28-.765-1.322l.927-3.46-3.437-.92q-1.043-.28-.764-1.323l.21-.782q.28-1.042 1.322-.763l3.438.921.914-3.412q.28-1.042 1.322-.763l1.114.299q1.043.28.764 1.322l-.914 3.412z"/></g><g transform="rotate(10 -2427.943 3493.869)"><circle cx="11.191" cy="11.191" r="11.191" fill="#1b1619"/><path fill="#453840" fill-rule="nonzero" d="M16.62 10.909q1.043.28.763 1.322l-.21.782q-.28 1.043-1.322.763l-3.461-.927-.933 3.483q-.273 1.018-1.316.739l-1.09-.292q-1.043-.28-.765-1.322l.927-3.46-3.437-.92q-1.043-.28-.764-1.323l.21-.782q.28-1.042 1.322-.763l3.438.921.914-3.412q.28-1.042 1.322-.763l1.114.299q1.043.28.764 1.322l-.914 3.412z"/></g><path fill="#5ea085" d="m1110.067 321.008 79.215 13.967-3.644 20.666-79.215-13.968z"/><path fill="#91bda0" d="m1106.423 341.673 79.215 13.968-3.644 20.665-79.215-13.968z"/><path fill="#efc675" d="m1102.78 362.337 79.215 13.968-3.644 20.665-79.215-13.968z"/><path fill="#292126" d="m1099.136 383.002 79.215 13.968-3.644 20.665-79.215-13.968z"/><path fill="#eb5b3d" d="m1095.492 403.666 79.215 13.968-3.644 20.665-79.215-13.967z"/><path fill="#5ea085" d="m647.864 239.509 79.215 13.968-3.644 20.665-79.215-13.968z"/><path fill="#91bda0" d="m644.22 260.174 79.215 13.968-3.644 20.665-79.215-13.968z"/><path fill="#efc675" d="m640.576 280.838 79.215 13.968-3.643 20.665-79.215-13.968z"/><path fill="#292126" d="m636.933 301.503 79.215 13.968-3.644 20.665-79.215-13.967z"/><path fill="#eb5b3d" d="m633.289 322.168 79.215 13.967-3.644 20.666-79.215-13.968z"/><path fill="#292126" d="m711.693 189.683-7.59 43.051-43.052-7.59 7.59-43.052zm-21.71 5.76-11.709-2.065-4.25 24.106 10.924 1.926q1.849.327 3.484.278t2.953-.728a6.8 6.8 0 0 0 2.052-1.594q1.38-1.51 1.757-3.653.366-2.076-.318-3.698t-2.413-2.618q1.319-.408 2.074-1.05 1.349-1.146 1.737-3.353.378-2.143-.463-3.876-1.407-2.828-5.827-3.675m-3.278 13.334q1.567.292 2.365.838 1.43.977 1.098 2.858-.391 2.225-2.133 2.726-.958.27-2.545-.01l-5.92-1.044 1.134-6.427Zm.938-9.43q1.75.308 2.812.884 1.213.77.916 2.455-.268 1.522-1.353 1.936-1.104.429-2.69.15l-5.92-1.044.936-5.315Z"/><path fill="#1b1619" fill-rule="nonzero" d="M710.961 386.538a10.6 10.6 0 0 1-2.235-.641 6 6 0 0 1-1.772-1.105 3.96 3.96 0 0 1-1.063-1.568q-.326-.892-.122-2.05l.037-.21a.6.6 0 0 1 .05-.166l2.956.521a.5.5 0 0 0-.048.156l-.032.18q-.113.639.16 1.14.272.502.912.841t1.54.498q.58.102 1.04.112.463.009.835-.06.373-.067.634-.207t.413-.36a1.3 1.3 0 0 0 .205-.52q.096-.538-.194-.94t-.857-.748a13 13 0 0 0-1.29-.681l-1.487-.684a13 13 0 0 1-1.466-.794 6.4 6.4 0 0 1-1.226-.99 3.3 3.3 0 0 1-.762-1.287q-.24-.742-.07-1.701.178-1.02.739-1.682a3.5 3.5 0 0 1 1.423-1.006 6 6 0 0 1 1.923-.392q1.06-.05 2.258.161a9.6 9.6 0 0 1 2.077.603q.958.405 1.63 1.04.67.633.966 1.468.295.834.112 1.873l-.042.24-2.897-.51.029-.16a1.4 1.4 0 0 0-.158-.976q-.252-.435-.793-.758-.54-.321-1.32-.459-.84-.149-1.456-.092-.619.055-.982.31-.365.256-.438.675-.085.48.21.851.295.372.864.709.57.336 1.296.65t1.488.675q.76.36 1.466.794.707.433 1.227.988.519.555.763 1.278t.081 1.642q-.277 1.578-1.206 2.403t-2.324 1.032-3.094-.093m13.644 2.406q-1.779-.313-2.99-1.032-1.213-.718-1.757-1.72t-.33-2.221q.244-1.38 1.127-2.067.885-.69 2.099-.804l.014-.08q-.924-.596-1.45-1.41-.526-.813-.315-2.012.21-1.198 1.04-1.927.828-.73 2.167-.957 1.337-.228 3.035.072 1.658.292 2.814.98 1.155.687 1.685 1.656t.332 2.088l-.088.5-2.676-.473.056-.32q.106-.599-.155-1.046t-.835-.755q-.575-.307-1.473-.466a4.7 4.7 0 0 0-1.213-.07 2.7 2.7 0 0 0-.948.235q-.393.187-.639.526a1.9 1.9 0 0 0-.326.797q-.102.58.126 1.042t.681.748q.455.285 1.034.388l1.498.265-.37 2.097-1.558-.275a4.2 4.2 0 0 0-1.218-.04q-.6.07-1.002.421-.401.352-.535 1.11-.123.7.137 1.21.26.509.879.855.618.345 1.577.515 1.02.18 1.712.044.694-.135 1.078-.562.384-.426.497-1.066l.7-3.975 4.715.831-.37 2.098-2.017-.356-.317 1.798q-.233 1.318-1.025 2.188t-2.145 1.187-3.251-.017m9.89 1.497 2.416-13.704 2.737.483 4.21 8.363q.095.161.231.442.135.282.253.55.118.267.153.418l.1.018.118-.67.104-.589 1.303-7.391 2.817.497-2.416 13.703-2.737-.482-4.298-8.565a17 17 0 0 1-.539-1.269l-.1-.017-.104.59-.096.549-1.335 7.57zM1069 449.67q-1.518-.269-2.428-1.006a3.67 3.67 0 0 1-1.237-1.804q-.327-1.067-.102-2.345l2.717.479q-.123.699-.012 1.234a1.5 1.5 0 0 0 .488.858q.375.324 1.014.436.94.165 1.505-.239.565-.405.903-1.324.336-.918.59-2.234-.216.168-.675.376a4.3 4.3 0 0 1-1.105.31q-.645.102-1.385-.028-1.418-.25-2.279-.979a3.63 3.63 0 0 1-1.17-1.833q-.309-1.105-.084-2.384.254-1.438 1.053-2.348a4.2 4.2 0 0 1 1.994-1.265q1.195-.355 2.614-.105 1.258.222 2.176.744a3.9 3.9 0 0 1 1.449 1.419q.531.897.654 2.247.122 1.35-.205 3.208-.37 2.097-.963 3.476-.594 1.378-1.396 2.133a3.8 3.8 0 0 1-1.84.973q-1.038.219-2.276 0m1.271-7.212q.739.13 1.284-.093a1.85 1.85 0 0 0 .87-.732 3.3 3.3 0 0 0 .45-1.208q.127-.72-.008-1.3a1.86 1.86 0 0 0-.57-.975q-.434-.397-1.173-.526-.72-.127-1.255.108t-.87.732-.459 1.196q-.126.72.018 1.301.145.582.57.976t1.143.52m10.794 9.339q-1.238-.219-2.112-.754a3.65 3.65 0 0 1-1.357-1.475q-.483-.94-.553-2.353t.279-3.39q.352-1.998.9-3.292.546-1.293 1.324-2.022a3.55 3.55 0 0 1 1.78-.922q1.002-.193 2.24.025 1.26.221 2.114.743.855.522 1.337 1.472.48.95.553 2.353.072 1.402-.28 3.4-.35 1.978-.898 3.282-.55 1.304-1.325 2.021a3.67 3.67 0 0 1-1.759.926q-.984.208-2.243-.014m.38-2.158q.88.156 1.422-.233.543-.39.891-1.316.349-.927.603-2.365l.218-1.239q.257-1.458.248-2.458-.009-1.002-.384-1.561-.375-.561-1.254-.716t-1.433.242-.9 1.314-.605 2.375l-.218 1.239q-.257 1.458-.248 2.458t.395 1.553 1.266.707M753.66 211.008q3.017 1.298 3.908 3.626.892 2.328-.302 5.224a16.5 16.5 0 0 1-2.232 3.82 15.7 15.7 0 0 1-3.112 3.004 28 28 0 0 1-3.528 2.209 44 44 0 0 1-4.06 1.837q-4.918 1.984-9.927.846a5.6 5.6 0 0 1-.94-.357q-.492-.236-1.087-.618a8 8 0 0 0-.91-.522q.069-.157.252-.466 6.226.289 6.267.296 2.418.086 4.672-.708t4.956-2.318q2.883-1.578 6.618-5.813.74-.806 1.197-2.066t.488-2.403q.012-2.254-1.195-3.275t-3.972-1.084a9.6 9.6 0 0 0-2.161.151 43 43 0 0 0-2.663.573 73 73 0 0 1-2.182.51 4 4 0 0 0-.696.196q-.434.157-.794.264-.36.106-.699.09a3 3 0 0 1-.563-.078 5 5 0 0 1-.578-.23 15 15 0 0 0-.596-.254q.07-.158.185-.563t.227-.684q.113-.277.267-.42 1.362-.952 4.228-2.915 2.864-1.965 4.292-3.031 1.816-1.34 2.964-3.01.288-.417.316-1.306.028-.89-.205-1.015-.834-.36-3.196-.521-.214.005-.436.05-.222.047-.537.14t-.447.113q-4.772 1.159-6.068 1.483-.27.08-.421.692-.505 2.38-1.45 6.767a803 803 0 0 1-1.34 6.147q-1.317 6.024-2.24 10.288-.286 1.14-1.005 1.823a40 40 0 0 1 .109-4.854q.205-2.496.673-5.031t.906-4.65 1.087-4.957q.65-2.844 1.027-4.735-.426-.246-.692-.313-.266-.069-.695.068a2.7 2.7 0 0 0-.799.413q-.368.275-1.118 1.016-.75.74-1.517 1.583-.769.844-2.15 2.388-1.046-.61-1.076-1.53-.03-.921.79-1.457 1.087-.83 3.286-2.166t2.923-1.804q.479-.299 1.174-1.091.694-.792.953-1.045.39-.271.848-.574.459-.301.576-.239.707.592 1.51.756.804.163 1.428.018t1.541-.388 1.478-.272q2.733-.24 4.808.337 1.22.343 1.765 1.375.543 1.033.267 2.24-.277 1.206-1.246 2.1-1.17 1.07-3.459 3.028-2.288 1.959-2.546 2.211-.04-.008-1.136 1.12 4.526-1.459 7.99-.039m40.754 11.506q.352.423 1.381 2.818a4 4 0 0 0-.483-.043 4 4 0 0 1-.422-.031.7.7 0 0 1-.22-.082q-.264-.683-.602-1.064-.339-.379-.594-.508-.255-.13-.73.02-.474.15-.682.241-.209.09-.72.448l-.23.16-.095.067-.283.198a15.6 15.6 0 0 0-4.364 4.167q-1.764 2.498-3.26 5.894 1.7.045 2.728-.455 1.027-.5 3.902-2.76.445-.346.984-.613.537-.267 1.273-.563l1.103-.444q.059.393.345 1.189.287.795.413 1.413.125.619.08 1.12-.298 2.417-.458 3.686a49 49 0 0 1-.554 3.265 36 36 0 0 1-.893 3.609q-.94 3.153-4.498 5.293-3.558 2.139-7.075 1.987-5.3-.212-9.414-4.001a5 5 0 0 1-.76-.9q-.354-.53-.734-1.279a21 21 0 0 0-.578-1.08l.76-.675q.115.063.333.165l.136.064.218.105q.138.067.31.182t.274.261q2.197 2.559 5.314 3.64 3.12 1.082 6.137.55 3.019-.532 5.06-2.427a9.7 9.7 0 0 0 2.343-3.354q.809-1.92 1.293-4.432.124-.702.197-1.476.072-.774.14-1.763.067-.988.064-1.457a1 1 0 0 1-.164-.156 3 3 0 0 0-.199-.206 1.4 1.4 0 0 1-.178-.201q-.25.211-.766.716-.516.504-.941.855t-.814.623q-2.954 1.735-4.811 2.343-1.531.454-2.41-.382-.876-.836-.724-2.426a8.8 8.8 0 0 1 .416-1.757q.306-.882.576-1.451.272-.57.905-1.5.634-.932.907-1.266.149-.183.474-.575l.236-.285.429-.514q.866-1.039 1.034-1.265 1.732-2.077 3.205-2.925a9.6 9.6 0 0 1 4.303-1.156q1.03-.03 1.383.393m-19.485-5.968q.71 1.06.245 2.724a9.4 9.4 0 0 1-1.365 2.781q-.939 1.324-1.903 2.197a34 34 0 0 1-2.392 1.94q-.647.525-2.398 1.492-1.75.968-2.517 1.685-.501.422-.676 1.413-.175.99-.001 1.702.113.573.8 1.269.69.696 1.16.693 2.503-.154 5.512-1.24.736-.297 1.506-.671a32 32 0 0 0 1.743-.927q.973-.552 1.445-.81a1.2 1.2 0 0 0 .254.258.5.5 0 0 1 .11.105l-.644.865q-.42.564-.773.992a3.8 3.8 0 0 1-.742.699q-4.444 3.174-8.247 3.184-1.665.004-3.067-1.37a5.33 5.33 0 0 1-1.612-3.328q-.071-.565-.339-1.591a77 77 0 0 1-.34-1.337q-.173-.967-.045-1.2l1.439-2.47a565 565 0 0 0 1.565-2.703q.555-.966 1.445-2.384a60 60 0 0 1 1.689-2.554q2.324-3.25 5.733-2.734 1.705.258 2.415 1.32m-1.967 1.228a9 9 0 0 0-.69-.08q-.485-.043-.843-.063a3 3 0 0 0-.713.045.8.8 0 0 0-.364.127 4 4 0 0 0-.466.343q-.274.228-.324.262-1.329 1-2.39 2.537-1.06 1.536-1.544 2.707-.485 1.17-1.299 3.367 5.115-2.375 8.045-6.88.175-.269.297-.714a6 6 0 0 0 .166-.822q.045-.375.125-.83m35.883 7.646q.93 6.59-2.849 11.797a7 7 0 0 0-.48.66q-.318.476-.51.72-.192.242-.49.594-.296.351-.6.617-.302.267-.594.47-.773.503-1.839.74t-1.651-.078q-.502-.302-.768-1.455-.267-1.155.03-1.867.247-.68.573-1.432.324-.75.623-1.358l.697-1.41q.398-.801.686-1.347l.738-1.402q.45-.856.703-1.323.845-1.638 1.652-2.347 1.086-.83 1.04-1.54-.045-.71-1.624-1.202 1.622-1.204 3.008-.831 1.385.372 1.655 1.994m-7.042 13.058q2.088-1.675 3.156-3.976t1.801-5.492a12 12 0 0 0-.313-.161q-.195-.099-.313-.162-1.146 2.139-4.991 9.42.316.14.66.371m15.373-3.886q2.356-4.649 2.602-5.074 1.425-2.514 2.5-3.517.952-.81 1.548-.43.594.382.612 1.492.138 2.365-.217 5.835-.184 2.01-.832 4.96-.037.207-.139.423-.101.216-.218.387-.115.17-.262.4a7 7 0 0 1-.26.38l-.91-.16q.353-6.364.534-9.567a.5.5 0 0 1-.138-.067.5.5 0 0 0-.18-.074q-3.783 8.866-5.47 12.867l-.055.31q-.04.226-.137.294-.307.287-2.089 1.675l-.404-.731a7 7 0 0 1-.421-.883 1.8 1.8 0 0 1-.129-.725q.118-3.085.754-5.485.687-2.687 2.838-9.075.178-.522 1.132-2.056.006-.042.169.009.162.049.337.144t.285.2q.576.612.532 1.22-.044.61-.45 1.347-.408.736-.474 1.108-.053.545-.252 1.19-.2.646-.39 1.123l-.46 1.153q-.269.676-.431 1.116.082.015.24.085.159.07.235.126m24.752.066q.07.566-.31 2.244-.23 1.065-2.033 8.621-.906-.67-1.269-1.521-.362-.852-.262-1.536.099-.685.21-1.56.112-.873.068-1.35-.592.45-1.988 1.587a88 88 0 0 0-2.406 2.023q-1.01.885-1.923 1.703-.766.716-1.538.857t-1.396-.438q-.527-.645-.836-1.68-.309-1.033-.034-1.622 1.88-3.882 4.948-8.448.966-1.362 3.352-3.027 1.161-.774 2.283-.96 1.12-.185 1.884.333.146.621.469 1.7.32 1.078.499 1.769.177.69.282 1.305m-10.637 8.509 4.434-4.687q3.017-3.192 4.595-4.871-.102-.147-.915-2.077a16.2 16.2 0 0 0-3.987 3q-1.723 1.78-2.788 3.7-1.063 1.92-1.93 4.405.077.056.59.53m58.024-17.432q2.582 1.093 3.682 2.968t.632 3.921-2.266 3.771q-4.379 4.25-12.166 6.282-1.212.34-2.614.539a67 67 0 0 1-3.311.374q-1.909.174-2.879.343l-1.339 7.595q-.61-.406-.96-.85a2.2 2.2 0 0 1-.447-.973 7 7 0 0 1-.117-.914 5.6 5.6 0 0 1 .068-.988q.084-.603.087-.857.402-9.548 2.832-18.482.084-.24.122-.575.037-.333.057-.564a17 17 0 0 0 .036-.568q.018-.337.06-.585-3.737.616-5.25 1.33-1.514.71-2.034 2.45-1.193-.254-1.457-.938-.264-.685.56-1.476 2.043-2.151 3.721-2.706 5.206-1.678 12.973-1.415 4.83.212 10.01 2.318m-.539 10.076q2.974-2.582 2.83-4.544-.146-1.962-3.367-3.551-1.06-.528-2.525-.935a35 35 0 0 0-2.269-.57q-.803-.164-2.75-.506a14 14 0 0 0-1.844-.198q-.973-.045-2.277-.04a47 47 0 0 1-1.938-.022q.15 1.09.375 2.832.226 1.743.276 2.432a21 21 0 0 1-1.065-.74 15 15 0 0 0-.876-.602l-.423-.266-2.343 13.29a562 562 0 0 1 3.753-.7q4.583-.809 8.099-2.104a20.1 20.1 0 0 0 6.344-3.776m18.247 18.071a1.2 1.2 0 0 0 .254.257.5.5 0 0 1 .11.105l-.644.865q-.42.565-.773.992a3.8 3.8 0 0 1-.742.699q-4.445 3.174-8.247 3.185-1.666.004-3.067-1.371a5.33 5.33 0 0 1-1.613-3.327q-.07-.566-.338-1.592a77 77 0 0 1-.34-1.337q-.173-.966-.045-1.2l1.439-2.47a565 565 0 0 0 1.565-2.703q.554-.966 1.445-2.383a60 60 0 0 1 1.689-2.554q2.323-3.251 5.733-2.734 1.705.257 2.415 1.32.71 1.06.245 2.724a9.4 9.4 0 0 1-1.365 2.78q-.939 1.324-1.903 2.197a34 34 0 0 1-2.392 1.94q-.647.524-2.398 1.493-1.75.968-2.517 1.684-.501.422-.676 1.413-.175.99-.001 1.702.112.573.8 1.27.69.695 1.16.693 2.503-.155 5.512-1.241.735-.296 1.506-.671a32 32 0 0 0 1.743-.927q.973-.552 1.445-.809m-6.526-12.386q-1.329 1-2.39 2.536-1.06 1.537-1.544 2.707t-1.299 3.367q5.115-2.375 8.045-6.88.175-.267.297-.714a6 6 0 0 0 .166-.822q.044-.375.125-.83a9 9 0 0 0-.69-.078q-.485-.043-.843-.064a3 3 0 0 0-.713.045.8.8 0 0 0-.364.127 4 4 0 0 0-.466.344q-.274.228-.324.262m39.736 4.197q.71 1.062.246 2.725a9.4 9.4 0 0 1-1.366 2.78q-.938 1.326-1.903 2.197a34 34 0 0 1-2.392 1.94q-.646.525-2.398 1.493-1.75.969-2.517 1.684-.501.423-.676 1.413-.174.99-.001 1.702.113.573.8 1.27.69.695 1.16.693 2.503-.155 5.513-1.24.735-.297 1.506-.672a32 32 0 0 0 1.743-.927q.972-.551 1.445-.809a1.2 1.2 0 0 0 .253.258.5.5 0 0 1 .11.104l-.171.23-.473.636q-.42.564-.772.991a3.8 3.8 0 0 1-.743.7q-4.445 3.173-8.247 3.184-1.666.004-3.067-1.37a5.33 5.33 0 0 1-1.612-3.328q-.07-.566-.339-1.592a77 77 0 0 1-.34-1.337q-.172-.966-.045-1.2.428-.732 1.439-2.47a565 565 0 0 0 1.565-2.702q.555-.968 1.445-2.384a60 60 0 0 1 1.689-2.554q2.323-3.25 5.734-2.734 1.704.258 2.414 1.32m-10.67-4.137a16 16 0 0 0-3.107 1.878q-1.433 1.11-2.418 2.213-.984 1.103-2.039 2.726a40 40 0 0 0-1.69 2.808q-.637 1.185-1.607 3.058a88 88 0 0 1-1.589 2.954q-.14.315-.38.827-.24.51-.485.936a6 6 0 0 1-.519.76 2.65 2.65 0 0 1-.89.694q-.563.284-.928.177-.373-.067-.786-.628-.414-.563-.382-.983.176-3.416.818-8.027.157-1.377 1.074-5.854.245-1.148.809-1.921.563-.773 1.84-1.23l-2.199 12.466q.035.048.18.074.144.026.22.081.443-.814 1.436-2.577a104 104 0 0 1 1.804-3.086 28 28 0 0 1 1.642-2.413q1.713-2.21 5.766-5.58.85-.702 1.747-.586.899.115 1.683 1.233m8.703 5.365a9 9 0 0 0-.69-.079q-.485-.042-.843-.064a3 3 0 0 0-.712.045.8.8 0 0 0-.364.127 4 4 0 0 0-.467.344q-.274.228-.323.262-1.33 1-2.39 2.536t-1.545 2.707-1.298 3.367q5.115-2.374 8.044-6.88.175-.267.297-.714a6 6 0 0 0 .166-.822q.045-.375.125-.829m30.897-7.66q1.456.214.788 2.31-.348 1.002-.864 2.72a423 423 0 0 1-.865 2.848 82 82 0 0 1-.87 2.634 31 31 0 0 1-1.078 2.725q-2.295 5.51-2.989 14.284-.05.288-.586 4.535a.4.4 0 0 1-.194.009 1.4 1.4 0 0 0-.23-.02q-.128 0-.212-.016a7.7 7.7 0 0 1-.877-3.134q-.11-1.679.118-3.937t.182-3.457q-.16.184-.474.512-1.34 1.296-2.053 1.957-.715.661-1.864 1.608-1.149.946-2.26 1.56-1.11.612-2.331.993-1.179.388-1.992.52-.813.134-1.768-.14-.956-.276-1.757-1.055-2.082-2.24-.287-5.881 4.315-8.73 13.673-10.953a4 4 0 0 1 1.075-.045q.633.048 1.105.153t1.018.158q3.058-8.144 3.652-9.57.21-.474.868-.932.658-.46 1.072-.386m-13.586 23.778q2.714-2.075 4.487-4.018t2.463-4.162q.711-3.79-2.208-2.73-2.511.92-4.47 2.106-5.138 3.222-6.95 8.18-.227.555-.164 1.29.062.735.377 1.13.286.307.999.39.711.082 1.217-.126 2.823-.992 4.249-2.06m26.686-3.636q.07.566-.31 2.243-.231 1.066-2.033 8.622-.906-.67-1.269-1.522-.362-.851-.263-1.536.1-.685.211-1.558.111-.875.067-1.35-.59.449-1.987 1.586a88 88 0 0 0-2.406 2.022q-1.011.886-1.923 1.704-.766.716-1.539.857-.772.14-1.396-.438-.526-.645-.835-1.68-.309-1.033-.034-1.623 1.88-3.88 4.948-8.448.966-1.36 3.352-3.026 1.161-.774 2.282-.96 1.122-.185 1.884.333.147.62.47 1.7.32 1.077.499 1.769.177.69.282 1.305m-10.638 8.509q1.417-1.496 4.435-4.687t4.595-4.872q-.104-.146-.915-2.076a16.2 16.2 0 0 0-3.988 3q-1.722 1.78-2.787 3.7t-1.93 4.405q.077.056.59.53"/><path fill="#c8deea" d="M767.62 273.77c21.211 3.74 35.375 23.968 31.634 45.18s-23.968 35.375-45.18 31.635c-21.211-3.74-35.375-23.968-31.635-45.18s23.968-35.375 45.18-31.635m-4.328 4.118a34.4 34.4 0 0 0-19.468 4.49l5.828 8.323-6.39 4.474-5.73-8.184a34.4 34.4 0 0 0-9.84 16.1l9.617 1.696-1.354 7.681-9.5-1.675a34.4 34.4 0 0 0 4.042 17.875l7.826-5.48 4.474 6.39-7.872 5.512a34.4 34.4 0 0 0 16.088 10.393l1.56-8.843 7.682 1.354-1.567 8.883a34.4 34.4 0 0 0 19.03-4.242l-5.511-7.872 6.389-4.474 5.48 7.826a34.4 34.4 0 0 0 9.911-15.414l-9.5-1.675 1.355-7.681 9.617 1.695a34.4 34.4 0 0 0-3.74-18.494l-8.184 5.73-4.474-6.39 8.323-5.828a34.4 34.4 0 0 0-16.417-10.776l-1.56 8.844-7.68-1.355ZM1064.046 326.038c21.212 3.74 35.376 23.968 31.635 45.18s-23.967 35.375-45.18 31.635c-21.211-3.74-35.375-23.968-31.635-45.18s23.968-35.375 45.18-31.635m-4.327 4.119a34.4 34.4 0 0 0-19.468 4.488l5.828 8.324-6.39 4.474-5.73-8.184a34.4 34.4 0 0 0-9.84 16.1l9.617 1.696-1.354 7.682-9.5-1.676a34.4 34.4 0 0 0 4.042 17.875l7.826-5.48 4.474 6.39-7.872 5.512a34.4 34.4 0 0 0 16.088 10.393l1.56-8.843 7.682 1.354-1.566 8.883a34.4 34.4 0 0 0 19.03-4.242l-5.512-7.872 6.389-4.474 5.48 7.826a34.4 34.4 0 0 0 9.911-15.414l-9.5-1.675 1.355-7.681 9.617 1.695a34.4 34.4 0 0 0-3.74-18.494l-8.183 5.73-4.474-6.39 8.322-5.828a34.4 34.4 0 0 0-16.416-10.776l-1.56 8.844-7.681-1.354Z"/><path fill="#000" d="m627.813 625.768 262.174 95.424-38.306 105.245-262.174-95.423c-29.063-10.578-44.048-42.713-33.47-71.776s42.713-44.048 71.776-33.47"/><path fill="#372d33" d="M934.929 610.912c9.075 3.303 13.754 13.338 10.451 22.413L820.384 976.749c-3.303 9.075-13.338 13.754-22.413 10.451L229.431 780.27c-9.074-3.304-13.753-13.338-10.45-22.413l124.996-343.424c3.303-9.075 13.337-13.754 22.412-10.451zM374.522 790.65c-5.808-2.114-12.23.88-14.344 6.688s.88 12.23 6.689 14.344c5.808 2.114 12.23-.88 14.344-6.689 2.114-5.808-.881-12.23-6.689-14.343m310.56 113.034c-5.807-2.114-12.23.881-14.343 6.69-2.114 5.807.88 12.23 6.688 14.343 5.808 2.114 12.23-.88 14.344-6.689 2.114-5.808-.88-12.23-6.688-14.344m-226.99-106.436c-5.808-2.114-12.23.88-14.344 6.688s.88 12.23 6.689 14.344c5.808 2.114 12.23-.88 14.344-6.688s-.88-12.23-6.689-14.344m158.731 57.773c-5.808-2.114-12.23.88-14.344 6.689-2.114 5.808.88 12.23 6.689 14.344 5.808 2.114 12.23-.881 14.344-6.69 2.114-5.807-.88-12.23-6.689-14.343m71.53-196.524-163.99-59.687-31.1 85.445 163.99 59.687zM461.62 587.138c-18.15-6.606-38.219 2.752-44.825 20.902s2.752 38.22 20.902 44.825 38.22-2.752 44.825-20.902-2.752-38.219-20.902-44.825m282.298 102.748c-18.15-6.606-38.219 2.752-44.825 20.903-6.606 18.15 2.752 38.218 20.902 44.824 18.15 6.607 38.22-2.752 44.825-20.902s-2.752-38.219-20.902-44.825"/><path fill="#453840" d="M740.576 847.215a6.995 6.995 0 0 1 4.471 7.922l-19.114 97.25a6.995 6.995 0 0 1-9.255 5.225L317.956 812.489a6.995 6.995 0 0 1-3.733-9.951l47.87-86.785a6.995 6.995 0 0 1 8.517-3.195zM374.522 790.65c-5.808-2.114-12.23.88-14.344 6.688s.88 12.23 6.689 14.344c5.808 2.114 12.23-.88 14.344-6.689 2.114-5.808-.881-12.23-6.689-14.343m310.56 113.034c-5.807-2.114-12.23.881-14.343 6.69-2.114 5.807.88 12.23 6.688 14.343 5.808 2.114 12.23-.88 14.344-6.689 2.114-5.808-.88-12.23-6.688-14.344m-226.99-106.436c-5.808-2.114-12.23.88-14.344 6.688s.88 12.23 6.689 14.344c5.808 2.114 12.23-.88 14.344-6.688s-.88-12.23-6.689-14.344m158.731 57.773c-5.808-2.114-12.23.88-14.344 6.689-2.114 5.808.88 12.23 6.689 14.344 5.808 2.114 12.23-.881 14.344-6.69 2.114-5.807-.88-12.23-6.689-14.343"/><path fill="#292126" d="M906.01 639.837a6.995 6.995 0 0 1 4.18 8.965l-93.789 257.684a6.995 6.995 0 0 1-8.93 4.192l-50.898-18.229a6.995 6.995 0 0 1-4.226-8.943l12.09-33.22a6.995 6.995 0 0 0-4.18-8.965L291.623 670.752a6.995 6.995 0 0 1-4.18-8.965l77.02-211.614a6.995 6.995 0 0 1 8.965-4.18zm-217.658 18.66-163.99-59.687-31.099 85.445 163.99 59.687zM461.62 587.138c-18.15-6.606-38.219 2.752-44.825 20.902s2.752 38.22 20.902 44.825 38.22-2.752 44.825-20.902-2.752-38.219-20.902-44.825m282.298 102.748c-18.15-6.606-38.219 2.752-44.825 20.903-6.606 18.15 2.752 38.218 20.902 44.824 18.15 6.607 38.22-2.752 44.825-20.902s-2.752-38.219-20.902-44.825"/><path fill="#d6c3a8" d="m377.815 463.593 509.386 185.401a3.497 3.497 0 0 1 2.09 4.483l-19.138 52.581a3.497 3.497 0 0 1-4.483 2.09l-509.385-185.4a3.497 3.497 0 0 1-2.09-4.483l19.138-52.582a3.497 3.497 0 0 1 4.482-2.09m-62.079 170.562 509.385 185.401a3.497 3.497 0 0 1 2.09 4.483l-7.774 21.36a3.497 3.497 0 0 1-4.483 2.091L305.57 662.089a3.497 3.497 0 0 1-2.09-4.483l7.775-21.36a3.497 3.497 0 0 1 4.482-2.091"/><path fill="#453840" d="m866.564 715.917-35.884 98.591-515.958-187.793 35.884-98.591zm-178.212-57.42-163.99-59.687-31.099 85.445 163.99 59.687zM461.62 587.138c-18.15-6.606-38.219 2.752-44.825 20.902s2.752 38.22 20.902 44.825 38.22-2.752 44.825-20.902-2.752-38.219-20.902-44.825m282.298 102.748c-18.15-6.606-38.219 2.752-44.825 20.903-6.606 18.15 2.752 38.218 20.902 44.824 18.15 6.607 38.22-2.752 44.825-20.902s-2.752-38.219-20.902-44.825"/><g transform="rotate(20 -1286.92 2907.699)"><circle cx="11.191" cy="11.191" r="11.191" fill="#1b1619"/><path fill="#453840" fill-rule="nonzero" d="M16.62 10.909q1.043.28.763 1.322l-.21.782q-.28 1.043-1.322.763l-3.461-.927-.933 3.483q-.273 1.018-1.316.739l-1.09-.292q-1.043-.28-.765-1.322l.927-3.46-3.437-.92q-1.043-.28-.764-1.323l.21-.782q.28-1.042 1.322-.763l3.438.921.914-3.412q.28-1.042 1.322-.763l1.114.299q1.043.28.764 1.322l-.914 3.412z"/></g><g transform="rotate(20 -987.904 1211.892)"><circle cx="11.191" cy="11.191" r="11.191" fill="#1b1619"/><path fill="#453840" fill-rule="nonzero" d="M16.62 10.909q1.043.28.763 1.322l-.21.782q-.28 1.043-1.322.763l-3.461-.927-.933 3.483q-.273 1.018-1.316.739l-1.09-.292q-1.043-.28-.765-1.322l.927-3.46-3.437-.92q-1.043-.28-.764-1.323l.21-.782q.28-1.042 1.322-.763l3.438.921.914-3.412q.28-1.042 1.322-.763l1.114.299q1.043.28.764 1.322l-.914 3.412z"/></g><g transform="rotate(20 -2298.454 2729.338)"><circle cx="11.191" cy="11.191" r="11.191" fill="#1b1619"/><path fill="#453840" fill-rule="nonzero" d="M16.62 10.909q1.043.28.763 1.322l-.21.782q-.28 1.043-1.322.763l-3.461-.927-.933 3.483q-.273 1.018-1.316.739l-1.09-.292q-1.043-.28-.765-1.322l.927-3.46-3.437-.92q-1.043-.28-.764-1.323l.21-.782q.28-1.042 1.322-.763l3.438.921.914-3.412q.28-1.042 1.322-.763l1.114.299q1.043.28.764 1.322l-.914 3.412z"/></g><g transform="rotate(20 -1967.814 1915.418)"><circle cx="11.191" cy="11.191" r="11.191" fill="#1b1619"/><path fill="#453840" fill-rule="nonzero" d="M16.62 10.909q1.043.28.763 1.322l-.21.782q-.28 1.043-1.322.763l-3.461-.927-.933 3.483q-.273 1.018-1.316.739l-1.09-.292q-1.043-.28-.765-1.322l.927-3.46-3.437-.92q-1.043-.28-.764-1.323l.21-.782q.28-1.042 1.322-.763l3.438.921.914-3.412q.28-1.042 1.322-.763l1.114.299q1.043.28.764 1.322l-.914 3.412z"/></g><g transform="rotate(20 -1999.437 1033.532)"><circle cx="11.191" cy="11.191" r="11.191" fill="#1b1619"/><path fill="#453840" fill-rule="nonzero" d="M16.62 10.909q1.043.28.763 1.322l-.21.782q-.28 1.043-1.322.763l-3.461-.927-.933 3.483q-.273 1.018-1.316.739l-1.09-.292q-1.043-.28-.765-1.322l.927-3.46-3.437-.92q-1.043-.28-.764-1.323l.21-.782q.28-1.042 1.322-.763l3.438.921.914-3.412q.28-1.042 1.322-.763l1.114.299q1.043.28.764 1.322l-.914 3.412z"/></g><path fill="#5ea085" d="m791.636 688.645 75.586 27.512-7.177 19.718-75.586-27.511z"/><path fill="#91bda0" d="m784.459 708.364 75.586 27.511-7.177 19.719-75.586-27.512z"/><path fill="#efc675" d="m777.282 728.082 75.586 27.51-7.177 19.72-75.586-27.512z"/><path fill="#292126" d="m770.105 747.8 75.586 27.511-7.177 19.719-75.586-27.511z"/><path fill="#eb5b3d" d="m762.928 767.518 75.586 27.51-7.177 19.72-75.586-27.512z"/><path fill="#5ea085" d="m350.606 528.124 75.587 27.511-7.177 19.719-75.586-27.511z"/><path fill="#91bda0" d="m343.43 547.843 75.586 27.51-7.177 19.72-75.586-27.512z"/><path fill="#efc675" d="m336.253 567.56 75.586 27.511-7.177 19.719-75.586-27.511z"/><path fill="#292126" d="m329.076 587.279 75.586 27.51-7.177 19.72-75.586-27.512z"/><path fill="#eb5b3d" d="m321.9 606.996 75.585 27.511-7.177 19.719-75.586-27.511z"/><path fill="#292126" d="m422.118 490.139-14.951 41.08-41.08-14.952 14.952-41.08zm-22.38 1.903-11.173-4.067-8.371 23.002 10.424 3.794q1.763.642 3.382.878t3.034-.204q1.251-.375 2.298-1.214 1.62-1.249 2.364-3.292.721-1.982.33-3.697-.392-1.716-1.922-2.997 1.37-.173 2.225-.675 1.527-.894 2.293-3 .745-2.044.217-3.897-.894-3.03-5.1-4.631m-5.544 12.561q1.493.56 2.184 1.237 1.237 1.21.585 3.005-.772 2.122-2.575 2.315-.99.099-2.504-.452l-5.649-2.056 2.232-6.133Zm2.561-9.123q1.67.608 2.616 1.359 1.06.97.476 2.576-.528 1.452-1.669 1.672-1.162.231-2.676-.32l-5.649-2.056 1.846-5.071Z"/><path fill="#1b1619" fill-rule="nonzero" d="M387.213 683.876a10.6 10.6 0 0 1-2.09-1.02 6 6 0 0 1-1.552-1.396 3.96 3.96 0 0 1-.775-1.728q-.166-.935.236-2.04l.073-.2a.6.6 0 0 1 .078-.155l2.82 1.026a.5.5 0 0 0-.074.146l-.062.172q-.222.61-.041 1.15.18.54.752.987t1.43.757q.553.201 1.006.29.453.09.832.088t.66-.095q.281-.09.47-.282a1.3 1.3 0 0 0 .292-.476q.187-.514-.029-.96-.215-.446-.713-.886a13 13 0 0 0-1.153-.895l-1.345-.932q-.69-.477-1.306-1.036a6.4 6.4 0 0 1-1.036-1.187 3.3 3.3 0 0 1-.527-1.4q-.107-.774.226-1.688.354-.973 1.02-1.528.667-.557 1.577-.743a6 6 0 0 1 1.962-.053q1.051.135 2.195.551a9.6 9.6 0 0 1 1.94.955 5.4 5.4 0 0 1 1.425 1.306q.551.74.697 1.614.146.873-.215 1.864l-.083.229-2.764-1.006.056-.152a1.4 1.4 0 0 0 .014-.988q-.173-.474-.65-.884-.476-.41-1.22-.682-.8-.29-1.418-.343t-1.02.136a1.01 1.01 0 0 0-.55.588q-.165.457.06.874.227.417.728.848.501.43 1.163.866.663.435 1.348.922.686.487 1.307 1.037t1.036 1.186q.416.638.53 1.391.113.754-.205 1.63-.548 1.507-1.606 2.158-1.057.65-2.468.613-1.41-.038-3.03-.629m13.02 4.739q-1.698-.618-2.766-1.536-1.07-.918-1.431-1.999-.362-1.082.061-2.244.48-1.315 1.468-1.84.99-.525 2.207-.428l.027-.076q-.806-.747-1.184-1.64-.375-.892.04-2.036.416-1.143 1.36-1.718.941-.574 2.3-.566 1.356.009 2.976.598 1.583.576 2.601 1.454t1.372 1.924a3.1 3.1 0 0 1-.035 2.113l-.174.477-2.554-.93.111-.305q.208-.571.029-1.058-.18-.486-.691-.888-.512-.402-1.37-.714a4.7 4.7 0 0 0-1.183-.28 2.7 2.7 0 0 0-.974.067q-.42.116-.72.407-.3.29-.46.728-.2.553-.057 1.048t.542.855q.397.36.95.562l1.43.52-.729 2.002-1.487-.541a4.2 4.2 0 0 0-1.193-.251 1.8 1.8 0 0 0-1.059.24q-.456.277-.72 1.001-.243.668-.075 1.214t.717.995q.549.448 1.464.781.972.354 1.679.341.706-.012 1.158-.366.453-.354.675-.963l1.38-3.794 4.499 1.638-.729 2.001-1.925-.7-.624 1.715q-.458 1.258-1.389 1.977-.93.72-2.319.796-1.388.078-3.199-.581m9.48 3.191 4.759-13.075 2.61.95 2.695 8.967q.066.176.15.476.085.3.154.585.07.285.078.438l.096.035.232-.638.205-.563 2.567-7.052 2.687.978-4.759 13.076-2.611-.95-2.746-9.181a17 17 0 0 1-.31-1.343l-.095-.035-.205.562-.19.524-2.63 7.225zM728.85 808.222q-1.447-.527-2.217-1.411a3.67 3.67 0 0 1-.905-1.992q-.136-1.107.308-2.327l2.592.943q-.243.668-.225 1.214a1.5 1.5 0 0 0 .33.93q.314.383.924.605.896.326 1.523.026t1.119-1.147.969-2.098q-.241.129-.73.253-.487.125-1.141.113a4.2 4.2 0 0 1-1.36-.268q-1.353-.492-2.074-1.359a3.63 3.63 0 0 1-.834-2.009q-.113-1.141.331-2.362.5-1.372 1.444-2.13a4.2 4.2 0 0 1 2.184-.899q1.239-.142 2.593.35 1.2.438 2.013 1.11.813.675 1.18 1.65.368.975.255 2.327-.115 1.35-.76 3.123-.727 2.001-1.551 3.256t-1.745 1.858a3.8 3.8 0 0 1-1.981.639q-1.06.035-2.242-.395m2.505-6.88q.705.256 1.28.13a1.85 1.85 0 0 0 .984-.57 3.3 3.3 0 0 0 .653-1.111q.25-.686.218-1.28a1.86 1.86 0 0 0-.392-1.06q-.36-.466-1.064-.723-.687-.25-1.255-.11a2 2 0 0 0-.984.569 3.1 3.1 0 0 0-.66 1.098q-.249.687-.208 1.285t.392 1.06q.35.461 1.036.711m9.008 11.07q-1.182-.43-1.95-1.108a3.65 3.65 0 0 1-1.08-1.689q-.312-1.01-.135-2.413.176-1.404.863-3.29.693-1.907 1.457-3.086.764-1.18 1.656-1.76a3.55 3.55 0 0 1 1.912-.6q1.02-.017 2.203.413 1.2.438 1.953 1.1a3.57 3.57 0 0 1 1.06 1.68q.31 1.02.137 2.414t-.867 3.3q-.687 1.887-1.454 3.076t-1.655 1.761a3.67 3.67 0 0 1-1.894.606q-1.005.034-2.206-.404m.75-2.058q.837.305 1.44.017.601-.29 1.105-1.141.505-.852 1.004-2.225l.43-1.182q.507-1.39.672-2.378.165-.987-.107-1.604-.271-.617-1.11-.922t-1.454-.011-1.115 1.137-1.008 2.235l-.43 1.181q-.506 1.391-.671 2.379-.165.986.12 1.598.285.61 1.123.916M459.745 518.428q2.745 1.8 3.219 4.249.474 2.447-1.205 5.092a16.5 16.5 0 0 1-2.861 3.374 15.7 15.7 0 0 1-3.588 2.419 28 28 0 0 1-3.857 1.562q-1.897.603-4.317 1.105-5.19 1.1-9.923-.891a5.6 5.6 0 0 1-.864-.515 10 10 0 0 1-.963-.797 8 8 0 0 0-.807-.673q.098-.142.33-.415 6.081 1.365 6.12 1.38 2.367.505 4.725.114 2.357-.39 5.283-1.422 3.113-1.053 7.527-4.575.868-.666 1.537-1.827t.898-2.282q.405-2.217-.608-3.433-1.011-1.215-3.723-1.757a9.6 9.6 0 0 0-2.155-.226q-1.164 0-2.722.102a73 73 0 0 1-2.237.122 4 4 0 0 0-.72.073q-.455.08-.827.122a2.1 2.1 0 0 1-.704-.033 3 3 0 0 1-.54-.175 5 5 0 0 1-.53-.326q-.36-.243-.543-.354.096-.143.28-.522.182-.38.342-.634t.335-.369a665 665 0 0 1 4.67-2.135q3.164-1.437 4.754-2.24 2.02-1.005 3.441-2.45.356-.36.538-1.23.183-.871-.026-1.036-.758-.5-3.056-1.068a2.4 2.4 0 0 0-.439-.026q-.225.008-.553.044a4 4 0 0 1-.46.034q-4.9.312-6.233.407-.28.032-.534.608-.91 2.256-2.603 6.412a803 803 0 0 1-2.387 5.822q-2.344 5.703-3.993 9.742-.48 1.074-1.306 1.62.315-2.339.95-4.76a50 50 0 0 1 1.537-4.838q.9-2.415 1.698-4.422a243 243 0 0 1 1.933-4.694 175 175 0 0 0 1.833-4.484q-.376-.315-.627-.429-.25-.113-.697-.053t-.858.268-1.277.806q-.867.6-1.77 1.296t-2.532 1.978q-.924-.783-.793-1.694.13-.911 1.032-1.297 1.212-.63 3.61-1.562a148 148 0 0 0 3.192-1.27q.524-.21 1.346-.87t1.12-.864q.431-.2.935-.418.505-.217.609-.135.592.707 1.356 1.007t1.403.265a56 56 0 0 0 1.585-.114q.946-.08 1.503-.01 2.732.236 4.676 1.166 1.143.55 1.499 1.66.357 1.111-.126 2.252-.482 1.14-1.591 1.851-1.339.852-3.932 2.383t-2.892 1.735q-.04-.014-1.313.904 4.71-.648 7.876 1.35m38.136 18.407q.273.479.871 3.016a4 4 0 0 0-.469-.126 4 4 0 0 1-.41-.105.7.7 0 0 1-.202-.118q-.141-.72-.408-1.152-.269-.432-.497-.605-.228-.172-.721-.106-.495.065-.715.119-.221.052-.786.316l-.254.118-.106.049-.313.145q-2.85 1.192-5.022 3.347-2.17 2.152-4.233 5.238 1.666.34 2.765.025 1.098-.313 4.322-2.04.5-.264 1.075-.433.576-.17 1.352-.333l1.163-.246q-.01.398.134 1.23.144.834.161 1.464t-.116 1.118a1577 1577 0 0 1-1.09 3.55 49 49 0 0 1-1.113 3.119 36 36 0 0 1-1.506 3.399q-1.474 2.943-5.35 4.431-3.874 1.489-7.312.728-5.183-1.128-8.576-5.574a5 5 0 0 1-.591-1.018q-.258-.585-.502-1.387-.244-.803-.382-1.165l.865-.533q.105.083.3.221l.123.087.197.141q.125.09.273.233.15.144.225.305 1.719 2.9 4.602 4.507t5.947 1.607 5.406-1.511a9.7 9.7 0 0 0 2.888-2.896q1.13-1.752 2.044-4.14.244-.67.45-1.42t.444-1.712q.238-.96.316-1.423a1 1 0 0 1-.134-.183 3 3 0 0 0-.16-.237 1.4 1.4 0 0 1-.14-.23q-.285.165-.88.573t-1.075.68q-.48.27-.91.47-3.21 1.197-5.145 1.473-1.587.18-2.306-.794-.719-.976-.292-2.515a8.8 8.8 0 0 1 .715-1.658q.453-.816.82-1.33.365-.513 1.151-1.32.786-.806 1.112-1.09l.567-.483.282-.24.512-.432a46 46 0 0 0 1.238-1.065q2.067-1.745 3.664-2.324a9.6 9.6 0 0 1 4.439-.392q1.02.15 1.293.627m-18.152-9.26q.513 1.168-.232 2.725a9.4 9.4 0 0 1-1.828 2.502q-1.153 1.14-2.255 1.833-1.102.691-2.692 1.495-.73.404-2.621 1.053-1.892.65-2.771 1.222-.568.329-.912 1.274t-.296 1.676q.011.584.568 1.389.557.804 1.02.884 2.493.283 5.645-.265.775-.163 1.6-.399a32 32 0 0 0 1.878-.61q1.053-.375 1.563-.546a1.2 1.2 0 0 0 .205.298.5.5 0 0 1 .09.122l-.784.74q-.512.483-.933.843t-.853.559q-4.929 2.355-8.674 1.704-1.642-.285-2.783-1.882a5.33 5.33 0 0 1-1.01-3.557q.029-.57-.057-1.626a77 77 0 0 1-.103-1.376q0-.98.164-1.189l1.846-2.183a565 565 0 0 0 2.011-2.39 72 72 0 0 1 1.837-2.097 60 60 0 0 1 2.106-2.221q2.853-2.798 6.122-1.697 1.635.55 2.149 1.718m-2.15.867a9 9 0 0 0-.667-.198 28 28 0 0 0-.819-.209 3 3 0 0 0-.71-.08.8.8 0 0 0-.38.063 4 4 0 0 0-.519.257 9 9 0 0 1-.364.202q-1.483.753-2.794 2.083-1.311 1.329-1.991 2.397-.68 1.069-1.864 3.09 5.45-1.45 9.118-5.378.219-.232.416-.652.196-.418.306-.78.11-.361.267-.795m34.01 13.761q-.23 6.653-4.855 11.124a7 7 0 0 0-.587.567q-.396.412-.628.619-.231.206-.585.5a6 6 0 0 1-.698.504q-.345.21-.667.36-.847.36-1.94.409-1.09.048-1.612-.364-.441-.384-.504-1.566-.061-1.183.355-1.834.362-.626.812-1.31.45-.683.85-1.229l.931-1.267q.53-.72.91-1.208l.97-1.252q.592-.765.922-1.181 1.116-1.467 2.035-2.025 1.212-.629 1.291-1.336t-1.39-1.465q1.805-.904 3.105-.297t1.284 2.251m-9.203 11.637q2.348-1.286 3.798-3.367 1.452-2.082 2.728-5.096-.105-.082-.28-.213-.177-.132-.28-.214-1.5 1.908-6.552 8.41.288.194.586.48m15.814-1.157q3.128-4.17 3.444-4.545 1.84-2.229 3.071-3.03 1.08-.633 1.6-.154.52.48.344 1.575-.274 2.354-1.227 5.708-.531 1.95-1.68 4.741a1.7 1.7 0 0 1-.21.392q-.14.195-.282.344-.144.148-.329.348a7 7 0 0 1-.32.33l-.87-.317 2.187-9.329a.5.5 0 0 1-.124-.09.5.5 0 0 0-.163-.103q-5.265 8.074-7.623 11.721l-.107.295q-.08.217-.187.267-.351.229-2.347 1.287-.087-.255-.272-.79a7 7 0 0 1-.26-.943 1.8 1.8 0 0 1-.001-.736q.651-3.02 1.694-5.271 1.145-2.527 4.371-8.445.266-.483 1.471-1.828.015-.04.166.038.15.077.307.2.156.124.246.247.46.702.312 1.295-.15.592-.678 1.247-.53.655-.658 1.01-.147.526-.456 1.127-.308.601-.579 1.039l-.653 1.055q-.381.62-.618 1.024.079.03.222.126.144.097.209.165m24.365 4.363q-.03.57-.696 2.156-.411 1.01-3.498 8.137-.777-.817-.986-1.719-.208-.9.008-1.558.217-.657.479-1.499.261-.84.3-1.317-.66.339-2.232 1.216a88 88 0 0 0-2.721 1.575q-1.149.696-2.19 1.344-.879.571-1.664.576-.785.004-1.299-.673-.405-.728-.53-1.8-.125-1.07.248-1.604 2.526-3.496 6.34-7.46 1.188-1.173 3.826-2.399 1.278-.56 2.414-.548t1.798.654q.037.637.167 1.756.13 1.117.184 1.829.055.71.052 1.334m-11.954 6.532q1.654-1.226 5.181-3.845 3.525-2.62 5.371-4-.075-.16-.54-2.204a16.2 16.2 0 0 0-4.448 2.262q-2.006 1.456-3.387 3.16t-2.666 4.003q.065.069.49.624m60.17-7.091q2.353 1.525 3.11 3.563.758 2.038-.058 3.97-.815 1.934-2.886 3.32-5.05 3.426-13.072 4.074-1.254.125-2.668.077a67 67 0 0 1-3.326-.206q-1.91-.16-2.894-.162l-2.638 7.247q-.531-.506-.798-1.004a2.2 2.2 0 0 1-.272-1.036q-.005-.537.045-.92t.238-.962.234-.829q2.055-9.331 5.999-17.71.125-.221.22-.543t.154-.546q.06-.225.134-.554t.161-.565q-3.788-.042-5.402.397t-2.428 2.06q-1.131-.456-1.272-1.176t.807-1.357q2.387-1.763 4.136-2.018 5.418-.75 13.021.859 4.72 1.05 9.455 4.02m-2.28 9.83q3.377-2.027 3.575-3.984.198-1.958-2.698-4.082-.953-.704-2.324-1.36a35 35 0 0 0-2.136-.955q-.763-.3-2.62-.976a14 14 0 0 0-1.782-.514 48 48 0 0 0-2.236-.435 47 47 0 0 1-1.905-.359q-.042 1.1-.122 2.855t-.15 2.443a21 21 0 0 1-.92-.915 15 15 0 0 0-.759-.744l-.37-.336-4.616 12.682a562 562 0 0 1 3.818-.038q4.653 0 8.341-.666a20.1 20.1 0 0 0 6.904-2.616m14.832 20.964a1.2 1.2 0 0 0 .205.298.5.5 0 0 1 .09.122l-.785.74q-.51.483-.933.843-.42.36-.852.56-4.93 2.353-8.675 1.704-1.642-.285-2.782-1.883a5.33 5.33 0 0 1-1.01-3.557q.029-.57-.057-1.626a77 77 0 0 1-.104-1.376q0-.98.165-1.189l1.846-2.182a565 565 0 0 0 2.01-2.39 72 72 0 0 1 1.838-2.097 60 60 0 0 1 2.106-2.222q2.853-2.797 6.121-1.697 1.635.55 2.15 1.719.513 1.168-.232 2.725a9.4 9.4 0 0 1-1.828 2.502q-1.154 1.14-2.256 1.833-1.101.691-2.692 1.495-.73.404-2.62 1.054-1.893.65-2.772 1.221-.567.33-.911 1.274-.344.945-.297 1.676.012.584.569 1.389t1.02.884q2.493.283 5.645-.264.775-.165 1.6-.4a32 32 0 0 0 1.877-.61q1.054-.374 1.564-.546m-4.276-13.331q-1.483.754-2.794 2.083-1.312 1.329-1.992 2.397-.68 1.07-1.863 3.091 5.45-1.45 9.117-5.379.22-.232.416-.651.198-.42.307-.78.11-.363.267-.796a9 9 0 0 0-.667-.198 28 28 0 0 0-.818-.209 3 3 0 0 0-.71-.08.8.8 0 0 0-.38.063 4 4 0 0 0-.519.257 9 9 0 0 1-.364.202m38.403 11.034q.514 1.169-.231 2.726a9.4 9.4 0 0 1-1.828 2.501q-1.154 1.141-2.256 1.833t-2.692 1.496q-.73.404-2.62 1.053-1.893.65-2.772 1.221-.567.33-.911 1.274-.344.946-.297 1.676.012.585.568 1.39.558.803 1.021.884 2.493.282 5.645-.265.775-.164 1.6-.4a32 32 0 0 0 1.877-.61q1.054-.375 1.564-.545a1.2 1.2 0 0 0 .204.297.5.5 0 0 1 .09.122l-.208.197-.576.544q-.51.482-.933.842-.42.36-.852.56-4.93 2.353-8.675 1.704-1.641-.285-2.783-1.883a5.33 5.33 0 0 1-1.01-3.556q.029-.57-.056-1.627a77 77 0 0 1-.104-1.375q0-.982.165-1.19.548-.647 1.846-2.182 1.297-1.535 2.01-2.39a72 72 0 0 1 1.838-2.097 60 60 0 0 1 2.106-2.222q2.853-2.797 6.121-1.697 1.635.55 2.149 1.719m-9.79-5.927a16 16 0 0 0-3.385 1.31q-1.605.843-2.766 1.759t-2.481 2.33a40 40 0 0 0-2.153 2.473q-.833 1.057-2.113 2.732a88 88 0 0 1-2.077 2.634q-.194.286-.519.748-.324.46-.64.837-.316.375-.642.658a2.65 2.65 0 0 1-.998.529q-.603.182-.945.013-.356-.13-.665-.755t-.205-1.034q.766-3.333 2.199-7.763.394-1.328 2.075-5.578.44-1.089 1.13-1.752.69-.664 2.025-.891l-4.33 11.894q.026.053.164.104t.203.119q.578-.727 1.862-2.289a104 104 0 0 1 2.312-2.726 28 28 0 0 1 2.037-2.091q2.07-1.878 6.647-4.494.958-.543 1.822-.274.864.27 1.443 1.507m7.64 6.795a9 9 0 0 0-.667-.198 28 28 0 0 0-.819-.21 3 3 0 0 0-.709-.079.8.8 0 0 0-.38.062 4 4 0 0 0-.52.257 9 9 0 0 1-.363.202q-1.483.754-2.795 2.083t-1.99 2.398-1.864 3.09q5.45-1.45 9.117-5.379.22-.233.416-.651.198-.42.307-.78.11-.363.267-.795m31.757-2.18q1.398.465.375 2.412a72 72 0 0 0-1.323 2.53 423 423 0 0 1-1.346 2.654 82 82 0 0 1-1.315 2.443 31 31 0 0 1-1.535 2.496q-3.217 5.03-5.423 13.548-.1.276-1.365 4.365a.4.4 0 0 1-.192-.026 1.4 1.4 0 0 0-.225-.059 1.3 1.3 0 0 1-.204-.052 7.7 7.7 0 0 1-.32-3.239q.183-1.672.8-3.857.615-2.184.78-3.373-.19.153-.557.422-1.543 1.044-2.361 1.571t-2.115 1.26-2.496 1.143q-1.2.41-2.469.573-1.227.178-2.052.168t-1.717-.447-1.547-1.343q-1.66-2.568.74-5.842 5.764-7.848 15.366-8.412a4 4 0 0 1 1.067.143q.615.156 1.061.342.448.185.976.332 4.425-7.488 5.258-8.79.29-.43 1.017-.767.728-.338 1.122-.194m-17.509 21.059q3.034-1.572 5.117-3.178t3.148-3.671q1.36-3.609-1.7-3.072-2.632.468-4.768 1.297-5.618 2.281-8.265 6.849-.32.508-.385 1.243-.066.735.175 1.178.23.352.916.557t1.22.087q2.952-.486 4.542-1.29m26.912 1.053q-.028.57-.695 2.155-.412 1.01-3.499 8.138-.775-.817-.985-1.72-.208-.9.008-1.557.217-.657.478-1.499.262-.84.301-1.318-.66.34-2.233 1.217a88 88 0 0 0-2.72 1.574q-1.149.698-2.19 1.344-.879.573-1.664.577t-1.299-.674q-.406-.727-.53-1.799-.126-1.071.248-1.604 2.525-3.497 6.34-7.46 1.187-1.174 3.826-2.399 1.278-.561 2.414-.548 1.137.012 1.798.654.036.638.167 1.755.13 1.118.184 1.83.054.71.051 1.334m-11.953 6.532 5.18-3.846q3.527-2.619 5.372-4-.075-.16-.54-2.203a16.2 16.2 0 0 0-4.448 2.262q-2.007 1.455-3.388 3.16t-2.665 4.003q.064.069.49.624"/><path fill="#c8deea" d="M462.593 582.66c20.24 7.367 30.676 29.747 23.31 49.987-7.368 20.24-29.748 30.676-49.988 23.309s-30.676-29.747-23.309-49.987 29.747-30.676 49.987-23.31m-4.976 3.304a34.4 34.4 0 0 0-19.952 1.04l4.293 9.21-7.069 3.296-4.222-9.055a34.4 34.4 0 0 0-12.486 14.147l9.176 3.34-2.668 7.33-9.064-3.3a34.4 34.4 0 0 0 .877 18.306l8.658-4.038 3.297 7.07-8.71 4.06a34.4 34.4 0 0 0 14.04 13.03l3.071-8.438 7.33 2.668-3.085 8.476a34.4 34.4 0 0 0 19.478-.873l-4.062-8.71 7.07-3.296 4.037 8.658a34.4 34.4 0 0 0 12.437-13.459L471 632.127l2.668-7.33 9.176 3.34a34.4 34.4 0 0 0-.47-18.862l-9.056 4.222-3.296-7.07 9.208-4.294a34.4 34.4 0 0 0-14.296-13.463l-3.071 8.438-7.33-2.667ZM745.44 685.608c20.24 7.367 30.676 29.747 23.31 49.987-7.367 20.24-29.747 30.676-49.987 23.309s-30.676-29.747-23.31-49.987c7.367-20.24 29.747-30.676 49.987-23.309m-4.976 3.305a34.4 34.4 0 0 0-19.952 1.04l4.294 9.209-7.07 3.296-4.222-9.055a34.4 34.4 0 0 0-12.485 14.147l9.176 3.34-2.668 7.33-9.064-3.3a34.4 34.4 0 0 0 .876 18.306l8.659-4.038 3.296 7.07-8.71 4.06a34.4 34.4 0 0 0 14.04 13.03l3.072-8.438 7.33 2.668-3.086 8.476a34.4 34.4 0 0 0 19.478-.873l-4.061-8.71 7.069-3.296 4.037 8.658a34.4 34.4 0 0 0 12.438-13.459l-9.064-3.299 2.667-7.33 9.177 3.34a34.4 34.4 0 0 0-.471-18.862l-9.055 4.222-3.297-7.07 9.209-4.294a34.4 34.4 0 0 0-14.296-13.463l-3.072 8.439-7.33-2.668Z"/></g></svg>