<svg class="portfolio-cassette" xmlns="http://www.w3.org/2000/svg" viewBox="0 0 1830 1145">

<g class="cassette-tape">
<path fill="#000" fill-rule="evenodd" d="M1006.396 363H1740v275h-733.604a75 75 0 0 1-64.837-37.301Q915 555.021 915 500.5t26.56-100.199A75 75 0 0 1 1006.395 363"/>
</g>

<g class="cassette-base">

<path fill="#372d33" d="M1780 0c27.614 0 50 22.386 50 50v1045c0 27.614-22.386 50-50 50H50c-27.614 0-50-22.386-50-50V50C0 22.386 22.386 0 50 0zM450 1031c-17.673 0-32 14.327-32 32s14.327 32 32 32 32-14.327 32-32-14.327-32-32-32m945 0c-17.673 0-32 14.327-32 32s14.327 32 32 32 32-14.327 32-32-14.327-32-32-32m-714-64c-17.673 0-32 14.327-32 32s14.327 32 32 32 32-14.327 32-32-14.327-32-32-32m483 0c-17.673 0-32 14.327-32 32s14.327 32 32 32 32-14.327 32-32-14.327-32-32-32m0-598H665v260h499zm-679 30c-55.228 0-100 44.772-100 100s44.772 100 100 100 100-44.772 100-100-44.772-100-100-100m859 0c-55.228 0-100 44.772-100 100s44.772 100 100 100 100-44.772 100-100-44.772-100-100-100"/>

<path fill="#50414a" d="M1488.882 825c9.854 0 18.24 7.177 19.76 16.912l43.75 280c1.706 10.914-5.759 21.143-16.672 22.848a20 20 0 0 1-3.088.24H319.368c-11.046 0-20-8.954-20-20a20 20 0 0 1 .24-3.088l43.75-280c1.52-9.735 9.906-16.912 19.76-16.912zM450 1031c-17.673 0-32 14.327-32 32s14.327 32 32 32 32-14.327 32-32-14.327-32-32-32m945 0c-17.673 0-32 14.327-32 32s14.327 32 32 32 32-14.327 32-32-14.327-32-32-32m-714-64c-17.673 0-32 14.327-32 32s14.327 32 32 32 32-14.327 32-32-14.327-32-32-32m483 0c-17.673 0-32 14.327-32 32s14.327 32 32 32 32-14.327 32-32-14.327-32-32-32"/>

<path fill="#292126" d="M1730.584 106c11.046 0 20 8.954 20 20v784.103c0 11.005-8.892 19.943-19.897 20l-154.584.794c-11.046.056-20.046-8.852-20.103-19.897V809.917c0-11.046-8.954-20-20-20H110c-11.046 0-20-8.954-20-20V126c0-11.046 8.954-20 20-20zM1164 369H665v260h499zm-679 30c-55.228 0-100 44.772-100 100s44.772 100 100 100 100-44.772 100-100-44.772-100-100-100m859 0c-55.228 0-100 44.772-100 100s44.772 100 100 100 100-44.772 100-100-44.772-100-100-100"/>

<path fill="#d6c3a8" d="M139 149h1550c5.523 0 10 4.477 10 10v160c0 5.523-4.477 10-10 10H139c-5.523 0-10-4.477-10-10V159c0-5.523 4.477-10 10-10m0 519h1550c5.523 0 10 4.477 10 10v65c0 5.523-4.477 10-10 10H139c-5.523 0-10-4.477-10-10v-65c0-5.523 4.477-10 10-10"/>

<path fill="#453840" d="M1699 349v300H129V349zm-535 20H665v260h499zm-679 30c-55.228 0-100 44.772-100 100s44.772 100 100 100 100-44.772 100-100-44.772-100-100-100m859 0c-55.228 0-100 44.772-100 100s44.772 100 100 100 100-44.772 100-100-44.772-100-100-100"/>

<g transform="translate(1736 30)">
<circle cx="32" cy="32" r="32" fill="#1b1619"/>
<path  fill="#453840" fill-rule="nonzero" d="M47.52 31.193q2.983.8 2.184 3.78l-.599 2.236q-.798 2.98-3.781 2.182l-9.896-2.652-2.67 9.96q-.78 2.912-3.762 2.113l-3.118-.835q-2.983-.8-2.184-3.78l2.65-9.892-9.828-2.633q-2.983-.8-2.184-3.78l.599-2.236q.8-2.982 3.781-2.182l9.829 2.633 2.614-9.756q.8-2.98 3.781-2.182l3.186.854q2.983.8 2.184 3.78l-2.614 9.756z"/>
</g>

<g transform="translate(26 30)">
<circle cx="32" cy="32" r="32" fill="#1b1619"/>
<path  fill="#453840" fill-rule="nonzero" d="M47.52 31.193q2.983.8 2.184 3.78l-.599 2.236q-.798 2.98-3.781 2.182l-9.896-2.652-2.67 9.96q-.78 2.912-3.762 2.113l-3.118-.835q-2.983-.8-2.184-3.78l2.65-9.892-9.828-2.633q-2.983-.8-2.184-3.78l.599-2.236q.8-2.982 3.781-2.182l9.829 2.633 2.614-9.756q.8-2.98 3.781-2.182l3.186.854q2.983.8 2.184 3.78l-2.614 9.756z"/>
</g>

<g transform="translate(1736 1050)">
<circle cx="32" cy="32" r="32" fill="#1b1619"/>
<path  fill="#453840" fill-rule="nonzero" d="M47.52 31.193q2.983.8 2.184 3.78l-.599 2.236q-.798 2.98-3.781 2.182l-9.896-2.652-2.67 9.96q-.78 2.912-3.762 2.113l-3.118-.835q-2.983-.8-2.184-3.78l2.65-9.892-9.828-2.633q-2.983-.8-2.184-3.78l.599-2.236q.8-2.982 3.781-2.182l9.829 2.633 2.614-9.756q.8-2.98 3.781-2.182l3.186.854q2.983.8 2.184 3.78l-2.614 9.756z"/>
</g>

<g transform="translate(883 867)">
<circle cx="32" cy="32" r="32" fill="#1b1619"/>
<path  fill="#453840" fill-rule="nonzero" d="M47.52 31.193q2.983.8 2.184 3.78l-.599 2.236q-.798 2.98-3.781 2.182l-9.896-2.652-2.67 9.96q-.78 2.912-3.762 2.113l-3.118-.835q-2.983-.8-2.184-3.78l2.65-9.892-9.828-2.633q-2.983-.8-2.184-3.78l.599-2.236q.8-2.982 3.781-2.182l9.829 2.633 2.614-9.756q.8-2.98 3.781-2.182l3.186.854q2.983.8 2.184 3.78l-2.614 9.756z"/>
</g>

<g transform="translate(26 1050)">
<circle cx="32" cy="32" r="32" fill="#1b1619"/>
<path  fill="#453840" fill-rule="nonzero" d="M47.52 31.193q2.983.8 2.184 3.78l-.599 2.236q-.798 2.98-3.781 2.182l-9.896-2.652-2.67 9.96q-.78 2.912-3.762 2.113l-3.118-.835q-2.983-.8-2.184-3.78l2.65-9.892-9.828-2.633q-2.983-.8-2.184-3.78l.599-2.236q.8-2.982 3.781-2.182l9.829 2.633 2.614-9.756q.8-2.98 3.781-2.182l3.186.854q2.983.8 2.184 3.78l-2.614 9.756z"/>
</g>

<path  fill="#5ea085" d="M1471 349h230v60h-230z"/>
<path  fill="#91bda0" d="M1471 409h230v60h-230z"/>
<path  fill="#efc675" d="M1471 469h230v60h-230z"/>
<path  fill="#292126" d="M1471 529h230v60h-230z"/>
<path  fill="#eb5b3d" d="M1471 589h230v60h-230z"/>
<path  fill="#5ea085" d="M129 349h230v60H129z"/>
<path  fill="#91bda0" d="M129 409h230v60H129z"/>
<path  fill="#efc675" d="M129 469h230v60H129z"/>
<path  fill="#292126" d="M129 529h230v60H129z"/>
<path  fill="#eb5b3d" d="M129 589h230v60H129z"/>

<path  fill="#292126" d="M284 177v125H159V177zm-58.273 27H191.73v69.991h31.72q5.364 0 9.947-.95t7.954-3.513q2.991-2.232 4.985-5.509 3.135-4.938 3.134-11.158 0-6.03-2.73-10.257t-8.096-6.173q3.514-1.804 5.318-3.988 3.23-3.893 3.23-10.304 0-6.22-3.23-10.684-5.365-7.264-18.234-7.455m-2.611 39.174q4.558.048 7.075 1.187 4.51 2.041 4.51 7.503 0 6.457-4.653 8.737-2.564 1.234-7.17 1.234H205.69v-18.66Zm-2.042-27.018q5.08 0 8.357 1.092 3.8 1.567 3.799 6.458 0 4.416-2.85 6.125-2.894 1.757-7.502 1.757H205.69v-15.432Z"/>

<path  stroke="#292126" stroke-linecap="square" stroke-width="3" d="M346 239h1302"/>

<path  fill="#1b1619" fill-rule="nonzero" d="M379.681 731.696q-3.48 0-6.612-.696t-5.539-2.233-3.77-3.886-1.363-5.713v-.609q0-.32.058-.493h8.584q-.058.173-.058.464v.522q0 1.856 1.015 3.132t2.987 1.914 4.582.638q1.682 0 2.987-.203t2.32-.58 1.682-.899.986-1.218.319-1.566q0-1.566-1.015-2.552-1.016-.986-2.784-1.682a36 36 0 0 0-3.973-1.276l-4.524-1.189a36.5 36.5 0 0 1-4.524-1.508q-2.205-.9-3.944-2.175a9.45 9.45 0 0 1-2.784-3.248q-1.044-1.972-1.044-4.756 0-2.958 1.247-5.104t3.509-3.538 5.22-2.059 6.438-.667q3.248 0 6.148.667t5.104 2.117q2.205 1.45 3.451 3.654 1.247 2.205 1.247 5.22v.696h-8.41v-.464q0-1.566-.928-2.668t-2.61-1.74-3.944-.638q-2.436 0-4.147.464-1.71.465-2.61 1.363-.9.9-.899 2.117 0 1.392 1.015 2.291 1.016.9 2.784 1.566 1.77.667 3.973 1.189 2.204.522 4.524 1.16t4.524 1.508 3.944 2.175a9.9 9.9 0 0 1 2.784 3.219q1.044 1.914 1.044 4.582 0 4.582-2.204 7.366t-6.032 4.06-8.758 1.276m39.614 0q-5.162 0-8.932-1.421t-5.8-3.973-2.03-6.09q0-4.002 2.146-6.38 2.145-2.377 5.51-3.306v-.232q-2.9-1.218-4.785-3.248t-1.885-5.51 1.972-5.945 5.626-3.77 8.584-1.305q4.815 0 8.41 1.363 3.595 1.364 5.568 3.828 1.972 2.465 1.972 5.713v1.45h-7.772v-.928q0-1.74-.957-2.871-.957-1.13-2.726-1.711-1.77-.58-4.379-.58-1.914 0-3.451.406t-2.552 1.131a4.7 4.7 0 0 0-1.537 1.798q-.522 1.073-.522 2.407 0 1.682.87 2.871a5.2 5.2 0 0 0 2.291 1.769q1.421.58 3.103.58h4.35v6.09h-4.524a12 12 0 0 0-3.451.493q-1.653.494-2.61 1.682-.957 1.19-.957 3.393 0 2.03.986 3.335t2.9 1.972 4.698.667q2.958 0 4.843-.725t2.755-2.117.87-3.248v-11.542h13.688v6.09h-5.858v5.22q0 3.828-1.798 6.67t-5.452 4.408-9.164 1.566m28.594-.696v-39.788h7.946l16.008 21.46q.348.406.87 1.131t.986 1.421.638 1.102h.29v-25.114h8.178V731h-7.946l-16.356-21.982a48 48 0 0 1-1.218-1.798 29 29 0 0 1-.928-1.508h-.29V731zm971.353.696q-4.408 0-7.337-1.624t-4.379-4.466-1.45-6.554h7.888q0 2.03.58 3.48t1.798 2.175 3.074.725q2.726 0 4.118-1.421t1.885-4.176.551-6.583q-.522.58-1.711 1.392t-2.958 1.421-3.915.609q-4.118 0-6.902-1.624t-4.205-4.582-1.421-6.67q0-4.176 1.798-7.134t4.988-4.553 7.308-1.595q3.654 0 6.496 1.015a11.14 11.14 0 0 1 4.785 3.277q1.942 2.262 2.958 6.003 1.015 3.741 1.015 9.135 0 6.09-.986 10.266t-2.871 6.699-4.698 3.654-6.409 1.131m0-20.938q2.146 0 3.567-.899 1.42-.899 2.088-2.494.667-1.595.667-3.625 0-2.088-.667-3.654a5.3 5.3 0 0 0-2.088-2.465q-1.42-.9-3.567-.899-2.088 0-3.48.928a5.73 5.73 0 0 0-2.088 2.494q-.696 1.566-.696 3.596 0 2.088.696 3.654t2.088 2.465 3.48.899m35.032 20.938q-3.596 0-6.322-1.073t-4.553-3.48-2.726-6.351q-.9-3.944-.899-9.686 0-5.8.899-9.715.9-3.915 2.726-6.351t4.553-3.48q2.726-1.044 6.322-1.044 3.654 0 6.322 1.044t4.495 3.48 2.726 6.351.899 9.715q0 5.742-.899 9.686-.9 3.944-2.726 6.351t-4.495 3.48-6.322 1.073m0-6.264q2.552 0 3.886-1.363t1.856-4.147.522-6.96v-3.596q0-4.235-.522-7.047-.522-2.813-1.856-4.205t-3.886-1.392-3.915 1.392-1.885 4.147-.522 6.989v3.596q0 4.235.522 7.047.522 2.813 1.885 4.176t3.915 1.363"/>

</g>

<g class="cassette-spools">
<path class="cassette-spool" fill="#c8deea" d="M1345 393c60.751 0 110 49.249 110 110s-49.249 110-110 110-110-49.249-110-110 49.249-110 110-110m-10 13.559c-19.622 2.1-37.502 10.023-51.88 22.005l20.265 20.264-15.557 15.557-19.925-19.927c-10.685 14.021-17.656 31.024-19.446 49.543L1276 494v22l-27.206.001c2.284 17.848 9.395 34.188 19.98 47.668l19.054-19.054 15.557 15.557-19.167 19.166c13.938 11.277 31.048 18.79 49.782 20.99V575h22l.001 25.441c19.125-2.048 36.595-9.626 50.78-21.103l-19.166-19.166 15.557-15.557 19.053 19.054c10.586-13.48 17.697-29.82 19.981-47.668L1415 516v-22h27.543c-1.79-18.518-8.761-35.521-19.446-49.542l-19.925 19.927-15.557-15.557 20.265-20.264c-14.133-11.778-31.65-19.633-50.879-21.893L1357 432h-22Z"/>
<path class="cassette-spool" fill="#c8deea" d="M485 393c60.751 0 110 49.249 110 110s-49.249 110-110 110-110-49.249-110-110 49.249-110 110-110m-10 13.559c-19.622 2.1-37.502 10.023-51.88 22.005l20.265 20.264-15.557 15.557-19.925-19.927c-10.685 14.021-17.656 31.024-19.446 49.543L416 494v22l-27.206.001c2.284 17.848 9.395 34.188 19.98 47.668l19.054-19.054 15.557 15.557-19.167 19.166c13.938 11.277 31.048 18.79 49.782 20.99V575h22l.001 25.441c19.125-2.048 36.595-9.626 50.78-21.103l-19.166-19.166 15.557-15.557 19.053 19.054c10.586-13.48 17.697-29.82 19.981-47.668L555 516v-22h27.543c-1.79-18.518-8.761-35.521-19.446-49.542l-19.925 19.927-15.557-15.557 20.265-20.264c-14.133-11.778-31.65-19.633-50.879-21.893L497 432h-22Z"/>
</g>

<text fill="#1b1619" font-family="sunset-script, Sunset Script" font-size="84">
<tspan x="338" y="262">{{ title }}</tspan>
</text>

</svg>
