<svg xmlns="http://www.w3.org/2000/svg" viewBox="0 0 800 444">

<g fill="#3a91ad" class="logo-colour-1">
<path d="m695.955 248.116-53 161.79 37.499 6.41 9.365-34.76 39.563 6.166-2.395 42.26 42.92 4.332 3.813-175.318zm41.54 39.69-4.067 63.206-33.898-2.74 19.746-62.666z"/>
<path d="m509.18 433.584 121.078-12.804-2.935-137.84-105.54-20.832zm49.33-129.667 36.737 12.012-.688 74.13-44.685 10.29z"/>
<path d="m420.847 284.734 78.672 1.196.797-35.859-110.938 3.586 5.377 168.335 100.781-2.39-2.789-45.421-65.128 6.773-1.793-32.87 58.158-.398-3.784-35.46-57.162 3.586z"/>
<path d="m263.012 431.358 37.155-2.65-5.65-62.298 24.75-2.765 18.92 67.735 46.427-8.66-33.9-69.826 20.457-12.988-13.83-80.38-99.226 3.882zm26.142-137.67 37.483-3.479 3.49 39.89-35.955 4.945z"/>
<path d="m166.528 279.201 78.673 1.195.796-35.859-110.938 3.586 5.378 168.336 100.78-2.391-2.788-45.421-65.129 6.774-1.792-32.87 58.157-.399-3.784-35.46-57.162 3.586z"/>
<path d="m-.003 280.193 29.37 163.123 47.179-11.15-15.744-51.437 66.632-17.818-24.992-98.152zm51.14 72.1-12.203-47.41 35.514-5.048 8.533 43.808z"/>
</g>

<g fill="#2d7187" class="logo-colour-2">
<path  d="M680.643 40.368 641.947 206.16l37.914 3.117 6.3-35.444 39.95 2.695 1.297 42.308 43.135.574L759.06 44.43zm44.841 35.919 1.458 63.32-34.008.224 14.21-64.149z"/>
<path  d="m517.444 229.11 36.25.597-4.183-122.715 41.826 120.524 40.431-3.586 10.955-165.746h-44.415l2.788 98.013-36.448-95.622-44.415.398zm89.063-186.433q-6.09 0-12.845-1.508-6.753-1.508-12.58-3.363-6.09-1.855-10.461-3.014-4.37-1.16-7.018-1.16-5.032 0-7.284 2.435-2.25 2.434-4.634 7.77l-26.75-5.799q3.973-19.944 11.654-28.409 7.68-8.465 21.187-8.465 6.091 0 12.845 1.508t12.58 3.362q6.09 1.855 10.461 3.015 4.37 1.16 7.019 1.16 5.031 0 7.283-2.435 2.25-2.435 4.635-7.77l26.749 5.799q-3.973 19.944-11.653 28.409t-21.188 8.465"/>
<path  d="m377.492 204.91 125.619 13.777-.536-160.796-103.515-7.238zm84.936-24.015-45.388-4.772 12.288-87.208 33.892 3.568z"/>
<path  d="m317.677 172.533 22.904-1.395-1.593 27.293-39.834.996-6.374-109.169 41.428 2.191-.2 14.941 31.868 2.59-5.975-54.983L254.34 61.77l5.975 166.742 103.569 3.386 8.166-94.228-53.178-.597z"/>
<path  d="m165.289 77.22 78.672 1.195.797-35.858-110.938 3.586 5.378 168.335 100.78-2.39-2.788-45.421-65.129 6.773-1.793-32.87 58.158-.398-3.784-35.46-57.162 3.585z"/>
<path  d="M111.102 117.603 99.94 58.587l-94.973 4.51L18.67 240.275l111.622-22.164-15.023-68.876-47.927-6.206zm-34.643-9.767-35.843 19.933-3.145-40.52 32.108-3.208zm14.886 87.886-45.91 5.416-2.91-35.54 44.07 5.543z"/>
</g>

</svg>