<svg xmlns="http://www.w3.org/2000/svg" viewBox="0 0 787 120">

<g class="logo-colour-1" fill="#2d7187">
<path d="M748.486 13.255 722.236 93.4l18.569 3.174 4.638-17.22 19.59 3.054-1.187 20.934 21.253 2.144 1.894-86.845zm20.568 19.66-2.016 31.309-16.785-1.357 9.78-31.042z"/>
<path d="m655.997 105.128 59.954-6.345-1.45-68.28-52.26-10.318zm24.43-64.233 18.19 5.95-.342 36.721-22.127 5.098z"/>
<path d="m612.259 31.392 38.956.592.395-17.763-54.933 1.777 2.663 83.387 49.903-1.184-1.381-22.5-32.249 3.355-.888-16.282 28.798-.198-1.874-17.565-28.305 1.776z"/>
<path d="m534.107 104.024 18.398-1.313-2.8-30.86 12.256-1.37 9.37 33.555 22.989-4.29-16.787-34.59 10.129-6.433-6.85-39.817-49.133 1.921zm12.942-68.197 18.56-1.722 1.729 19.76-17.804 2.449z"/>
<path d="m486.33 28.651 38.956.592.394-17.763-54.932 1.777 2.663 83.387 49.902-1.184-1.38-22.5-32.25 3.355-.887-16.283 28.797-.197-1.873-17.566-28.305 1.777z"/>
<path d="m403.867 29.14 14.549 80.806 23.36-5.522-7.797-25.48 32.994-8.824L454.594 21.5zm25.325 35.718-6.044-23.485 17.585-2.5 4.227 21.701z"/>
<path d="m335.457 19.99-19.164 82.13 18.774 1.543 3.12-17.558 19.782 1.334.641 20.958 21.36.284L374.286 22zm22.203 17.793.721 31.366-16.84.112 7.038-31.777z"/>
<path d="m254.645 113.486 17.95.296-2.071-60.789 20.71 59.703 20.02-1.776 5.425-82.104h-21.993l1.38 48.552L278.02 30l-21.993.197zm44.101-92.357q-3.015 0-6.36-.746a73 73 0 0 1-6.23-1.665q-3.015-.918-5.18-1.493-2.163-.574-3.475-.574-2.49 0-3.606 1.206-1.114 1.206-2.295 3.847l-13.245-2.871q1.967-9.876 5.77-14.067T274.616.574q3.017 0 6.36.747a73 73 0 0 1 6.23 1.665 152 152 0 0 0 5.18 1.493q2.163.574 3.475.574 2.492 0 3.606-1.206Q300.582 2.64 301.762 0l13.246 2.87q-1.968 9.877-5.77 14.068-3.804 4.191-10.492 4.191"/>
<path d="m185.345 101.5 62.202 6.822-.263-79.652-51.257-3.584zm42.058-11.898-22.475-2.363 6.086-43.2 16.782 1.767z"/>
<path d="m155.728 85.46 11.341-.691-.789 13.52-19.724.493-3.156-54.078 20.513 1.085-.098 7.401 15.779 1.283-2.958-27.236-52.27 3.355 2.959 82.598 51.283 1.677 4.043-46.677-26.332-.296z"/>
<path d="m80.271 38.245 38.956.592.394-17.763-54.932 1.777 2.662 83.387 49.903-1.184-1.381-22.5-32.249 3.355-.888-16.282 28.798-.198-1.874-17.565-28.304 1.776z"/>
<path d="M53.439 58.25 47.91 29.016.884 31.248l6.788 87.768 55.27-10.977-7.44-34.12-23.73-3.074zm-17.154-4.839-17.748 9.874-1.558-20.072 15.899-1.589zm7.373 43.536L20.925 99.63l-1.442-17.606 21.822 2.747z"/>
</g>
</svg>